<?xml version="1.0" standalone="no"?>
<!DOCTYPE svg PUBLIC "-//W3C//DTD SVG 1.1//EN" "http://www.w3.org/Graphics/SVG/1.1/DTD/svg11.dtd" >
<svg xmlns="http://www.w3.org/2000/svg" xmlns:xlink="http://www.w3.org/1999/xlink" version="1.1">
<metadata>
Created by FontForge 20200306 at Thu Oct 14 19:57:27 2021
 By convertio
Grandview (c) 2020 Microsoft Corporation. All Right Reserved.
</metadata>
<defs>
<font id="Grandview-BoldItalic" horiz-adv-x="0" >
  <font-face 
    font-family="Grandview"
    font-weight="700"
    font-style="italic"
    font-stretch="normal"
    units-per-em="2048"
    panose-1="2 11 5 2 4 2 4 2 2 3"
    ascent="1626"
    descent="-422"
    x-height="1038"
    cap-height="1454"
    bbox="-2158 -610 2406 2344"
    underline-thickness="50"
    underline-position="-100"
    slope="-10"
    unicode-range="U+000D-2236"
  />
<missing-glyph horiz-adv-x="1488" 
d="M1484 1454l-248 -1454h-1159l248 1454h1159zM1196 1210h-669l-163 -966h669z" />
    <glyph glyph-name=".notdef" horiz-adv-x="1488" 
d="M1484 1454l-248 -1454h-1159l248 1454h1159zM1196 1210h-669l-163 -966h669z" />
    <glyph glyph-name=".null" 
 />
    <glyph glyph-name=".null" 
 />
    <glyph glyph-name="uni000D" unicode="&#xd;" horiz-adv-x="512" 
 />
    <glyph glyph-name="space" unicode=" " horiz-adv-x="550" 
 />
    <glyph glyph-name="A" unicode="A" horiz-adv-x="1346" 
d="M745 1454h176l313 -1454h-274l-48 253h-558l-133 -253h-284zM866 501l-101 533l-280 -533h381z" />
    <glyph glyph-name="Aacute" unicode="&#xc1;" horiz-adv-x="1346" 
d="M745 1454h176l313 -1454h-274l-48 253h-558l-133 -253h-284zM866 501l-101 533l-280 -533h381zM1233 1773l-341 -226l-137 156l324 245z" />
    <glyph glyph-name="Abreve" unicode="&#x102;" horiz-adv-x="1346" 
d="M745 1454h176l313 -1454h-274l-48 253h-558l-133 -253h-284zM866 501l-101 533l-280 -533h381zM560 1886l213 -2q-3 -19 -3 -36q0 -51 28.5 -78.5t80.5 -27.5h8q61 0 101.5 37t51.5 105l214 2q-27 -157 -131.5 -242.5t-267.5 -85.5h-8q-141 0 -217.5 65t-76.5 187
q0 38 7 76z" />
    <glyph glyph-name="Acircumflex" unicode="&#xc2;" horiz-adv-x="1346" 
d="M745 1454h176l313 -1454h-274l-48 253h-558l-133 -253h-284zM866 501l-101 533l-280 -533h381zM518 1685l400 268l309 -268l-164 -133l-178 150l-228 -150z" />
    <glyph glyph-name="Adieresis" unicode="&#xc4;" horiz-adv-x="1346" 
d="M745 1454h176l313 -1454h-274l-48 253h-558l-133 -253h-284zM866 501l-101 533l-280 -533h381zM984 1830h261l-44 -257h-262zM550 1830h262l-45 -257h-261z" />
    <glyph glyph-name="uni1EA0" unicode="&#x1ea0;" horiz-adv-x="1346" 
d="M745 1454h176l313 -1454h-274l-48 253h-558l-133 -253h-284zM866 501l-101 533l-280 -533h381zM643 -482h-279l45 262h279z" />
    <glyph glyph-name="Agrave" unicode="&#xc0;" horiz-adv-x="1346" 
d="M745 1454h176l313 -1454h-274l-48 253h-558l-133 -253h-284zM866 501l-101 533l-280 -533h381zM992 1701l-178 -157l-283 226l191 176z" />
    <glyph glyph-name="Amacron" unicode="&#x100;" horiz-adv-x="1346" 
d="M745 1454h176l313 -1454h-274l-48 253h-558l-133 -253h-284zM866 501l-101 533l-280 -533h381zM478 1574l44 254h750l-44 -254h-750z" />
    <glyph glyph-name="Aogonek" unicode="&#x104;" horiz-adv-x="1346" 
d="M745 1454h176l313 -1454h-108q-57 0 -91 -36.5t-34 -96.5q0 -74 94 -74h91l-36 -213h-98q-292 0 -292 200q0 106 48 181t138 112l-34 180h-558l-133 -253h-284zM866 501l-101 533l-280 -533h381z" />
    <glyph glyph-name="Aring" unicode="&#xc5;" horiz-adv-x="1346" 
d="M-63 0l784 1412q-67 19 -102 65.5t-35 117.5q0 95 41 168.5t115.5 113.5t171.5 40q115 0 176.5 -53.5t61.5 -150.5q0 -114 -58.5 -193t-161.5 -107l304 -1413h-274l-48 253h-558l-133 -253h-284zM485 501h381l-101 533zM796 1586q20 -18 57 -18q47 0 76.5 30.5t29.5 79.5
q0 34 -19.5 52.5t-56.5 18.5q-48 0 -77.5 -31t-29.5 -81q0 -33 20 -51z" />
    <glyph glyph-name="Atilde" unicode="&#xc3;" horiz-adv-x="1346" 
d="M745 1454h176l313 -1454h-274l-48 253h-558l-133 -253h-284zM866 501l-101 533l-280 -533h381zM458 1585q25 152 91 228.5t170 76.5q48 0 87.5 -13t92.5 -38q8 -4 14 -7.5t11 -5.5q37 -19 54.5 -26t35.5 -7q74 0 87 81l3 19h201l-4 -23q-54 -312 -261 -312
q-46 0 -85.5 12t-78.5 33q-5 3 -12 6.5t-14 7.5q-37 20 -59 29t-47 9q-71 0 -86 -74l-4 -20h-200z" />
    <glyph glyph-name="AE" unicode="&#xc6;" horiz-adv-x="2020" 
d="M-103 0l1062 1454h1142l-43 -248h-719l-62 -359h608l-43 -250h-607l-60 -349h721l-43 -248h-985l43 252h-543l-183 -252h-288zM542 493h410l126 739z" />
    <glyph glyph-name="B" unicode="B" horiz-adv-x="1342" 
d="M325 1454h599q199 0 298 -75.5t99 -238.5q0 -96 -49.5 -180.5t-133 -142t-181.5 -77.5q141 -16 201 -88t60 -193v-3q0 -132 -71 -236t-191.5 -162t-261.5 -58h-617zM383 247h313q74 0 131 27t88.5 78t31.5 120v3q0 75 -38 111.5t-136 36.5h-326zM489 869h327q97 0 158 52
t61 143q0 73 -38 108t-132 35h-318z" />
    <glyph glyph-name="uni0181" unicode="&#x181;" horiz-adv-x="1526" 
d="M65 1107l15 89q21 123 107.5 190.5t222.5 67.5h698q199 0 298 -75.5t99 -238.5q0 -96 -49.5 -180.5t-133 -142t-181.5 -77.5q141 -16 201 -88t60 -193v-3q0 -132 -71 -236t-191.5 -162t-261.5 -58h-617l206 1207h-43q-40 0 -65.5 -19t-30.5 -54l-4 -27h-259zM880 247
q74 0 131 27t88.5 78t31.5 120v3q0 75 -38 111.5t-136 36.5h-326l-64 -376h313zM1000 869q97 0 158 52t61 143q0 73 -38 108t-132 35h-318l-58 -338h327z" />
    <glyph glyph-name="C" unicode="C" horiz-adv-x="1287" 
d="M136 527l68 399q29 169 113.5 291t215 187t295.5 65q137 0 239 -58t153 -163t51 -239v-25h-279l1 20q0 63 -28.5 110.5t-76 72.5t-105.5 25q-122 0 -202.5 -76.5t-103.5 -209.5l-68 -399q-6 -36 -6 -70q0 -101 56 -158t161 -57q61 0 115.5 27t93 78.5t53.5 122.5h248
q-15 -147 -94 -257.5t-201 -169t-260 -58.5q-143 0 -244 49t-153.5 142t-52.5 224q0 65 11 127z" />
    <glyph glyph-name="Cacute" unicode="&#x106;" horiz-adv-x="1287" 
d="M136 527l68 399q29 169 113.5 291t215 187t295.5 65q137 0 239 -58t153 -163t51 -239v-25h-279l1 20q0 63 -28.5 110.5t-76 72.5t-105.5 25q-122 0 -202.5 -76.5t-103.5 -209.5l-68 -399q-6 -36 -6 -70q0 -101 56 -158t161 -57q61 0 115.5 27t93 78.5t53.5 122.5h248
q-15 -147 -94 -257.5t-201 -169t-260 -58.5q-143 0 -244 49t-153.5 142t-52.5 224q0 65 11 127zM1227 1773l-341 -226l-137 156l324 245z" />
    <glyph glyph-name="Ccaron" unicode="&#x10c;" horiz-adv-x="1287" 
d="M136 527l68 399q29 169 113.5 291t215 187t295.5 65q137 0 239 -58t153 -163t51 -239v-25h-279l1 20q0 63 -28.5 110.5t-76 72.5t-105.5 25q-122 0 -202.5 -76.5t-103.5 -209.5l-68 -399q-6 -36 -6 -70q0 -101 56 -158t161 -57q61 0 115.5 27t93 78.5t53.5 122.5h248
q-15 -147 -94 -257.5t-201 -169t-260 -58.5q-143 0 -244 49t-153.5 142t-52.5 224q0 65 11 127zM1243 1820l-399 -265l-308 265l156 145l186 -158l239 158z" />
    <glyph glyph-name="Ccedilla" unicode="&#xc7;" horiz-adv-x="1287" 
d="M125 400q0 65 11 127l68 399q29 169 113.5 291t215 187t295.5 65q137 0 239 -58t153 -163t51 -239v-25h-279l1 20q0 63 -28.5 110.5t-76 72.5t-105.5 25q-122 0 -202.5 -76.5t-103.5 -209.5l-68 -399q-6 -36 -6 -70q0 -101 56 -158t161 -57q61 0 115.5 27t93 78.5
t53.5 122.5h248q-13 -131 -77.5 -233t-165.5 -164.5t-221 -80.5l-10 -61q74 -13 113 -49t39 -92q0 -100 -88 -156t-245 -56q-101 0 -171 18l69 152q58 -14 108 -14q48 0 75.5 11.5t27.5 31.5q0 18 -31.5 29t-91.5 12h-25l30 175q-165 26 -253 131.5t-88 275.5z" />
    <glyph glyph-name="Cdotaccent" unicode="&#x10a;" horiz-adv-x="1287" 
d="M136 527l68 399q29 169 113.5 291t215 187t295.5 65q137 0 239 -58t153 -163t51 -239v-25h-279l1 20q0 63 -28.5 110.5t-76 72.5t-105.5 25q-122 0 -202.5 -76.5t-103.5 -209.5l-68 -399q-6 -36 -6 -70q0 -101 56 -158t161 -57q61 0 115.5 27t93 78.5t53.5 122.5h248
q-15 -147 -94 -257.5t-201 -169t-260 -58.5q-143 0 -244 49t-153.5 142t-52.5 224q0 65 11 127zM987 1574h-278l45 262h278z" />
    <glyph glyph-name="D" unicode="D" horiz-adv-x="1364" 
d="M325 1454h485q242 0 371.5 -105.5t129.5 -301.5q0 -57 -10 -114l-70 -412q-27 -158 -112.5 -275t-227 -181.5t-330.5 -64.5h-484zM384 248h222q146 0 237.5 70t112.5 195l73 428q5 32 5 55q0 100 -68 155t-198 55h-220z" />
    <glyph glyph-name="uni0189" unicode="&#x189;" horiz-adv-x="1391" 
d="M110 842h160l104 612h485q242 0 371.5 -105.5t129.5 -301.5q0 -57 -10 -114l-70 -412q-27 -158 -112.5 -275t-227 -181.5t-330.5 -64.5h-484l104 612h-160zM655 248q146 0 237.5 70t112.5 195l73 428q5 32 5 55q0 100 -68 155t-198 55h-220l-62 -364h266l-39 -230h-267
l-62 -364h222z" />
    <glyph glyph-name="Eth" unicode="&#xd0;" horiz-adv-x="1391" 
d="M110 842h160l104 612h485q242 0 371.5 -105.5t129.5 -301.5q0 -57 -10 -114l-70 -412q-27 -158 -112.5 -275t-227 -181.5t-330.5 -64.5h-484l104 612h-160zM655 248q146 0 237.5 70t112.5 195l73 428q5 32 5 55q0 100 -68 155t-198 55h-220l-62 -364h266l-39 -230h-267
l-62 -364h222z" />
    <glyph glyph-name="Dcaron" unicode="&#x10e;" horiz-adv-x="1364" 
d="M325 1454h485q242 0 371.5 -105.5t129.5 -301.5q0 -57 -10 -114l-70 -412q-27 -158 -112.5 -275t-227 -181.5t-330.5 -64.5h-484zM384 248h222q146 0 237.5 70t112.5 195l73 428q5 32 5 55q0 100 -68 155t-198 55h-220zM1241 1820l-399 -265l-308 265l156 145l186 -158
l239 158z" />
    <glyph glyph-name="Dcroat" unicode="&#x110;" horiz-adv-x="1391" 
d="M110 842h160l104 612h485q242 0 371.5 -105.5t129.5 -301.5q0 -57 -10 -114l-70 -412q-27 -158 -112.5 -275t-227 -181.5t-330.5 -64.5h-484l104 612h-160zM655 248q146 0 237.5 70t112.5 195l73 428q5 32 5 55q0 100 -68 155t-198 55h-220l-62 -364h266l-39 -230h-267
l-62 -364h222z" />
    <glyph glyph-name="uni018A" unicode="&#x18a;" horiz-adv-x="1548" 
d="M65 1107l15 89q21 123 107.5 190.5t222.5 67.5h584q242 0 371.5 -105.5t129.5 -301.5q0 -57 -10 -114l-70 -412q-27 -158 -112.5 -275t-227 -181.5t-330.5 -64.5h-484l206 1207h-43q-40 0 -65.5 -19t-30.5 -54l-4 -27h-259zM790 248q146 0 237.5 70t112.5 195l73 428
q5 32 5 55q0 100 -68 155t-198 55h-220l-164 -958h222z" />
    <glyph glyph-name="E" unicode="E" horiz-adv-x="1244" 
d="M1310 1454l-43 -248h-719l-62 -359h608l-43 -250h-607l-60 -349h721l-43 -248h-985l248 1454h985z" />
    <glyph glyph-name="Eacute" unicode="&#xc9;" horiz-adv-x="1244" 
d="M1310 1454l-43 -248h-719l-62 -359h608l-43 -250h-607l-60 -349h721l-43 -248h-985l248 1454h985zM1235 1773l-341 -226l-137 156l324 245z" />
    <glyph glyph-name="Ecaron" unicode="&#x11a;" horiz-adv-x="1244" 
d="M1310 1454l-43 -248h-719l-62 -359h608l-43 -250h-607l-60 -349h721l-43 -248h-985l248 1454h985zM1251 1820l-399 -265l-308 265l156 145l186 -158l239 158z" />
    <glyph glyph-name="Ecircumflex" unicode="&#xca;" horiz-adv-x="1244" 
d="M1310 1454l-43 -248h-719l-62 -359h608l-43 -250h-607l-60 -349h721l-43 -248h-985l248 1454h985zM520 1685l400 268l309 -268l-164 -133l-178 150l-228 -150z" />
    <glyph glyph-name="Edieresis" unicode="&#xcb;" horiz-adv-x="1244" 
d="M1310 1454l-43 -248h-719l-62 -359h608l-43 -250h-607l-60 -349h721l-43 -248h-985l248 1454h985zM986 1830h261l-44 -257h-262zM552 1830h262l-45 -257h-261z" />
    <glyph glyph-name="Edotaccent" unicode="&#x116;" horiz-adv-x="1244" 
d="M1310 1454l-43 -248h-719l-62 -359h608l-43 -250h-607l-60 -349h721l-43 -248h-985l248 1454h985zM995 1574h-278l45 262h278z" />
    <glyph glyph-name="uni1EB8" unicode="&#x1eb8;" horiz-adv-x="1244" 
d="M1310 1454l-43 -248h-719l-62 -359h608l-43 -250h-607l-60 -349h721l-43 -248h-985l248 1454h985zM645 -482h-279l45 262h279z" />
    <glyph glyph-name="Egrave" unicode="&#xc8;" horiz-adv-x="1244" 
d="M1310 1454l-43 -248h-719l-62 -359h608l-43 -250h-607l-60 -349h721l-43 -248h-985l248 1454h985zM994 1701l-178 -157l-283 226l191 176z" />
    <glyph glyph-name="Emacron" unicode="&#x112;" horiz-adv-x="1244" 
d="M1310 1454l-43 -248h-719l-62 -359h608l-43 -250h-607l-60 -349h721l-43 -248h-985l248 1454h985zM480 1574l44 254h750l-44 -254h-750z" />
    <glyph glyph-name="Eogonek" unicode="&#x118;" horiz-adv-x="1244" 
d="M325 1454h985l-43 -248h-719l-62 -359h608l-43 -250h-607l-60 -349h721l-43 -248h-108q-57 0 -91 -36.5t-34 -96.5q0 -74 94 -74h91l-36 -213h-98q-292 0 -292 200q0 136 78 220h-589z" />
    <glyph glyph-name="uni0190" unicode="&#x190;" horiz-adv-x="1143" 
d="M102 386l7 39q26 137 105.5 223t204.5 111q-90 31 -137.5 91t-47.5 141q0 30 6 61l7 39q32 182 160.5 280t340.5 98q118 0 205.5 -44t134.5 -129.5t47 -207.5q0 -23 -1 -35h-271q-4 81 -43.5 123.5t-107.5 42.5q-81 0 -129.5 -39t-60.5 -110l-5 -29q-4 -30 -4 -43
q0 -57 30 -87t85 -30h163l-43 -250h-163q-79 0 -129 -47.5t-64 -136.5l-6 -37q-3 -19 -3 -36q0 -68 44.5 -103.5t131.5 -35.5q79 0 135 39t80 111h272q-31 -126 -108.5 -216t-191 -137t-252.5 -47q-193 0 -297 79t-104 231q0 43 9 91z" />
    <glyph glyph-name="uni018E" unicode="&#x18e;" horiz-adv-x="1244" 
d="M1240 1454l-248 -1454h-985l43 248h719l59 349h-608l43 250h608l61 359h-720l43 248h985z" />
    <glyph glyph-name="uni01B7" unicode="&#x1b7;" horiz-adv-x="1133" 
d="M49 323q0 29 3 62h272q2 -150 167 -150q189 0 219 174l9 52q4 20 4 43q0 142 -192 142h-137l42 248l318 312h-511l43 248h852l-40 -230l-361 -345q135 -28 201.5 -109t66.5 -215q0 -56 -10 -113l-9 -54q-67 -403 -531 -403q-406 0 -406 338z" />
    <glyph glyph-name="F" unicode="F" horiz-adv-x="1165" 
d="M1291 1454l-43 -248h-700l-64 -372h589l-43 -250h-588l-100 -584h-265l248 1454h966z" />
    <glyph glyph-name="uni0191" unicode="&#x191;" horiz-adv-x="1177" 
d="M-121 -165h104q37 0 61.5 20.5t30.5 56.5l15 88h-1l248 1454h966l-43 -248h-700l-64 -372h589l-43 -250h-588l-124 -724q-23 -131 -106 -203t-211 -72h-177z" />
    <glyph glyph-name="G" unicode="G" horiz-adv-x="1344" 
d="M131 497l73 429q28 162 115.5 285t220 190.5t291.5 67.5q131 0 232.5 -54t160 -152t62.5 -226h-285q-11 76 -72 121.5t-144 45.5q-78 0 -143 -34.5t-108 -97.5t-57 -146l-72 -429q-4 -21 -4 -47q0 -92 61 -146t168 -54q79 0 144 33t108 95t56 147l5 33h-241l43 249h514
l-47 -278q-27 -161 -114.5 -284.5t-220 -191.5t-293.5 -68q-143 0 -247.5 50.5t-159.5 143.5t-55 216q0 50 9 102z" />
    <glyph glyph-name="Gbreve" unicode="&#x11e;" horiz-adv-x="1344" 
d="M131 497l73 429q28 162 115.5 285t220 190.5t291.5 67.5q131 0 232.5 -54t160 -152t62.5 -226h-285q-11 76 -72 121.5t-144 45.5q-78 0 -143 -34.5t-108 -97.5t-57 -146l-72 -429q-4 -21 -4 -47q0 -92 61 -146t168 -54q79 0 144 33t108 95t56 147l5 33h-241l43 249h514
l-47 -278q-27 -161 -114.5 -284.5t-220 -191.5t-293.5 -68q-143 0 -247.5 50.5t-159.5 143.5t-55 216q0 50 9 102zM561 1886l213 -2q-3 -19 -3 -36q0 -51 28.5 -78.5t80.5 -27.5h8q61 0 101.5 37t51.5 105l214 2q-27 -157 -131.5 -242.5t-267.5 -85.5h-8q-141 0 -217.5 65
t-76.5 187q0 38 7 76z" />
    <glyph glyph-name="uni0122" unicode="&#x122;" horiz-adv-x="1344" 
d="M131 497l73 429q28 162 115.5 285t220 190.5t291.5 67.5q131 0 232.5 -54t160 -152t62.5 -226h-285q-11 76 -72 121.5t-144 45.5q-78 0 -143 -34.5t-108 -97.5t-57 -146l-72 -429q-4 -21 -4 -47q0 -92 61 -146t168 -54q79 0 144 33t108 95t56 147l5 33h-241l43 249h514
l-47 -278q-27 -161 -114.5 -284.5t-220 -191.5t-293.5 -68q-143 0 -247.5 50.5t-159.5 143.5t-55 216q0 50 9 102zM659 -407l-317 -203l79 462h282z" />
    <glyph glyph-name="Gdotaccent" unicode="&#x120;" horiz-adv-x="1344" 
d="M131 497l73 429q28 162 115.5 285t220 190.5t291.5 67.5q131 0 232.5 -54t160 -152t62.5 -226h-285q-11 76 -72 121.5t-144 45.5q-78 0 -143 -34.5t-108 -97.5t-57 -146l-72 -429q-4 -21 -4 -47q0 -92 61 -146t168 -54q79 0 144 33t108 95t56 147l5 33h-241l43 249h514
l-47 -278q-27 -161 -114.5 -284.5t-220 -191.5t-293.5 -68q-143 0 -247.5 50.5t-159.5 143.5t-55 216q0 50 9 102zM994 1574h-278l45 262h278z" />
    <glyph glyph-name="H" unicode="H" horiz-adv-x="1410" 
d="M77 0l248 1454h265l-104 -610h550l104 610h266l-248 -1454h-265l101 596h-550l-102 -596h-265z" />
    <glyph glyph-name="Hbar" unicode="&#x126;" horiz-adv-x="1570" 
d="M156 0l169 991h-150l43 249h149l37 214h265l-37 -214h551l36 214h266l-37 -214h151l-43 -249h-150l-169 -991h-265l101 596h-550l-102 -596h-265zM565 844h550l25 147h-550z" />
    <glyph glyph-name="I" unicode="I" horiz-adv-x="569" 
d="M306 1454h275l-248 -1454h-275z" />
    <glyph glyph-name="Iacute" unicode="&#xcd;" horiz-adv-x="569" 
d="M306 1454h275l-248 -1454h-275zM844 1773l-341 -226l-137 156l324 245z" />
    <glyph glyph-name="Icircumflex" unicode="&#xce;" horiz-adv-x="569" 
d="M306 1454h275l-248 -1454h-275zM129 1685l400 268l309 -268l-164 -133l-178 150l-228 -150z" />
    <glyph glyph-name="Idieresis" unicode="&#xcf;" horiz-adv-x="569" 
d="M306 1454h275l-248 -1454h-275zM595 1830h261l-44 -257h-262zM161 1830h262l-45 -257h-261z" />
    <glyph glyph-name="Idotaccent" unicode="&#x130;" horiz-adv-x="569" 
d="M306 1454h275l-248 -1454h-275zM604 1574h-278l45 262h278z" />
    <glyph glyph-name="uni1ECA" unicode="&#x1eca;" horiz-adv-x="569" 
d="M306 1454h275l-248 -1454h-275zM249 -482h-279l45 262h279z" />
    <glyph glyph-name="Igrave" unicode="&#xcc;" horiz-adv-x="569" 
d="M306 1454h275l-248 -1454h-275zM603 1701l-178 -157l-283 226l191 176z" />
    <glyph glyph-name="Imacron" unicode="&#x12a;" horiz-adv-x="569" 
d="M306 1454h275l-248 -1454h-275zM89 1574l44 254h750l-44 -254h-750z" />
    <glyph glyph-name="Iogonek" unicode="&#x12e;" horiz-adv-x="584" 
d="M-41 -61q36 68 103 110l240 1405h275l-248 -1454h-37q-57 0 -91.5 -36t-34.5 -97q0 -74 102 -74h83l-36 -213h-96q-295 0 -295 200q0 91 35 159z" />
    <glyph glyph-name="J" unicode="J" horiz-adv-x="1055" 
d="M200 332q27 -46 74 -71.5t107 -25.5q91 0 151 59.5t77 167.5l168 992h273l-169 -993q-26 -151 -100.5 -258t-190 -162.5t-264.5 -55.5q-131 0 -228 51t-141 144z" />
    <glyph glyph-name="K" unicode="K" horiz-adv-x="1334" 
d="M77 0l248 1454h265l-122 -716l634 716h326l-552 -593l366 -861h-290l-273 649l-277 -299l-60 -350h-265z" />
    <glyph glyph-name="uni0136" unicode="&#x136;" horiz-adv-x="1334" 
d="M77 0l248 1454h265l-122 -716l634 716h326l-552 -593l366 -861h-290l-273 649l-277 -299l-60 -350h-265zM675 -407l-317 -203l79 462h282z" />
    <glyph glyph-name="uni0198" unicode="&#x198;" horiz-adv-x="1334" 
d="M325 1454h265l-122 -716l488 553q72 82 149.5 126t164.5 44h160l-43 -248h-119q-34 0 -63.5 -17.5t-65.5 -56.5l-262 -280l365 -859h-290l-272 647l-279 -298l-59 -349h-265z" />
    <glyph glyph-name="L" unicode="L" horiz-adv-x="1194" 
d="M590 1454l-206 -1206h721l-43 -248h-985l248 1454h265z" />
    <glyph glyph-name="Lacute" unicode="&#x139;" horiz-adv-x="1194" 
d="M590 1454l-206 -1206h721l-43 -248h-985l248 1454h265zM855 1773l-341 -226l-137 156l324 245z" />
    <glyph glyph-name="Lcaron" unicode="&#x13d;" horiz-adv-x="1194" 
d="M590 1454l-206 -1206h721l-43 -248h-985l248 1454h265zM1226 1138l-258 -163l82 479h230z" />
    <glyph glyph-name="uni013B" unicode="&#x13b;" horiz-adv-x="1194" 
d="M590 1454l-206 -1206h721l-43 -248h-985l248 1454h265zM597 -407l-317 -203l79 462h282z" />
    <glyph glyph-name="Lslash" unicode="&#x141;" horiz-adv-x="1284" 
d="M543 656l-70 -408h721l-43 -248h-985l94 549l-160 -61l43 256l160 61l111 649h265l-92 -542l373 142l-43 -256z" />
    <glyph glyph-name="M" unicode="M" horiz-adv-x="1616" 
d="M325 1454h316l157 -973l487 973h327l-248 -1454h-245l172 1008l-432 -836h-219l-150 818l-169 -990h-244z" />
    <glyph glyph-name="N" unicode="N" horiz-adv-x="1454" 
d="M324 1454h300l389 -1067l182 1067h254l-247 -1453h-302l-391 1048l-177 -1048h-255z" />
    <glyph glyph-name="Nacute" unicode="&#x143;" horiz-adv-x="1454" 
d="M324 1454h300l389 -1067l182 1067h254l-247 -1453h-302l-391 1048l-177 -1048h-255zM1302 1773l-341 -226l-137 156l324 245z" />
    <glyph glyph-name="Ncaron" unicode="&#x147;" horiz-adv-x="1454" 
d="M324 1454h300l389 -1067l182 1067h254l-247 -1453h-302l-391 1048l-177 -1048h-255zM1318 1820l-399 -265l-308 265l156 145l186 -158l239 158z" />
    <glyph glyph-name="uni0145" unicode="&#x145;" horiz-adv-x="1454" 
d="M324 1454h300l389 -1067l182 1067h254l-247 -1453h-302l-391 1048l-177 -1048h-255zM726 -407l-317 -203l79 462h282z" />
    <glyph glyph-name="Eng" unicode="&#x14a;" horiz-adv-x="1454" 
d="M324 1454h300l396 -1030l175 1030h254l-271 -1594q-22 -130 -103 -202.5t-207 -72.5h-152l43 250h75q35 0 58.5 20t29.5 57l17 100l-430 1032l-177 -1043h-255z" />
    <glyph glyph-name="Ntilde" unicode="&#xd1;" horiz-adv-x="1454" 
d="M324 1454h300l389 -1067l182 1067h254l-247 -1453h-302l-391 1048l-177 -1048h-255zM527 1585q25 152 91 228.5t170 76.5q48 0 87.5 -13t92.5 -38q8 -4 14 -7.5t11 -5.5q37 -19 54.5 -26t35.5 -7q74 0 87 81l3 19h201l-4 -23q-54 -312 -261 -312q-46 0 -85.5 12t-78.5 33
q-5 3 -12 6.5t-14 7.5q-37 20 -59 29t-47 9q-71 0 -86 -74l-4 -20h-200z" />
    <glyph glyph-name="O" unicode="O" horiz-adv-x="1342" 
d="M125 409q0 56 10 112l70 412q27 159 114 280.5t220 188.5t294 67q140 0 242.5 -52t157.5 -147.5t55 -224.5q0 -56 -10 -112l-70 -412q-27 -160 -114.5 -281.5t-220.5 -188t-293 -66.5q-140 0 -242.5 52t-157.5 147.5t-55 224.5zM462 301q60 -58 163 -58q78 0 143 33.5
t108.5 95t57.5 142.5l72 426q5 33 5 56q0 100 -60 157.5t-163 57.5q-78 0 -143 -33.5t-108 -95t-57 -142.5l-73 -426q-5 -33 -5 -56q0 -99 60 -157z" />
    <glyph glyph-name="Oacute" unicode="&#xd3;" horiz-adv-x="1342" 
d="M125 409q0 56 10 112l70 412q27 159 114 280.5t220 188.5t294 67q140 0 242.5 -52t157.5 -147.5t55 -224.5q0 -56 -10 -112l-70 -412q-27 -160 -114.5 -281.5t-220.5 -188t-293 -66.5q-140 0 -242.5 52t-157.5 147.5t-55 224.5zM462 301q60 -58 163 -58q78 0 143 33.5
t108.5 95t57.5 142.5l72 426q5 33 5 56q0 100 -60 157.5t-163 57.5q-78 0 -143 -33.5t-108 -95t-57 -142.5l-73 -426q-5 -33 -5 -56q0 -99 60 -157zM1230 1773l-341 -226l-137 156l324 245z" />
    <glyph glyph-name="Ocircumflex" unicode="&#xd4;" horiz-adv-x="1342" 
d="M125 409q0 56 10 112l70 412q27 159 114 280.5t220 188.5t294 67q140 0 242.5 -52t157.5 -147.5t55 -224.5q0 -56 -10 -112l-70 -412q-27 -160 -114.5 -281.5t-220.5 -188t-293 -66.5q-140 0 -242.5 52t-157.5 147.5t-55 224.5zM462 301q60 -58 163 -58q78 0 143 33.5
t108.5 95t57.5 142.5l72 426q5 33 5 56q0 100 -60 157.5t-163 57.5q-78 0 -143 -33.5t-108 -95t-57 -142.5l-73 -426q-5 -33 -5 -56q0 -99 60 -157zM515 1685l400 268l309 -268l-164 -133l-178 150l-228 -150z" />
    <glyph glyph-name="Odieresis" unicode="&#xd6;" horiz-adv-x="1342" 
d="M125 409q0 56 10 112l70 412q27 159 114 280.5t220 188.5t294 67q140 0 242.5 -52t157.5 -147.5t55 -224.5q0 -56 -10 -112l-70 -412q-27 -160 -114.5 -281.5t-220.5 -188t-293 -66.5q-140 0 -242.5 52t-157.5 147.5t-55 224.5zM462 301q60 -58 163 -58q78 0 143 33.5
t108.5 95t57.5 142.5l72 426q5 33 5 56q0 100 -60 157.5t-163 57.5q-78 0 -143 -33.5t-108 -95t-57 -142.5l-73 -426q-5 -33 -5 -56q0 -99 60 -157zM981 1830h261l-44 -257h-262zM547 1830h262l-45 -257h-261z" />
    <glyph glyph-name="uni1ECC" unicode="&#x1ecc;" horiz-adv-x="1342" 
d="M125 409q0 56 10 112l70 412q27 159 114 280.5t220 188.5t294 67q140 0 242.5 -52t157.5 -147.5t55 -224.5q0 -56 -10 -112l-70 -412q-27 -160 -114.5 -281.5t-220.5 -188t-293 -66.5q-140 0 -242.5 52t-157.5 147.5t-55 224.5zM462 301q60 -58 163 -58q78 0 143 33.5
t108.5 95t57.5 142.5l72 426q5 33 5 56q0 100 -60 157.5t-163 57.5q-78 0 -143 -33.5t-108 -95t-57 -142.5l-73 -426q-5 -33 -5 -56q0 -99 60 -157zM641 -482h-279l45 262h279z" />
    <glyph glyph-name="Ograve" unicode="&#xd2;" horiz-adv-x="1342" 
d="M125 409q0 56 10 112l70 412q27 159 114 280.5t220 188.5t294 67q140 0 242.5 -52t157.5 -147.5t55 -224.5q0 -56 -10 -112l-70 -412q-27 -160 -114.5 -281.5t-220.5 -188t-293 -66.5q-140 0 -242.5 52t-157.5 147.5t-55 224.5zM462 301q60 -58 163 -58q78 0 143 33.5
t108.5 95t57.5 142.5l72 426q5 33 5 56q0 100 -60 157.5t-163 57.5q-78 0 -143 -33.5t-108 -95t-57 -142.5l-73 -426q-5 -33 -5 -56q0 -99 60 -157zM989 1701l-178 -157l-283 226l191 176z" />
    <glyph glyph-name="Ohorn" unicode="&#x1a0;" horiz-adv-x="1382" 
d="M94 521l70 412q27 159 114 280.5t220 188.5t294 67q81 0 155 -19h175q162 0 186 151l4 25h239l-8 -45q-51 -289 -356 -289h-9q69 -103 69 -247q0 -56 -10 -112l-70 -412q-27 -160 -114.5 -281.5t-220.5 -188t-293 -66.5q-140 0 -242.5 52t-157.5 147.5t-55 224.5
q0 56 10 112zM421 301q60 -58 163 -58q78 0 143 33.5t108.5 95t57.5 142.5l72 426q5 33 5 56q0 100 -60 157.5t-163 57.5q-78 0 -143 -33.5t-108 -95t-57 -142.5l-73 -426q-5 -33 -5 -56q0 -99 60 -157z" />
    <glyph glyph-name="Ohungarumlaut" unicode="&#x150;" horiz-adv-x="1342" 
d="M125 409q0 56 10 112l70 412q27 159 114 280.5t220 188.5t294 67q140 0 242.5 -52t157.5 -147.5t55 -224.5q0 -56 -10 -112l-70 -412q-27 -160 -114.5 -281.5t-220.5 -188t-293 -66.5q-140 0 -242.5 52t-157.5 147.5t-55 224.5zM462 301q60 -58 163 -58q78 0 143 33.5
t108.5 95t57.5 142.5l72 426q5 33 5 56q0 100 -60 157.5t-163 57.5q-78 0 -143 -33.5t-108 -95t-57 -142.5l-73 -426q-5 -33 -5 -56q0 -99 60 -157zM916 1780l-283 -236l-139 149l266 255zM1358 1780l-282 -236l-141 149l267 255z" />
    <glyph glyph-name="Omacron" unicode="&#x14c;" horiz-adv-x="1342" 
d="M125 409q0 56 10 112l70 412q27 159 114 280.5t220 188.5t294 67q140 0 242.5 -52t157.5 -147.5t55 -224.5q0 -56 -10 -112l-70 -412q-27 -160 -114.5 -281.5t-220.5 -188t-293 -66.5q-140 0 -242.5 52t-157.5 147.5t-55 224.5zM462 301q60 -58 163 -58q78 0 143 33.5
t108.5 95t57.5 142.5l72 426q5 33 5 56q0 100 -60 157.5t-163 57.5q-78 0 -143 -33.5t-108 -95t-57 -142.5l-73 -426q-5 -33 -5 -56q0 -99 60 -157zM475 1574l44 254h750l-44 -254h-750z" />
    <glyph glyph-name="uni0186" unicode="&#x186;" horiz-adv-x="1287" 
d="M88 426q0 29 1 44h276q-2 -12 -2 -34q0 -60 29 -104t77.5 -67t105.5 -23q121 0 202 75t104 210l68 399q6 38 6 70q0 102 -56 159t-160 57q-61 0 -115.5 -27.5t-93 -79.5t-53.5 -121h-250q15 147 94.5 257.5t201.5 169t260 58.5q143 0 244 -49t153.5 -142t52.5 -224
q0 -66 -11 -128l-68 -399q-29 -169 -113.5 -291t-214.5 -186.5t-295 -64.5q-131 0 -231 53t-156 152.5t-56 235.5z" />
    <glyph glyph-name="Oslash" unicode="&#xd8;" horiz-adv-x="1342" 
d="M234 107q-56 55 -85 132t-29 170q0 56 10 112l70 412q27 159 114 280.5t220 188.5t294 67q131 0 234 -47l110 175h176l-166 -264q49 -55 75 -127.5t26 -160.5q0 -56 -10 -112l-70 -412q-27 -160 -114.5 -281.5t-220.5 -188t-293 -66.5q-121 0 -216 40l-98 -156h-177z
M408 383l502 797q-54 31 -127 31q-78 0 -143 -33.5t-108 -95t-57 -142.5l-73 -426q-5 -33 -5 -56q0 -39 11 -75zM510 265q49 -22 110 -22q78 0 143 33.5t108.5 95t57.5 142.5l72 426q5 33 5 56t-5 50z" />
    <glyph glyph-name="Otilde" unicode="&#xd5;" horiz-adv-x="1342" 
d="M125 409q0 56 10 112l70 412q27 159 114 280.5t220 188.5t294 67q140 0 242.5 -52t157.5 -147.5t55 -224.5q0 -56 -10 -112l-70 -412q-27 -160 -114.5 -281.5t-220.5 -188t-293 -66.5q-140 0 -242.5 52t-157.5 147.5t-55 224.5zM462 301q60 -58 163 -58q78 0 143 33.5
t108.5 95t57.5 142.5l72 426q5 33 5 56q0 100 -60 157.5t-163 57.5q-78 0 -143 -33.5t-108 -95t-57 -142.5l-73 -426q-5 -33 -5 -56q0 -99 60 -157zM455 1585q25 152 91 228.5t170 76.5q48 0 87.5 -13t92.5 -38q8 -4 14 -7.5t11 -5.5q37 -19 54.5 -26t35.5 -7q74 0 87 81
l3 19h201l-4 -23q-54 -312 -261 -312q-46 0 -85.5 12t-78.5 33q-5 3 -12 6.5t-14 7.5q-37 20 -59 29t-47 9q-71 0 -86 -74l-4 -20h-200z" />
    <glyph glyph-name="OE" unicode="&#x152;" horiz-adv-x="2073" 
d="M126 415q0 51 9 106l70 412q27 160 118.5 281.5t232 188t309.5 66.5q182 0 290 -97l14 82h985l-43 -248h-719l-62 -359h608l-43 -250h-607l-60 -349h721l-43 -248h-985l14 81q-141 -96 -323 -96q-149 0 -259 52.5t-168.5 149.5t-58.5 228zM433 342q32 -52 91 -79.5
t138 -27.5q123 0 214 62.5t124 168.5l89 516v13q0 63 -28.5 114t-88 80.5t-143.5 29.5q-90 0 -164.5 -34.5t-123 -98t-62.5 -146.5l-73 -426q-5 -30 -5 -53q0 -68 32 -119z" />
    <glyph glyph-name="P" unicode="P" horiz-adv-x="1295" 
d="M325 1454h589q118 0 208 -46.5t139.5 -132t49.5 -197.5q0 -153 -68 -269.5t-192.5 -180.5t-287.5 -64h-325l-96 -564h-265zM812 812q64 0 113 28t75.5 79.5t26.5 118.5q0 76 -41 122t-108 46h-330l-68 -394h332z" />
    <glyph glyph-name="Thorn" unicode="&#xde;" horiz-adv-x="1295" 
d="M77 0l248 1454h265l-44 -260h327q118 0 208 -46.5t139.5 -132t49.5 -197.5q0 -153 -68 -269.5t-192.5 -180.5t-287.5 -64h-328l-52 -304h-265zM771 552q64 0 113 28t75.5 79.5t26.5 118.5q0 76 -41 122t-108 46h-334l-67 -394h335z" />
    <glyph glyph-name="Q" unicode="Q" horiz-adv-x="1366" 
d="M100 409q0 56 10 112l70 412q27 159 114 280.5t220 188.5t294 67q140 0 242.5 -52t157.5 -147.5t55 -224.5q0 -56 -10 -112l-70 -412q-21 -122 -77 -222l175 -148l-169 -175l-164 139q-81 -63 -181 -96.5t-212 -33.5q-140 0 -242.5 52t-157.5 147.5t-55 224.5zM437 301
q60 -58 163 -58q82 0 152 38l-143 122l168 174l123 -104q6 19 9 41l72 426q5 33 5 56q0 100 -60 157.5t-163 57.5q-78 0 -143 -33.5t-108 -95t-57 -142.5l-73 -426q-5 -33 -5 -56q0 -99 60 -157z" />
    <glyph glyph-name="R" unicode="R" horiz-adv-x="1355" 
d="M325 1455h632q106 0 186 -46t123.5 -132t43.5 -203q0 -119 -45 -216.5t-128 -162.5t-196 -89l247 -606h-303l-229 592h-213l-101 -592h-265zM485 840h354q55 0 97.5 26.5t65.5 75t23 112.5q0 69 -34 111t-90 42h-353z" />
    <glyph glyph-name="Racute" unicode="&#x154;" horiz-adv-x="1355" 
d="M325 1455h632q106 0 186 -46t123.5 -132t43.5 -203q0 -119 -45 -216.5t-128 -162.5t-196 -89l247 -606h-303l-229 592h-213l-101 -592h-265zM485 840h354q55 0 97.5 26.5t65.5 75t23 112.5q0 69 -34 111t-90 42h-353zM1217 1773l-341 -226l-137 156l324 245z" />
    <glyph glyph-name="Rcaron" unicode="&#x158;" horiz-adv-x="1355" 
d="M325 1455h632q106 0 186 -46t123.5 -132t43.5 -203q0 -119 -45 -216.5t-128 -162.5t-196 -89l247 -606h-303l-229 592h-213l-101 -592h-265zM485 840h354q55 0 97.5 26.5t65.5 75t23 112.5q0 69 -34 111t-90 42h-353zM1233 1820l-399 -265l-308 265l156 145l186 -158
l239 158z" />
    <glyph glyph-name="uni0156" unicode="&#x156;" horiz-adv-x="1355" 
d="M325 1455h632q106 0 186 -46t123.5 -132t43.5 -203q0 -119 -45 -216.5t-128 -162.5t-196 -89l247 -606h-303l-229 592h-213l-101 -592h-265zM485 840h354q55 0 97.5 26.5t65.5 75t23 112.5q0 69 -34 111t-90 42h-353zM641 -407l-317 -203l79 462h282z" />
    <glyph glyph-name="S" unicode="S" horiz-adv-x="1281" 
d="M180 375q74 -69 178 -106.5t221 -37.5q95 0 168 24t114 70.5t41 110.5v1q0 56 -26.5 88t-78 48.5t-141.5 29.5q-146 21 -235 52t-148.5 111t-59.5 231v1q0 150 85.5 256t230 160.5t320.5 54.5q118 0 234 -39.5t210 -112.5l-155 -216q-76 59 -162 90.5t-170 31.5
q-88 0 -157 -23t-108 -67t-39 -104v-1q0 -62 32.5 -96t84 -50t147.5 -33q143 -25 231 -61.5t139 -113.5t51 -211v-2q0 -147 -87 -255t-235.5 -164.5t-327.5 -56.5q-160 0 -295 46.5t-227 133.5z" />
    <glyph glyph-name="Sacute" unicode="&#x15a;" horiz-adv-x="1281" 
d="M180 375q74 -69 178 -106.5t221 -37.5q95 0 168 24t114 70.5t41 110.5v1q0 56 -26.5 88t-78 48.5t-141.5 29.5q-146 21 -235 52t-148.5 111t-59.5 231v1q0 150 85.5 256t230 160.5t320.5 54.5q118 0 234 -39.5t210 -112.5l-155 -216q-76 59 -162 90.5t-170 31.5
q-88 0 -157 -23t-108 -67t-39 -104v-1q0 -62 32.5 -96t84 -50t147.5 -33q143 -25 231 -61.5t139 -113.5t51 -211v-2q0 -147 -87 -255t-235.5 -164.5t-327.5 -56.5q-160 0 -295 46.5t-227 133.5zM1211 1773l-341 -226l-137 156l324 245z" />
    <glyph glyph-name="Scaron" unicode="&#x160;" horiz-adv-x="1281" 
d="M180 375q74 -69 178 -106.5t221 -37.5q95 0 168 24t114 70.5t41 110.5v1q0 56 -26.5 88t-78 48.5t-141.5 29.5q-146 21 -235 52t-148.5 111t-59.5 231v1q0 150 85.5 256t230 160.5t320.5 54.5q118 0 234 -39.5t210 -112.5l-155 -216q-76 59 -162 90.5t-170 31.5
q-88 0 -157 -23t-108 -67t-39 -104v-1q0 -62 32.5 -96t84 -50t147.5 -33q143 -25 231 -61.5t139 -113.5t51 -211v-2q0 -147 -87 -255t-235.5 -164.5t-327.5 -56.5q-160 0 -295 46.5t-227 133.5zM1227 1820l-399 -265l-308 265l156 145l186 -158l239 158z" />
    <glyph glyph-name="Scedilla" unicode="&#x15e;" horiz-adv-x="1281" 
d="M15 165l165 210q74 -69 178 -106.5t221 -37.5q95 0 168 24t114 70.5t41 110.5v1q0 56 -26.5 88t-78 48.5t-141.5 29.5q-146 21 -235 52t-148.5 111t-59.5 231v1q0 150 85.5 256t230 160.5t320.5 54.5q118 0 234 -39.5t210 -112.5l-155 -216q-76 59 -162 90.5t-170 31.5
q-88 0 -157 -23t-108 -67t-39 -104v-1q0 -62 32.5 -96t84 -50t147.5 -33q143 -25 231 -61.5t139 -113.5t51 -211v-2q0 -128 -67 -227t-184.5 -160.5t-266.5 -80.5l-10 -62q74 -13 113 -49t39 -92q0 -100 -88 -156t-245 -56q-101 0 -171 18l69 152q58 -14 108 -14
q48 0 75.5 11.5t27.5 31.5q0 18 -31.5 29t-91.5 12h-25l29 169q-139 10 -255 55.5t-198 122.5z" />
    <glyph glyph-name="uni0218" unicode="&#x218;" horiz-adv-x="1281" 
d="M180 375q74 -69 178 -106.5t221 -37.5q95 0 168 24t114 70.5t41 110.5v1q0 56 -26.5 88t-78 48.5t-141.5 29.5q-146 21 -235 52t-148.5 111t-59.5 231v1q0 150 85.5 256t230 160.5t320.5 54.5q118 0 234 -39.5t210 -112.5l-155 -216q-76 59 -162 90.5t-170 31.5
q-88 0 -157 -23t-108 -67t-39 -104v-1q0 -62 32.5 -96t84 -50t147.5 -33q143 -25 231 -61.5t139 -113.5t51 -211v-2q0 -147 -87 -255t-235.5 -164.5t-327.5 -56.5q-160 0 -295 46.5t-227 133.5zM635 -407l-317 -203l79 462h282z" />
    <glyph glyph-name="uni1E62" unicode="&#x1e62;" horiz-adv-x="1281" 
d="M180 375q74 -69 178 -106.5t221 -37.5q95 0 168 24t114 70.5t41 110.5v1q0 56 -26.5 88t-78 48.5t-141.5 29.5q-146 21 -235 52t-148.5 111t-59.5 231v1q0 150 85.5 256t230 160.5t320.5 54.5q118 0 234 -39.5t210 -112.5l-155 -216q-76 59 -162 90.5t-170 31.5
q-88 0 -157 -23t-108 -67t-39 -104v-1q0 -62 32.5 -96t84 -50t147.5 -33q143 -25 231 -61.5t139 -113.5t51 -211v-2q0 -147 -87 -255t-235.5 -164.5t-327.5 -56.5q-160 0 -295 46.5t-227 133.5zM621 -482h-279l45 262h279z" />
    <glyph glyph-name="uni018F" unicode="&#x18f;" horiz-adv-x="1301" 
d="M147 481l63 366h742l23 133q4 24 4 50q0 89 -57 136.5t-164 47.5q-105 0 -201.5 -40t-165.5 -114l-123 184q115 108 255 166.5t279 58.5q218 0 335 -99.5t117 -283.5q0 -56 -10 -113l-84 -492q-27 -157 -105.5 -268t-202 -169.5t-283.5 -58.5q-209 0 -321 98.5
t-112 280.5q0 53 11 117zM464 289q51 -49 149 -49q113 0 186 64t92 180l21 122h-474l-20 -122q-5 -33 -5 -57q0 -89 51 -138z" />
    <glyph glyph-name="T" unicode="T" horiz-adv-x="1006" 
d="M124 1454h1077l-43 -248h-405l-205 -1206h-266l205 1206h-406z" />
    <glyph glyph-name="Tcaron" unicode="&#x164;" horiz-adv-x="1006" 
d="M124 1454h1077l-43 -248h-405l-205 -1206h-266l205 1206h-406zM1078 1820l-399 -265l-308 265l156 145l186 -158l239 158z" />
    <glyph glyph-name="uni0162" unicode="&#x162;" horiz-adv-x="1006" 
d="M81 1206l43 248h1077l-43 -248h-405l-205 -1206h-25l-12 -69q74 -13 113 -49t39 -92q0 -100 -88 -156t-245 -56q-101 0 -171 18l69 152q58 -14 108 -14q48 0 75.5 11.5t27.5 31.5q0 18 -31.5 29t-91.5 12h-25l31 182h-40l205 1206h-406z" />
    <glyph glyph-name="uni021A" unicode="&#x21a;" horiz-adv-x="1006" 
d="M124 1454h1077l-43 -248h-405l-205 -1206h-266l205 1206h-406zM487 -407l-317 -203l79 462h282z" />
    <glyph glyph-name="U" unicode="U" horiz-adv-x="1362" 
d="M136 411q0 58 10 115l158 928h265l-159 -935q-5 -35 -5 -59q0 -102 61 -161t167 -59q130 0 213.5 73.5t106.5 205.5l159 935h265l-158 -928q-29 -171 -113.5 -292.5t-216 -185t-300.5 -63.5q-140 0 -242 52t-156.5 148t-54.5 226z" />
    <glyph glyph-name="Uacute" unicode="&#xda;" horiz-adv-x="1362" 
d="M136 411q0 58 10 115l158 928h265l-159 -935q-5 -35 -5 -59q0 -102 61 -161t167 -59q130 0 213.5 73.5t106.5 205.5l159 935h265l-158 -928q-29 -171 -113.5 -292.5t-216 -185t-300.5 -63.5q-140 0 -242 52t-156.5 148t-54.5 226zM1239 1773l-341 -226l-137 156l324 245z
" />
    <glyph glyph-name="Ubreve" unicode="&#x16c;" horiz-adv-x="1362" 
d="M136 411q0 58 10 115l158 928h265l-159 -935q-5 -35 -5 -59q0 -102 61 -161t167 -59q130 0 213.5 73.5t106.5 205.5l159 935h265l-158 -928q-29 -171 -113.5 -292.5t-216 -185t-300.5 -63.5q-140 0 -242 52t-156.5 148t-54.5 226zM566 1886l213 -2q-3 -19 -3 -36
q0 -51 28.5 -78.5t80.5 -27.5h8q61 0 101.5 37t51.5 105l214 2q-27 -157 -131.5 -242.5t-267.5 -85.5h-8q-141 0 -217.5 65t-76.5 187q0 38 7 76z" />
    <glyph glyph-name="Ucircumflex" unicode="&#xdb;" horiz-adv-x="1362" 
d="M136 411q0 58 10 115l158 928h265l-159 -935q-5 -35 -5 -59q0 -102 61 -161t167 -59q130 0 213.5 73.5t106.5 205.5l159 935h265l-158 -928q-29 -171 -113.5 -292.5t-216 -185t-300.5 -63.5q-140 0 -242 52t-156.5 148t-54.5 226zM524 1685l400 268l309 -268l-164 -133
l-178 150l-228 -150z" />
    <glyph glyph-name="Udieresis" unicode="&#xdc;" horiz-adv-x="1362" 
d="M136 411q0 58 10 115l158 928h265l-159 -935q-5 -35 -5 -59q0 -102 61 -161t167 -59q130 0 213.5 73.5t106.5 205.5l159 935h265l-158 -928q-29 -171 -113.5 -292.5t-216 -185t-300.5 -63.5q-140 0 -242 52t-156.5 148t-54.5 226zM990 1830h261l-44 -257h-262zM556 1830
h262l-45 -257h-261z" />
    <glyph glyph-name="uni1EE4" unicode="&#x1ee4;" horiz-adv-x="1362" 
d="M136 411q0 58 10 115l158 928h265l-159 -935q-5 -35 -5 -59q0 -102 61 -161t167 -59q130 0 213.5 73.5t106.5 205.5l159 935h265l-158 -928q-29 -171 -113.5 -292.5t-216 -185t-300.5 -63.5q-140 0 -242 52t-156.5 148t-54.5 226zM650 -482h-279l45 262h279z" />
    <glyph glyph-name="Ugrave" unicode="&#xd9;" horiz-adv-x="1362" 
d="M136 411q0 58 10 115l158 928h265l-159 -935q-5 -35 -5 -59q0 -102 61 -161t167 -59q130 0 213.5 73.5t106.5 205.5l159 935h265l-158 -928q-29 -171 -113.5 -292.5t-216 -185t-300.5 -63.5q-140 0 -242 52t-156.5 148t-54.5 226zM998 1701l-178 -157l-283 226l191 176z
" />
    <glyph glyph-name="Uhorn" unicode="&#x1af;" horiz-adv-x="1484" 
d="M146 526l158 928h265l-159 -935q-5 -35 -5 -59q0 -102 61 -161t167 -59q130 0 213.5 73.5t106.5 205.5l159 935h155q76 0 125.5 37.5t61.5 108.5l11 66h240l-15 -86q-21 -121 -108.5 -189.5t-227.5 -73.5l-135 -791q-29 -171 -113.5 -292.5t-216 -185t-300.5 -63.5
q-140 0 -242 52t-156.5 148t-54.5 226q0 58 10 115z" />
    <glyph glyph-name="Uhungarumlaut" unicode="&#x170;" horiz-adv-x="1362" 
d="M136 411q0 58 10 115l158 928h265l-159 -935q-5 -35 -5 -59q0 -102 61 -161t167 -59q130 0 213.5 73.5t106.5 205.5l159 935h265l-158 -928q-29 -171 -113.5 -292.5t-216 -185t-300.5 -63.5q-140 0 -242 52t-156.5 148t-54.5 226zM925 1780l-283 -236l-139 149l266 255z
M1367 1780l-282 -236l-141 149l267 255z" />
    <glyph glyph-name="Umacron" unicode="&#x16a;" horiz-adv-x="1362" 
d="M136 411q0 58 10 115l158 928h265l-159 -935q-5 -35 -5 -59q0 -102 61 -161t167 -59q130 0 213.5 73.5t106.5 205.5l159 935h265l-158 -928q-29 -171 -113.5 -292.5t-216 -185t-300.5 -63.5q-140 0 -242 52t-156.5 148t-54.5 226zM484 1574l44 254h750l-44 -254h-750z
" />
    <glyph glyph-name="Uogonek" unicode="&#x172;" horiz-adv-x="1362" 
d="M136 410q0 59 10 116l158 928h265l-159 -935q-5 -35 -5 -59q0 -102 61 -161t167 -59q130 0 213.5 73.5t106.5 205.5l159 935h265l-158 -928q-37 -214 -158.5 -349t-310.5 -176v-1h-7l-25 -5q-36 -11 -57 -45.5t-21 -83.5q0 -73 98 -73h85l-36 -213h-98q-290 0 -290 200
q0 132 72 216q-159 29 -247 138t-88 276z" />
    <glyph glyph-name="Uring" unicode="&#x16e;" horiz-adv-x="1362" 
d="M136 411q0 58 10 115l158 928h265l-159 -935q-5 -35 -5 -59q0 -102 61 -161t167 -59q130 0 213.5 73.5t106.5 205.5l159 935h265l-158 -928q-29 -171 -113.5 -292.5t-216 -185t-300.5 -63.5q-140 0 -242 52t-156.5 148t-54.5 226zM656 1906q41 73 115.5 113t171.5 40
q115 0 176.5 -53t61.5 -150q0 -94 -40.5 -165.5t-114.5 -110t-172 -38.5q-116 0 -177.5 50.5t-61.5 145.5t41 168zM826 1731q20 -18 58 -18q48 0 77 29.5t29 78.5q0 33 -19.5 51t-56.5 18q-48 0 -77.5 -30.5t-29.5 -79.5q0 -32 19 -49z" />
    <glyph glyph-name="V" unicode="V" horiz-adv-x="1222" 
d="M442 1454l156 -1008l497 1008h272l-738 -1454h-212l-243 1454h268z" />
    <glyph glyph-name="uni0194" unicode="&#x194;" horiz-adv-x="1222" 
d="M174 1454h268l156 -1008l497 1008h272l-687 -1353q82 -180 82 -273q0 -121 -81 -185.5t-230 -64.5q-114 0 -176.5 44.5t-62.5 124.5q0 69 41.5 148t146.5 207zM446 -199q0 -35 37 -35q26 0 40.5 18.5t14.5 50.5q0 37 -23 118q-42 -72 -55.5 -102t-13.5 -50z" />
    <glyph glyph-name="uni01B2" unicode="&#x1b2;" horiz-adv-x="1362" 
d="M136 411q0 58 10 115l158 928h265l-159 -935q-6 -36 -6 -67q0 -102 59 -157t170 -55q130 0 213.5 73.5t106.5 205.5l103 609q2 14 2 19q0 27 -16.5 43t-47.5 16h-75l43 248h151q108 0 165.5 -53.5t57.5 -153.5q0 -32 -6 -68l-111 -653q-29 -172 -113.5 -293.5
t-216 -184.5t-300.5 -63q-140 0 -242 52t-156.5 148t-54.5 226z" />
    <glyph glyph-name="W" unicode="W" horiz-adv-x="1754" 
d="M174 1454h261l37 -1008l457 1008h213l117 -1008l377 1008h263l-592 -1454h-248l-92 1013l-448 -1013h-248z" />
    <glyph glyph-name="X" unicode="X" horiz-adv-x="1182" 
d="M488 743l-311 711h273l211 -485l371 485h284l-550 -716l324 -738h-272l-224 514l-395 -514h-282z" />
    <glyph glyph-name="Y" unicode="Y" horiz-adv-x="1050" 
d="M384 1454l188 -632l403 632h280l-589 -882l-96 -572h-267l98 573l-287 881h270z" />
    <glyph glyph-name="Yacute" unicode="&#xdd;" horiz-adv-x="1050" 
d="M384 1454l188 -632l403 632h280l-589 -882l-96 -572h-267l98 573l-287 881h270zM1084 1773l-341 -226l-137 156l324 245z" />
    <glyph glyph-name="Ydieresis" unicode="&#x178;" horiz-adv-x="1050" 
d="M384 1454l188 -632l403 632h280l-589 -882l-96 -572h-267l98 573l-287 881h270zM835 1830h261l-44 -257h-262zM401 1830h262l-45 -257h-261z" />
    <glyph glyph-name="uni01B3" unicode="&#x1b3;" horiz-adv-x="1078" 
d="M384 1454l188 -633l232 362q68 104 110.5 157t104.5 87t150 34h130l-43 -248h-128q-22 0 -37.5 -13.5t-36.5 -44.5l-388 -584l-97 -571h-265l97 568l-287 886h270z" />
    <glyph glyph-name="Z" unicode="Z" horiz-adv-x="1134" 
d="M283 1454h917l-40 -230l-784 -976h639l-43 -248h-955l40 230l784 976h-601z" />
    <glyph glyph-name="Zacute" unicode="&#x179;" horiz-adv-x="1134" 
d="M283 1454h917l-40 -230l-784 -976h639l-43 -248h-955l40 230l784 976h-601zM1147 1773l-341 -226l-137 156l324 245z" />
    <glyph glyph-name="Zcaron" unicode="&#x17d;" horiz-adv-x="1134" 
d="M283 1454h917l-40 -230l-784 -976h639l-43 -248h-955l40 230l784 976h-601zM1163 1820l-399 -265l-308 265l156 145l186 -158l239 158z" />
    <glyph glyph-name="Zdotaccent" unicode="&#x17b;" horiz-adv-x="1134" 
d="M283 1454h917l-40 -230l-784 -976h639l-43 -248h-955l40 230l784 976h-601zM907 1574h-278l45 262h278z" />
    <glyph glyph-name="_129" horiz-adv-x="1342" 
d="M234 107q-55 55 -84.5 132t-29.5 170q0 56 10 112l70 412q27 159 114 280.5t220 188.5t294 67q130 0 229 -45l109 173h182l-166 -263q49 -54 75 -127.5t26 -161.5q0 -56 -10 -112l-70 -412q-27 -160 -114.5 -281.5t-220.5 -188t-293 -66.5q-119 0 -212 38l-97 -154h-182z
M397 458q0 -99 60 -157t163 -58q78 0 143 33.5t108.5 95t57.5 142.5l72 426q5 33 5 56q0 100 -60 157.5t-163 57.5q-78 0 -143 -33.5t-108 -95t-57 -142.5l-73 -426q-5 -33 -5 -56z" />
    <glyph glyph-name="a" unicode="a" horiz-adv-x="1130" 
d="M51 236q0 182 114.5 280t327.5 98h275l7 44q3 17 3 33q0 62 -45 96.5t-131 34.5q-62 0 -126.5 -18.5t-117.5 -52.5l-144 152q75 71 187.5 110.5t240.5 39.5q186 0 286 -79t100 -225q0 -41 -7 -82l-114 -667h-243l16 97q-46 -54 -129.5 -83t-181.5 -29q-152 0 -235 65.5
t-83 185.5zM298 285q0 -46 41 -69t124 -23q116 0 178 24t72 75l21 123h-274q-77 0 -119.5 -34t-42.5 -96z" />
    <glyph glyph-name="aacute" unicode="&#xe1;" horiz-adv-x="1130" 
d="M51 236q0 182 114.5 280t327.5 98h275l7 44q3 17 3 33q0 62 -45 96.5t-131 34.5q-62 0 -126.5 -18.5t-117.5 -52.5l-144 152q75 71 187.5 110.5t240.5 39.5q186 0 286 -79t100 -225q0 -41 -7 -82l-114 -667h-243l16 97q-46 -54 -129.5 -83t-181.5 -29q-152 0 -235 65.5
t-83 185.5zM298 285q0 -46 41 -69t124 -23q116 0 178 24t72 75l21 123h-274q-77 0 -119.5 -34t-42.5 -96zM1074 1529l-370 -336l-153 133l353 355z" />
    <glyph glyph-name="abreve" unicode="&#x103;" horiz-adv-x="1130" 
d="M51 236q0 182 114.5 280t327.5 98h275l7 44q3 17 3 33q0 62 -45 96.5t-131 34.5q-62 0 -126.5 -18.5t-117.5 -52.5l-144 152q75 71 187.5 110.5t240.5 39.5q186 0 286 -79t100 -225q0 -41 -7 -82l-114 -667h-243l16 97q-46 -54 -129.5 -83t-181.5 -29q-152 0 -235 65.5
t-83 185.5zM298 285q0 -46 41 -69t124 -23q116 0 178 24t72 75l21 123h-274q-77 0 -119.5 -34t-42.5 -96zM394 1482q0 50 11 118h212q-7 -41 -7 -76q0 -122 92 -122h18q59 0 97.5 49.5t54.5 148.5h212q-33 -195 -133 -291.5t-263 -96.5h-18q-276 0 -276 270z" />
    <glyph glyph-name="acircumflex" unicode="&#xe2;" horiz-adv-x="1130" 
d="M51 236q0 182 114.5 280t327.5 98h275l7 44q3 17 3 33q0 62 -45 96.5t-131 34.5q-62 0 -126.5 -18.5t-117.5 -52.5l-144 152q75 71 187.5 110.5t240.5 39.5q186 0 286 -79t100 -225q0 -41 -7 -82l-114 -667h-243l16 97q-46 -54 -129.5 -83t-181.5 -29q-152 0 -235 65.5
t-83 185.5zM298 285q0 -46 41 -69t124 -23q116 0 178 24t72 75l21 123h-274q-77 0 -119.5 -34t-42.5 -96zM343 1325l410 327l299 -327l-159 -133l-176 190l-240 -190z" />
    <glyph glyph-name="adieresis" unicode="&#xe4;" horiz-adv-x="1130" 
d="M51 236q0 182 114.5 280t327.5 98h275l7 44q3 17 3 33q0 62 -45 96.5t-131 34.5q-62 0 -126.5 -18.5t-117.5 -52.5l-144 152q75 71 187.5 110.5t240.5 39.5q186 0 286 -79t100 -225q0 -41 -7 -82l-114 -667h-243l16 97q-46 -54 -129.5 -83t-181.5 -29q-152 0 -235 65.5
t-83 185.5zM298 285q0 -46 41 -69t124 -23q116 0 178 24t72 75l21 123h-274q-77 0 -119.5 -34t-42.5 -96zM811 1472h262l-44 -258h-262zM373 1472h262l-45 -258h-262z" />
    <glyph glyph-name="uni1EA1" unicode="&#x1ea1;" horiz-adv-x="1130" 
d="M51 236q0 182 114.5 280t327.5 98h275l7 44q3 17 3 33q0 62 -45 96.5t-131 34.5q-62 0 -126.5 -18.5t-117.5 -52.5l-144 152q75 71 187.5 110.5t240.5 39.5q186 0 286 -79t100 -225q0 -41 -7 -82l-114 -667h-243l16 97q-46 -54 -129.5 -83t-181.5 -29q-152 0 -235 65.5
t-83 185.5zM298 285q0 -46 41 -69t124 -23q116 0 178 24t72 75l21 123h-274q-77 0 -119.5 -34t-42.5 -96zM531 -482h-279l45 262h279z" />
    <glyph glyph-name="agrave" unicode="&#xe0;" horiz-adv-x="1130" 
d="M51 236q0 182 114.5 280t327.5 98h275l7 44q3 17 3 33q0 62 -45 96.5t-131 34.5q-62 0 -126.5 -18.5t-117.5 -52.5l-144 152q75 71 187.5 110.5t240.5 39.5q186 0 286 -79t100 -225q0 -41 -7 -82l-114 -667h-243l16 97q-46 -54 -129.5 -83t-181.5 -29q-152 0 -235 65.5
t-83 185.5zM298 285q0 -46 41 -69t124 -23q116 0 178 24t72 75l21 123h-274q-77 0 -119.5 -34t-42.5 -96zM840 1326l-178 -133l-276 336l201 152z" />
    <glyph glyph-name="amacron" unicode="&#x101;" horiz-adv-x="1130" 
d="M51 236q0 182 114.5 280t327.5 98h275l7 44q3 17 3 33q0 62 -45 96.5t-131 34.5q-62 0 -126.5 -18.5t-117.5 -52.5l-144 152q75 71 187.5 110.5t240.5 39.5q186 0 286 -79t100 -225q0 -41 -7 -82l-114 -667h-243l16 97q-46 -54 -129.5 -83t-181.5 -29q-152 0 -235 65.5
t-83 185.5zM298 285q0 -46 41 -69t124 -23q116 0 178 24t72 75l21 123h-274q-77 0 -119.5 -34t-42.5 -96zM301 1196l45 258h750l-45 -258h-750z" />
    <glyph glyph-name="aogonek" unicode="&#x105;" horiz-adv-x="1130" 
d="M166 516q114 98 327 98h275l7 44q3 17 3 33q0 62 -45 96.5t-131 34.5q-62 0 -126.5 -18.5t-117.5 -52.5l-144 152q75 71 187.5 110.5t240.5 39.5q186 0 286 -79t100 -225q0 -41 -7 -82l-114 -667q-78 -38 -119 -79.5t-41 -84.5t67 -43h58l-37 -213h-99q-98 0 -156 33
t-58 117q0 80 45 148t132 122h-35l16 97q-46 -54 -129.5 -83t-181.5 -29q-152 0 -235 65.5t-83 185.5q0 182 115 280zM339 216q41 -23 124 -23q116 0 178 24t72 75l21 123h-274q-77 0 -119.5 -34t-42.5 -96q0 -46 41 -69z" />
    <glyph glyph-name="aring" unicode="&#xe5;" horiz-adv-x="1130" 
d="M51 236q0 182 114.5 280t327.5 98h275l7 44q3 17 3 33q0 62 -45 96.5t-131 34.5q-62 0 -126.5 -18.5t-117.5 -52.5l-144 152q75 71 187.5 110.5t240.5 39.5q186 0 286 -79t100 -225q0 -41 -7 -82l-114 -667h-243l16 97q-46 -54 -129.5 -83t-181.5 -29q-152 0 -235 65.5
t-83 185.5zM298 285q0 -46 41 -69t124 -23q116 0 178 24t72 75l21 123h-274q-77 0 -119.5 -34t-42.5 -96zM436 1391q0 95 41 168t115.5 113t171.5 40q71 0 125 -25.5t83.5 -71.5t29.5 -106q0 -95 -40.5 -166t-114.5 -109.5t-172 -38.5q-71 0 -125.5 24.5t-84 69t-29.5 102.5
zM646 1381q21 -18 59 -18q49 0 78.5 30.5t29.5 80.5q0 33 -20 52t-58 19q-49 0 -79 -31.5t-30 -81.5q0 -33 20 -51z" />
    <glyph glyph-name="atilde" unicode="&#xe3;" horiz-adv-x="1130" 
d="M51 236q0 182 114.5 280t327.5 98h275l7 44q3 17 3 33q0 62 -45 96.5t-131 34.5q-62 0 -126.5 -18.5t-117.5 -52.5l-144 152q75 71 187.5 110.5t240.5 39.5q186 0 286 -79t100 -225q0 -41 -7 -82l-114 -667h-243l16 97q-46 -54 -129.5 -83t-181.5 -29q-152 0 -235 65.5
t-83 185.5zM298 285q0 -46 41 -69t124 -23q116 0 178 24t72 75l21 123h-274q-77 0 -119.5 -34t-42.5 -96zM311 1245q24 142 85 218.5t183 76.5q34 0 68 -12.5t74 -38.5q39 -26 62 -37.5t41 -11.5q36 0 52.5 17t23.5 51l6 33h201l-6 -33q-28 -150 -88.5 -226t-179.5 -76
q-35 0 -70.5 12.5t-63.5 33.5q-43 31 -65 42t-47 11q-37 0 -54 -16t-22 -45l-6 -35h-200z" />
    <glyph glyph-name="ae" unicode="&#xe6;" horiz-adv-x="1748" 
d="M163 506q111 93 320 93h265l6 36q4 23 4 48q0 72 -42.5 111t-121.5 39q-61 0 -123 -21t-115 -60l-144 151q75 71 185.5 110.5t235.5 39.5q119 0 193.5 -47t99.5 -137q66 90 160.5 137t211.5 47q172 0 264 -102.5t92 -295.5q0 -75 -15 -164l-11 -66h-666q-2 -22 -2 -32
q0 -86 57 -132.5t162 -46.5q67 0 131.5 22t105.5 58l105 -172q-52 -62 -156 -99.5t-224 -37.5q-134 0 -220.5 52t-120.5 152q-161 -204 -419 -204q-157 0 -243 66t-86 187q0 175 111 268zM1427 599l1 20q1 10 1 20q0 87 -41.5 139.5t-128.5 52.5q-103 0 -173.5 -61
t-94.5 -171h436zM297 283q0 -94 149 -94q77 0 134.5 31t90 77.5t40.5 93.5h1l6 34h-264q-74 0 -115.5 -37.5t-41.5 -104.5z" />
    <glyph glyph-name="b" unicode="b" horiz-adv-x="1154" 
d="M57 0l248 1454h264l-94 -552q58 72 134 111.5t155 39.5q93 0 161 -41t103.5 -117t35.5 -179q0 -52 -9 -109l-30 -180q-23 -140 -84 -239t-153 -151t-209 -52q-88 0 -149 38.5t-87 107.5l-22 -131h-264zM425 257q40 -34 114 -34q89 0 147.5 53.5t74.5 150.5l30 179
q5 32 5 54q0 74 -40.5 114.5t-116.5 40.5q-83 0 -137 -42.5t-70 -122.5l-45 -264l2 9q-4 -28 -4 -40q0 -64 40 -98z" />
    <glyph glyph-name="uni0253" unicode="&#x253;" horiz-adv-x="1154" 
d="M259 1189q22 131 105.5 203t211.5 72h174l-42 -248h-101q-39 0 -62.5 -21t-29.5 -57l-40 -236q58 72 134 111.5t155 39.5q93 0 161 -41t103.5 -117t35.5 -179q0 -52 -9 -109l-30 -180q-23 -140 -84 -239t-153 -151t-209 -52q-88 0 -149 38.5t-87 107.5l-22 -131h-264z
M385 355q0 -64 40 -98t114 -34q89 0 147.5 53.5t74.5 150.5l30 179q5 32 5 54q0 74 -40.5 114.5t-116.5 40.5q-84 0 -137.5 -43t-69.5 -124l-45 -263l2 10q-4 -28 -4 -40z" />
    <glyph glyph-name="c" unicode="c" horiz-adv-x="1060" 
d="M105 459l21 125q25 150 100.5 255t194.5 159.5t272 54.5q132 0 232 -43.5t149 -122.5l-202 -165q-35 39 -89 61t-116 22q-115 0 -187 -57.5t-90 -163.5l-21 -125q-5 -30 -5 -51q0 -84 53 -129.5t154 -45.5q63 0 124 23.5t110 66.5l143 -175q-77 -78 -191.5 -120.5
t-245.5 -42.5q-128 0 -221.5 46t-143 131t-49.5 200q0 52 8 97z" />
    <glyph glyph-name="cacute" unicode="&#x107;" horiz-adv-x="1060" 
d="M105 459l21 125q25 150 100.5 255t194.5 159.5t272 54.5q132 0 232 -43.5t149 -122.5l-202 -165q-35 39 -89 61t-116 22q-115 0 -187 -57.5t-90 -163.5l-21 -125q-5 -30 -5 -51q0 -84 53 -129.5t154 -45.5q63 0 124 23.5t110 66.5l143 -175q-77 -78 -191.5 -120.5
t-245.5 -42.5q-128 0 -221.5 46t-143 131t-49.5 200q0 52 8 97zM1083 1529l-370 -336l-153 133l353 355z" />
    <glyph glyph-name="ccaron" unicode="&#x10d;" horiz-adv-x="1060" 
d="M105 459l21 125q25 150 100.5 255t194.5 159.5t272 54.5q132 0 232 -43.5t149 -122.5l-202 -165q-35 39 -89 61t-116 22q-115 0 -187 -57.5t-90 -163.5l-21 -125q-5 -30 -5 -51q0 -84 53 -129.5t154 -45.5q63 0 124 23.5t110 66.5l143 -175q-77 -78 -191.5 -120.5
t-245.5 -42.5q-128 0 -221.5 46t-143 131t-49.5 200q0 52 8 97zM1094 1520l-410 -327l-299 327l159 132l176 -190l240 190z" />
    <glyph glyph-name="ccedilla" unicode="&#xe7;" horiz-adv-x="1060" 
d="M97 362q0 52 8 97l21 125q25 150 100.5 255t194.5 159.5t272 54.5q132 0 232 -43.5t149 -122.5l-202 -165q-35 39 -89 61t-116 22q-115 0 -187 -57.5t-90 -163.5l-21 -125q-5 -30 -5 -51q0 -84 53 -129.5t154 -45.5q63 0 124 23.5t110 66.5l143 -175q-70 -71 -172 -112.5
t-220 -49.5l-9 -56q74 -14 112 -49.5t38 -91.5q0 -100 -88.5 -156t-244.5 -56q-101 0 -171 18l69 152q56 -14 108 -14q50 0 78 11.5t28 31.5t-37.5 31t-108.5 11h-4l32 187q-125 36 -193 129t-68 228z" />
    <glyph glyph-name="cdotaccent" unicode="&#x10b;" horiz-adv-x="1060" 
d="M105 459l21 125q25 150 100.5 255t194.5 159.5t272 54.5q132 0 232 -43.5t149 -122.5l-202 -165q-35 39 -89 61t-116 22q-115 0 -187 -57.5t-90 -163.5l-21 -125q-5 -30 -5 -51q0 -84 53 -129.5t154 -45.5q63 0 124 23.5t110 66.5l143 -175q-77 -78 -191.5 -120.5
t-245.5 -42.5q-128 0 -221.5 46t-143 131t-49.5 200q0 52 8 97zM834 1251h-278l45 262h278z" />
    <glyph glyph-name="d" unicode="d" horiz-adv-x="1144" 
d="M89 317q0 54 10 110l31 181q36 212 151.5 329t291.5 117q80 0 141 -39t97 -111l94 550h264l-248 -1454h-264l22 131q-49 -69 -123 -108t-162 -39q-95 0 -163.5 40.5t-105 115.5t-36.5 177zM399 263q41 -40 117 -40q86 0 141 45q52 44 66 122v-1l43 252q3 21 3 39
q0 65 -39.5 100t-113.5 35q-89 0 -148 -55t-75 -154l-30 -179q-5 -30 -5 -51q0 -73 41 -113z" />
    <glyph glyph-name="eth" unicode="&#xf0;" horiz-adv-x="1142" 
d="M92 336q0 50 8 94l31 183q23 136 84.5 235.5t156.5 152t214 52.5q117 0 192 -77q-24 104 -77 194l-22 37l-351 -40l7 176l247 29l-48 82h275l29 -52l262 30l-7 -178l-163 -18l3 -5q52 -94 79.5 -205t27.5 -232q0 -92 -16 -184l-31 -180q-24 -139 -94 -239t-179.5 -153
t-250.5 -53q-116 0 -201 43t-130.5 122t-45.5 186zM396 267q39 -36 115 -36q188 0 221 199l30 180q5 32 5 54q0 143 -159 143q-90 0 -145 -48.5t-71 -145.5l-31 -183q-5 -33 -5 -56q0 -72 40 -107z" />
    <glyph glyph-name="dcaron" unicode="&#x10f;" horiz-adv-x="1314" 
d="M89 317q0 54 10 110l31 181q36 212 151.5 329t291.5 117q80 0 141 -39t97 -111l94 550h264l-248 -1454h-264l22 131q-49 -69 -123 -108t-162 -39q-95 0 -163.5 40.5t-105 115.5t-36.5 177zM399 263q41 -40 117 -40q86 0 141 45q52 44 66 122v-1l43 252q3 21 3 39
q0 65 -39.5 100t-113.5 35q-89 0 -148 -55t-75 -154l-30 -179q-5 -30 -5 -51q0 -73 41 -113zM1429 1154l-258 -163l82 479h230z" />
    <glyph glyph-name="dcroat" unicode="&#x111;" horiz-adv-x="1144" 
d="M57 317q0 54 10 110l31 181q36 212 151.5 329t291.5 117q80 0 141 -39t97 -111l38 220h-311l43 249h310l14 81h264l-14 -81h137l-43 -249h-136l-192 -1124h-264l22 131q-49 -69 -123 -108t-162 -39q-95 0 -163.5 40.5t-105 115.5t-36.5 177zM367 263q41 -40 117 -40
q86 0 141 45q52 44 66 122v-1l43 252q3 21 3 39q0 65 -39.5 100t-113.5 35q-89 0 -148 -55t-75 -154l-30 -179q-5 -30 -5 -51q0 -73 41 -113z" />
    <glyph glyph-name="uni0257" unicode="&#x257;" horiz-adv-x="1157" 
d="M89 317q0 47 10 110l31 181q24 140 83.5 240t150 153t205.5 53q79 0 140 -39.5t96 -111.5l49 286q23 131 105 203t209 72h175l-42 -248h-103q-37 0 -60.5 -20.5t-29.5 -56.5l-194 -1139h-263l23 132q-48 -69 -121.5 -108.5t-162.5 -39.5q-93 0 -161 40.5t-104 115.5
t-36 177zM357 375q0 -73 40.5 -112.5t115.5 -39.5q84 0 138 45t67 127l-1 -7l43 252v-1q4 30 4 41q0 65 -39.5 100t-111.5 35q-88 0 -146.5 -55t-74.5 -154l-30 -179q-5 -30 -5 -52z" />
    <glyph glyph-name="uni0256" unicode="&#x256;" horiz-adv-x="1240" 
d="M89 317q0 54 10 110l31 181q36 212 151.5 329t291.5 117q80 0 141 -39t97 -111l94 550h264l-264 -1550q-1 -6 -1 -16q0 -29 19.5 -45.5t58.5 -16.5h75l-43 -248h-144q-118 0 -181 55t-63 156q0 29 6 64l47 278q-49 -69 -123 -108t-162 -39q-95 0 -163.5 40.5t-105 115.5
t-36.5 177zM399 263q41 -40 117 -40q86 0 141 45q52 44 66 122v-1l43 252q3 21 3 39q0 65 -39.5 100t-113.5 35q-89 0 -148 -55t-75 -154l-30 -179q-5 -30 -5 -51q0 -73 41 -113z" />
    <glyph glyph-name="e" unicode="e" horiz-adv-x="1138" 
d="M95 357q0 50 8 93l20 117q26 154 100.5 263t190.5 166t265 57q176 0 269.5 -105.5t93.5 -301.5q0 -76 -15 -165l-11 -67h-675q-1 -9 -1 -18q0 -81 52.5 -131.5t163.5 -50.5q72 0 138 21t114 59l102 -174q-63 -64 -166 -99.5t-228 -35.5q-130 0 -225 45.5t-145.5 129.5
t-50.5 197zM370 594h434l1 18q1 10 1 20q0 84 -40 135t-127 51q-108 0 -177.5 -59t-91.5 -165z" />
    <glyph glyph-name="eacute" unicode="&#xe9;" horiz-adv-x="1138" 
d="M95 357q0 50 8 93l20 117q26 154 100.5 263t190.5 166t265 57q176 0 269.5 -105.5t93.5 -301.5q0 -76 -15 -165l-11 -67h-675q-1 -9 -1 -18q0 -81 52.5 -131.5t163.5 -50.5q72 0 138 21t114 59l102 -174q-63 -64 -166 -99.5t-228 -35.5q-130 0 -225 45.5t-145.5 129.5
t-50.5 197zM370 594h434l1 18q1 10 1 20q0 84 -40 135t-127 51q-108 0 -177.5 -59t-91.5 -165zM1093 1529l-370 -336l-153 133l353 355z" />
    <glyph glyph-name="ecaron" unicode="&#x11b;" horiz-adv-x="1138" 
d="M95 357q0 50 8 93l20 117q26 154 100.5 263t190.5 166t265 57q176 0 269.5 -105.5t93.5 -301.5q0 -76 -15 -165l-11 -67h-675q-1 -9 -1 -18q0 -81 52.5 -131.5t163.5 -50.5q72 0 138 21t114 59l102 -174q-63 -64 -166 -99.5t-228 -35.5q-130 0 -225 45.5t-145.5 129.5
t-50.5 197zM370 594h434l1 18q1 10 1 20q0 84 -40 135t-127 51q-108 0 -177.5 -59t-91.5 -165zM1104 1520l-410 -327l-299 327l159 132l176 -190l240 190z" />
    <glyph glyph-name="ecircumflex" unicode="&#xea;" horiz-adv-x="1138" 
d="M95 357q0 50 8 93l20 117q26 154 100.5 263t190.5 166t265 57q176 0 269.5 -105.5t93.5 -301.5q0 -76 -15 -165l-11 -67h-675q-1 -9 -1 -18q0 -81 52.5 -131.5t163.5 -50.5q72 0 138 21t114 59l102 -174q-63 -64 -166 -99.5t-228 -35.5q-130 0 -225 45.5t-145.5 129.5
t-50.5 197zM370 594h434l1 18q1 10 1 20q0 84 -40 135t-127 51q-108 0 -177.5 -59t-91.5 -165zM362 1325l410 327l299 -327l-159 -133l-176 190l-240 -190z" />
    <glyph glyph-name="edieresis" unicode="&#xeb;" horiz-adv-x="1138" 
d="M95 357q0 50 8 93l20 117q26 154 100.5 263t190.5 166t265 57q176 0 269.5 -105.5t93.5 -301.5q0 -76 -15 -165l-11 -67h-675q-1 -9 -1 -18q0 -81 52.5 -131.5t163.5 -50.5q72 0 138 21t114 59l102 -174q-63 -64 -166 -99.5t-228 -35.5q-130 0 -225 45.5t-145.5 129.5
t-50.5 197zM370 594h434l1 18q1 10 1 20q0 84 -40 135t-127 51q-108 0 -177.5 -59t-91.5 -165zM830 1472h262l-44 -258h-262zM392 1472h262l-45 -258h-262z" />
    <glyph glyph-name="edotaccent" unicode="&#x117;" horiz-adv-x="1138" 
d="M95 357q0 50 8 93l20 117q26 154 100.5 263t190.5 166t265 57q176 0 269.5 -105.5t93.5 -301.5q0 -76 -15 -165l-11 -67h-675q-1 -9 -1 -18q0 -81 52.5 -131.5t163.5 -50.5q72 0 138 21t114 59l102 -174q-63 -64 -166 -99.5t-228 -35.5q-130 0 -225 45.5t-145.5 129.5
t-50.5 197zM370 594h434l1 18q1 10 1 20q0 84 -40 135t-127 51q-108 0 -177.5 -59t-91.5 -165zM844 1251h-278l45 262h278z" />
    <glyph glyph-name="uni1EB9" unicode="&#x1eb9;" horiz-adv-x="1138" 
d="M95 357q0 50 8 93l20 117q26 154 100.5 263t190.5 166t265 57q176 0 269.5 -105.5t93.5 -301.5q0 -76 -15 -165l-11 -67h-675q-1 -9 -1 -18q0 -81 52.5 -131.5t163.5 -50.5q72 0 138 21t114 59l102 -174q-63 -64 -166 -99.5t-228 -35.5q-130 0 -225 45.5t-145.5 129.5
t-50.5 197zM370 594h434l1 18q1 10 1 20q0 84 -40 135t-127 51q-108 0 -177.5 -59t-91.5 -165zM549 -482h-279l45 262h279z" />
    <glyph glyph-name="egrave" unicode="&#xe8;" horiz-adv-x="1138" 
d="M95 357q0 50 8 93l20 117q26 154 100.5 263t190.5 166t265 57q176 0 269.5 -105.5t93.5 -301.5q0 -76 -15 -165l-11 -67h-675q-1 -9 -1 -18q0 -81 52.5 -131.5t163.5 -50.5q72 0 138 21t114 59l102 -174q-63 -64 -166 -99.5t-228 -35.5q-130 0 -225 45.5t-145.5 129.5
t-50.5 197zM370 594h434l1 18q1 10 1 20q0 84 -40 135t-127 51q-108 0 -177.5 -59t-91.5 -165zM859 1326l-178 -133l-276 336l201 152z" />
    <glyph glyph-name="emacron" unicode="&#x113;" horiz-adv-x="1138" 
d="M95 357q0 50 8 93l20 117q26 154 100.5 263t190.5 166t265 57q176 0 269.5 -105.5t93.5 -301.5q0 -76 -15 -165l-11 -67h-675q-1 -9 -1 -18q0 -81 52.5 -131.5t163.5 -50.5q72 0 138 21t114 59l102 -174q-63 -64 -166 -99.5t-228 -35.5q-130 0 -225 45.5t-145.5 129.5
t-50.5 197zM370 594h434l1 18q1 10 1 20q0 84 -40 135t-127 51q-108 0 -177.5 -59t-91.5 -165zM320 1196l45 258h750l-45 -258h-750z" />
    <glyph glyph-name="eogonek" unicode="&#x119;" horiz-adv-x="1138" 
d="M95 357q0 50 8 93l20 117q26 154 100.5 263t190.5 166t265 57q176 0 269.5 -105.5t93.5 -301.5q0 -76 -15 -165l-11 -67h-675q-1 -9 -1 -18q0 -81 52.5 -131.5t163.5 -50.5q72 0 138 21t114 59l102 -174q-18 -19 -48 -41q-53 -43 -83 -70t-53.5 -60.5t-23.5 -65.5
q0 -39 28 -59.5t81 -20.5h46l-37 -213h-86q-130 0 -196 44t-66 132q0 106 105 221q-40 -2 -61 -2q-130 0 -225 45.5t-145.5 129.5t-50.5 197zM804 594l1 18q1 10 1 20q0 84 -40 135t-127 51q-108 0 -177.5 -59t-91.5 -165h434z" />
    <glyph glyph-name="uni025B" unicode="&#x25b;" horiz-adv-x="1003" 
d="M54 257q0 72 31.5 130t84 95t113.5 48q-64 32 -87.5 81t-23.5 122v1q0 103 59 175t164.5 108t244.5 36q145 0 238.5 -40t138.5 -121l-203 -159q-77 80 -208 80q-82 0 -129.5 -28t-47.5 -80v-1q0 -31 17.5 -46t62.5 -15h169l-41 -238h-169q-60 0 -96.5 -23.5t-36.5 -66.5
v-1q0 -45 37 -67t119 -22q120 0 254 85l143 -172q-165 -153 -431 -153q-120 0 -211.5 33.5t-141.5 95t-50 142.5v1z" />
    <glyph glyph-name="uni01DD" unicode="&#x1dd;" horiz-adv-x="1138" 
d="M123 557l11 67h675q1 9 1 18q0 81 -52.5 131.5t-163.5 50.5q-72 0 -138 -21t-114 -59l-102 174q63 64 166 99.5t228 35.5q130 0 225 -45.5t145.5 -129.5t50.5 -197q0 -50 -8 -93l-20 -117q-26 -154 -100.5 -263t-190.5 -166t-265 -57q-176 0 -269.5 105.5t-93.5 301.5
q0 77 15 165zM382 274q42 -54 129 -54q108 0 177.5 59t91.5 165h-434l-1 -18q-1 -10 -1 -20q0 -84 38 -132z" />
    <glyph glyph-name="uni0259" unicode="&#x259;" horiz-adv-x="1138" 
d="M123 557l11 67h675q1 9 1 18q0 81 -52.5 131.5t-163.5 50.5q-72 0 -138 -21t-114 -59l-102 174q63 64 166 99.5t228 35.5q130 0 225 -45.5t145.5 -129.5t50.5 -197q0 -50 -8 -93l-20 -117q-26 -154 -100.5 -263t-190.5 -166t-265 -57q-176 0 -269.5 105.5t-93.5 301.5
q0 77 15 165zM382 274q42 -54 129 -54q108 0 177.5 59t91.5 165h-434l-1 -18q-1 -10 -1 -20q0 -84 38 -132z" />
    <glyph glyph-name="f" unicode="f" horiz-adv-x="689" 
d="M235 817h-119l38 221h119l24 141q23 138 103 206.5t222 68.5h193l-41 -234h-135q-34 0 -55.5 -22t-27.5 -55l-18 -105h206l-38 -221h-205l-139 -817h-266z" />
    <glyph glyph-name="g" unicode="g" horiz-adv-x="1144" 
d="M9 -256l203 159q33 -41 83 -64t109 -23q101 0 170 51t85 141l21 123q-49 -69 -123.5 -108t-161.5 -39q-95 0 -164 40.5t-105.5 116t-36.5 177.5q0 55 10 109l31 181q36 212 151.5 329t291.5 117q81 0 142.5 -39.5t95.5 -110.5l23 134h264l-171 -1007q-24 -143 -98 -245
t-192 -155t-271 -53q-127 0 -221 43.5t-136 122.5zM400 263q41 -40 117 -40q83 0 136 42t70 119l44 257l-1 -2q4 20 4 42q0 64 -39.5 99t-114.5 35q-89 0 -147.5 -55t-74.5 -154l-30 -179q-5 -30 -5 -52q0 -73 41 -112z" />
    <glyph glyph-name="gbreve" unicode="&#x11f;" horiz-adv-x="1144" 
d="M9 -256l203 159q33 -41 83 -64t109 -23q101 0 170 51t85 141l21 123q-49 -69 -123.5 -108t-161.5 -39q-95 0 -164 40.5t-105.5 116t-36.5 177.5q0 55 10 109l31 181q36 212 151.5 329t291.5 117q81 0 142.5 -39.5t95.5 -110.5l23 134h264l-171 -1007q-24 -143 -98 -245
t-192 -155t-271 -53q-127 0 -221 43.5t-136 122.5zM400 263q41 -40 117 -40q83 0 136 42t70 119l44 257l-1 -2q4 20 4 42q0 64 -39.5 99t-114.5 35q-89 0 -147.5 -55t-74.5 -154l-30 -179q-5 -30 -5 -52q0 -73 41 -112zM413 1482q0 50 11 118h212q-7 -41 -7 -76
q0 -122 92 -122h18q59 0 97.5 49.5t54.5 148.5h212q-33 -195 -133 -291.5t-263 -96.5h-18q-276 0 -276 270z" />
    <glyph glyph-name="uni0123" unicode="&#x123;" horiz-adv-x="1144" 
d="M212 -97q33 -41 83 -64t109 -23q101 0 170 51t85 141l21 123q-49 -69 -123.5 -108t-161.5 -39q-95 0 -164 40.5t-105.5 116t-36.5 177.5q0 55 10 109l31 181q36 212 151.5 329t291.5 117q81 0 142.5 -39.5t95.5 -110.5l23 134h264l-171 -1007q-24 -143 -98 -245
t-192 -155t-271 -53q-127 0 -221 43.5t-136 122.5zM400 263q41 -40 117 -40q83 0 136 42t70 119l44 257l-1 -2q4 20 4 42q0 64 -39.5 99t-114.5 35q-89 0 -147.5 -55t-74.5 -154l-30 -179q-5 -30 -5 -52q0 -73 41 -112zM646 1474l318 253l-86 -503h-275z" />
    <glyph glyph-name="gdotaccent" unicode="&#x121;" horiz-adv-x="1144" 
d="M9 -256l203 159q33 -41 83 -64t109 -23q101 0 170 51t85 141l21 123q-49 -69 -123.5 -108t-161.5 -39q-95 0 -164 40.5t-105.5 116t-36.5 177.5q0 55 10 109l31 181q36 212 151.5 329t291.5 117q81 0 142.5 -39.5t95.5 -110.5l23 134h264l-171 -1007q-24 -143 -98 -245
t-192 -155t-271 -53q-127 0 -221 43.5t-136 122.5zM400 263q41 -40 117 -40q83 0 136 42t70 119l44 257l-1 -2q4 20 4 42q0 64 -39.5 99t-114.5 35q-89 0 -147.5 -55t-74.5 -154l-30 -179q-5 -30 -5 -52q0 -73 41 -112zM844 1251h-278l45 262h278z" />
    <glyph glyph-name="h" unicode="h" horiz-adv-x="1184" 
d="M57 0l248 1454h264l-95 -557q126 156 302 156q94 0 162 -39t104 -111.5t36 -170.5q0 -48 -9 -102l-107 -630h-264l107 629q3 21 3 39q0 66 -43 101.5t-123 35.5q-84 0 -138.5 -41t-71.5 -116l-111 -648h-264z" />
    <glyph glyph-name="hbar" unicode="&#x127;" horiz-adv-x="1207" 
d="M82 0l195 1144h-149l43 250h149l10 60h264l-10 -60h327l-43 -250h-327l-42 -247q126 156 302 156q94 0 162 -39t104 -111.5t36 -170.5q0 -48 -9 -102l-107 -630h-264l107 629q3 21 3 39q0 66 -43 101.5t-123 35.5q-84 0 -138.5 -41t-71.5 -116l-111 -648h-264z" />
    <glyph glyph-name="i" unicode="i" horiz-adv-x="528" 
d="M526 1196h-282l45 258h282zM319 0h-280l177 1038h282z" />
    <glyph glyph-name="dotlessi" unicode="&#x131;" horiz-adv-x="528" 
d="M319 0h-280l177 1038h282z" />
    <glyph glyph-name="iacute" unicode="&#xed;" horiz-adv-x="528" 
d="M319 0h-280l177 1038h282zM782 1529l-370 -336l-153 133l353 355z" />
    <glyph glyph-name="icircumflex" unicode="&#xee;" horiz-adv-x="528" 
d="M319 0h-280l177 1038h282zM51 1325l410 327l299 -327l-159 -133l-176 190l-240 -190z" />
    <glyph glyph-name="idieresis" unicode="&#xef;" horiz-adv-x="528" 
d="M319 0h-280l177 1038h282zM519 1472h262l-44 -258h-262zM81 1472h262l-45 -258h-262z" />
    <glyph glyph-name="uni1ECB" unicode="&#x1ecb;" horiz-adv-x="528" 
d="M526 1196h-282l45 258h282zM319 0h-280l177 1038h282zM240 -482h-279l45 262h279z" />
    <glyph glyph-name="igrave" unicode="&#xec;" horiz-adv-x="528" 
d="M319 0h-280l177 1038h282zM548 1326l-178 -133l-276 336l201 152z" />
    <glyph glyph-name="imacron" unicode="&#x12b;" horiz-adv-x="528" 
d="M319 0h-280l177 1038h282zM9 1196l45 258h750l-45 -258h-750z" />
    <glyph glyph-name="iogonek" unicode="&#x12f;" horiz-adv-x="528" 
d="M-19 -122q45 68 132 122h-74l177 1038h282l-179 -1037l2 -1q-78 -38 -119 -79.5t-41 -84.5t67 -43h58l-37 -213h-99q-98 0 -156 33t-58 117q0 80 45 148zM300 1513h278l-45 -262h-278z" />
    <glyph glyph-name="j" unicode="j" horiz-adv-x="589" 
d="M-155 -422l43 248h93q41 0 67.5 20.5t32.5 57.5l192 1134h269l-202 -1185q-22 -131 -109 -203t-223 -72h-163zM342 1454h272l-44 -258h-272z" />
    <glyph glyph-name="k" unicode="k" horiz-adv-x="1123" 
d="M305 1454h264l-151 -884l452 468h295l-391 -390l267 -648h-278l-178 460l-224 -223l-40 -237h-264z" />
    <glyph glyph-name="uni0137" unicode="&#x137;" horiz-adv-x="1123" 
d="M305 1454h264l-151 -884l452 468h295l-391 -390l267 -648h-278l-178 460l-224 -223l-40 -237h-264zM543 -407l-317 -203l79 462h282z" />
    <glyph glyph-name="uni0199" unicode="&#x199;" horiz-adv-x="1123" 
d="M57 0l202 1189q22 131 105 203t211 72h173l-42 -248h-100q-39 0 -62 -21t-29 -57l-97 -568l452 468h295l-391 -390l267 -648h-283l-176 457l-221 -220l-40 -237h-264z" />
    <glyph glyph-name="l" unicode="l" horiz-adv-x="633" 
d="M103 274l201 1180h268l-192 -1129q-1 -6 -1 -16q0 -29 20.5 -45.5t59.5 -16.5h74l-43 -248h-148q-118 0 -181.5 55t-63.5 157q0 30 6 63z" />
    <glyph glyph-name="lacute" unicode="&#x13a;" horiz-adv-x="633" 
d="M103 274l201 1180h268l-192 -1129q-1 -6 -1 -16q0 -29 20.5 -45.5t59.5 -16.5h74l-43 -248h-148q-118 0 -181.5 55t-63.5 157q0 30 6 63zM837 1773l-341 -226l-137 156l324 245z" />
    <glyph glyph-name="lcaron" unicode="&#x13e;" horiz-adv-x="753" 
d="M103 274l201 1180h268l-192 -1129q-1 -6 -1 -16q0 -29 20.5 -45.5t59.5 -16.5h74l-43 -248h-148q-118 0 -181.5 55t-63.5 157q0 30 6 63zM861 1154l-258 -163l82 479h230z" />
    <glyph glyph-name="uni013C" unicode="&#x13c;" horiz-adv-x="633" 
d="M103 274l201 1180h268l-192 -1129q-1 -6 -1 -16q0 -29 20.5 -45.5t59.5 -16.5h74l-43 -248h-148q-118 0 -181.5 55t-63.5 157q0 30 6 63zM278 -407l-317 -203l79 462h282z" />
    <glyph glyph-name="lslash" unicode="&#x142;" horiz-adv-x="633" 
d="M69 744l119 47l113 663h268l-93 -549l181 72l-43 -250l-181 -72l-56 -330q-1 -6 -1 -16q0 -29 20.5 -45.5t59.5 -16.5h74l-43 -248h-148q-118 0 -181.5 55t-63.5 157q0 30 6 63l45 267l-119 -48z" />
    <glyph glyph-name="m" unicode="m" horiz-adv-x="1794" 
d="M234 1038h263l-24 -141q61 76 135.5 116t157.5 40q105 0 176 -53.5t100 -150.5q68 98 158 151t187 53q93 0 160 -40.5t102.5 -116t35.5 -178.5q0 -55 -10 -111l-103 -607h-263l103 606q5 30 5 51q0 72 -41 110t-115 38q-85 0 -140 -50t-70 -141v4l-105 -618h-263l103 606
q5 30 5 51q0 72 -41 110t-117 38q-82 0 -135 -42t-68 -120l-110 -643h-263z" />
    <glyph glyph-name="n" unicode="n" horiz-adv-x="1184" 
d="M57 0l177 1038h264l-24 -142q126 157 302 157q94 0 162 -39t104 -111.5t36 -170.5q0 -48 -9 -102l-107 -630h-264l107 629q3 21 3 39q0 66 -43 101.5t-123 35.5q-86 0 -141 -42.5t-70 -119.5l-110 -643h-264z" />
    <glyph glyph-name="nacute" unicode="&#x144;" horiz-adv-x="1184" 
d="M57 0l177 1038h264l-24 -142q126 157 302 157q94 0 162 -39t104 -111.5t36 -170.5q0 -48 -9 -102l-107 -630h-264l107 629q3 21 3 39q0 66 -43 101.5t-123 35.5q-86 0 -141 -42.5t-70 -119.5l-110 -643h-264zM1106 1529l-370 -336l-153 133l353 355z" />
    <glyph glyph-name="ncaron" unicode="&#x148;" horiz-adv-x="1184" 
d="M57 0l177 1038h264l-24 -142q126 157 302 157q94 0 162 -39t104 -111.5t36 -170.5q0 -48 -9 -102l-107 -630h-264l107 629q3 21 3 39q0 66 -43 101.5t-123 35.5q-86 0 -141 -42.5t-70 -119.5l-110 -643h-264zM1117 1520l-410 -327l-299 327l159 132l176 -190l240 190z
" />
    <glyph glyph-name="uni0146" unicode="&#x146;" horiz-adv-x="1184" 
d="M57 0l177 1038h264l-24 -142q126 157 302 157q94 0 162 -39t104 -111.5t36 -170.5q0 -48 -9 -102l-107 -630h-264l107 629q3 21 3 39q0 66 -43 101.5t-123 35.5q-86 0 -141 -42.5t-70 -119.5l-110 -643h-264zM576 -407l-317 -203l79 462h282z" />
    <glyph glyph-name="eng" unicode="&#x14b;" horiz-adv-x="1184" 
d="M57 0l177 1038h264l-24 -142q126 157 302 157q94 0 162 -39t104 -111.5t36 -170.5q0 -48 -9 -102l-132 -777q-22 -132 -109.5 -203.5t-221.5 -71.5h-164l43 248h96q42 0 68.5 20.5t32.5 57.5l39 234l84 491q3 21 3 39q0 66 -43 101.5t-123 35.5q-86 0 -141 -42.5
t-70 -119.5l-110 -643h-264z" />
    <glyph glyph-name="ntilde" unicode="&#xf1;" horiz-adv-x="1184" 
d="M57 0l177 1038h264l-24 -142q126 157 302 157q94 0 162 -39t104 -111.5t36 -170.5q0 -48 -9 -102l-107 -630h-264l107 629q3 21 3 39q0 66 -43 101.5t-123 35.5q-86 0 -141 -42.5t-70 -119.5l-110 -643h-264zM343 1245q24 142 85 218.5t183 76.5q34 0 68 -12.5t74 -38.5
q39 -26 62 -37.5t41 -11.5q36 0 52.5 17t23.5 51l6 33h201l-6 -33q-28 -150 -88.5 -226t-179.5 -76q-35 0 -70.5 12.5t-63.5 33.5q-43 31 -65 42t-47 11q-37 0 -54 -16t-22 -45l-6 -35h-200z" />
    <glyph glyph-name="o" unicode="o" horiz-adv-x="1156" 
d="M101 437l29 169q24 141 95.5 241.5t184.5 153t259 52.5q122 0 211.5 -43.5t137 -123.5t47.5 -188q0 -49 -8 -92l-30 -172q-25 -142 -96.5 -242.5t-184 -153.5t-258.5 -53q-122 0 -211 44t-136.5 125t-47.5 190q0 49 8 93zM405 273q44 -40 124 -40q96 0 157.5 52.5
t77.5 148.5l29 172q4 21 4 46q0 74 -44.5 113.5t-126.5 39.5q-94 0 -155 -52.5t-77 -146.5l-29 -172q-4 -23 -4 -48q0 -73 44 -113z" />
    <glyph glyph-name="oacute" unicode="&#xf3;" horiz-adv-x="1156" 
d="M101 437l29 169q24 141 95.5 241.5t184.5 153t259 52.5q122 0 211.5 -43.5t137 -123.5t47.5 -188q0 -49 -8 -92l-30 -172q-25 -142 -96.5 -242.5t-184 -153.5t-258.5 -53q-122 0 -211 44t-136.5 125t-47.5 190q0 49 8 93zM405 273q44 -40 124 -40q96 0 157.5 52.5
t77.5 148.5l29 172q4 21 4 46q0 74 -44.5 113.5t-126.5 39.5q-94 0 -155 -52.5t-77 -146.5l-29 -172q-4 -23 -4 -48q0 -73 44 -113zM1092 1529l-370 -336l-153 133l353 355z" />
    <glyph glyph-name="ocircumflex" unicode="&#xf4;" horiz-adv-x="1156" 
d="M101 437l29 169q24 141 95.5 241.5t184.5 153t259 52.5q122 0 211.5 -43.5t137 -123.5t47.5 -188q0 -49 -8 -92l-30 -172q-25 -142 -96.5 -242.5t-184 -153.5t-258.5 -53q-122 0 -211 44t-136.5 125t-47.5 190q0 49 8 93zM405 273q44 -40 124 -40q96 0 157.5 52.5
t77.5 148.5l29 172q4 21 4 46q0 74 -44.5 113.5t-126.5 39.5q-94 0 -155 -52.5t-77 -146.5l-29 -172q-4 -23 -4 -48q0 -73 44 -113zM361 1325l410 327l299 -327l-159 -133l-176 190l-240 -190z" />
    <glyph glyph-name="odieresis" unicode="&#xf6;" horiz-adv-x="1156" 
d="M101 437l29 169q24 141 95.5 241.5t184.5 153t259 52.5q122 0 211.5 -43.5t137 -123.5t47.5 -188q0 -49 -8 -92l-30 -172q-25 -142 -96.5 -242.5t-184 -153.5t-258.5 -53q-122 0 -211 44t-136.5 125t-47.5 190q0 49 8 93zM405 273q44 -40 124 -40q96 0 157.5 52.5
t77.5 148.5l29 172q4 21 4 46q0 74 -44.5 113.5t-126.5 39.5q-94 0 -155 -52.5t-77 -146.5l-29 -172q-4 -23 -4 -48q0 -73 44 -113zM829 1472h262l-44 -258h-262zM391 1472h262l-45 -258h-262z" />
    <glyph glyph-name="uni1ECD" unicode="&#x1ecd;" horiz-adv-x="1156" 
d="M101 437l29 169q24 141 95.5 241.5t184.5 153t259 52.5q122 0 211.5 -43.5t137 -123.5t47.5 -188q0 -49 -8 -92l-30 -172q-25 -142 -96.5 -242.5t-184 -153.5t-258.5 -53q-122 0 -211 44t-136.5 125t-47.5 190q0 49 8 93zM405 273q44 -40 124 -40q96 0 157.5 52.5
t77.5 148.5l29 172q4 21 4 46q0 74 -44.5 113.5t-126.5 39.5q-94 0 -155 -52.5t-77 -146.5l-29 -172q-4 -23 -4 -48q0 -73 44 -113zM548 -482h-279l45 262h279z" />
    <glyph glyph-name="ograve" unicode="&#xf2;" horiz-adv-x="1156" 
d="M101 437l29 169q24 141 95.5 241.5t184.5 153t259 52.5q122 0 211.5 -43.5t137 -123.5t47.5 -188q0 -49 -8 -92l-30 -172q-25 -142 -96.5 -242.5t-184 -153.5t-258.5 -53q-122 0 -211 44t-136.5 125t-47.5 190q0 49 8 93zM405 273q44 -40 124 -40q96 0 157.5 52.5
t77.5 148.5l29 172q4 21 4 46q0 74 -44.5 113.5t-126.5 39.5q-94 0 -155 -52.5t-77 -146.5l-29 -172q-4 -23 -4 -48q0 -73 44 -113zM858 1326l-178 -133l-276 336l201 152z" />
    <glyph glyph-name="ohorn" unicode="&#x1a1;" horiz-adv-x="1214" 
d="M93 344q0 49 8 93l29 169q24 141 95.5 241.5t184.5 153t259 52.5q72 0 132 -15h123q80 0 129 38.5t61 107.5l12 67h239l-15 -87q-21 -121 -110 -189.5t-232 -73.5q57 -85 57 -203q0 -49 -8 -92l-30 -172q-25 -142 -96.5 -242.5t-184 -153.5t-258.5 -53q-122 0 -211 44
t-136.5 125t-47.5 190zM405 273q44 -40 124 -40q96 0 157.5 52.5t77.5 148.5l29 172q4 21 4 46q0 74 -44.5 113.5t-126.5 39.5q-94 0 -155 -52.5t-77 -146.5l-29 -172q-4 -23 -4 -48q0 -73 44 -113z" />
    <glyph glyph-name="ohungarumlaut" unicode="&#x151;" horiz-adv-x="1156" 
d="M101 437l29 169q24 141 95.5 241.5t184.5 153t259 52.5q122 0 211.5 -43.5t137 -123.5t47.5 -188q0 -49 -8 -92l-30 -172q-25 -142 -96.5 -242.5t-184 -153.5t-258.5 -53q-122 0 -211 44t-136.5 125t-47.5 190q0 49 8 93zM405 273q44 -40 124 -40q96 0 157.5 52.5
t77.5 148.5l29 172q4 21 4 46q0 74 -44.5 113.5t-126.5 39.5q-94 0 -155 -52.5t-77 -146.5l-29 -172q-4 -23 -4 -48q0 -73 44 -113zM804 1542l-296 -366l-176 116l278 377zM1239 1542l-296 -366l-176 116l278 377z" />
    <glyph glyph-name="omacron" unicode="&#x14d;" horiz-adv-x="1156" 
d="M101 437l29 169q24 141 95.5 241.5t184.5 153t259 52.5q122 0 211.5 -43.5t137 -123.5t47.5 -188q0 -49 -8 -92l-30 -172q-25 -142 -96.5 -242.5t-184 -153.5t-258.5 -53q-122 0 -211 44t-136.5 125t-47.5 190q0 49 8 93zM405 273q44 -40 124 -40q96 0 157.5 52.5
t77.5 148.5l29 172q4 21 4 46q0 74 -44.5 113.5t-126.5 39.5q-94 0 -155 -52.5t-77 -146.5l-29 -172q-4 -23 -4 -48q0 -73 44 -113zM319 1196l45 258h750l-45 -258h-750z" />
    <glyph glyph-name="uni0254" unicode="&#x254;" horiz-adv-x="1060" 
d="M188 311q35 -42 87.5 -65t116.5 -23q113 0 187 60.5t93 175.5l21 125q4 23 4 49q0 84 -53.5 128t-153.5 44q-62 0 -123 -21.5t-109 -59.5l-145 163q76 79 190.5 122.5t247.5 43.5q128 0 221 -46t143 -130.5t50 -198.5q0 -41 -8 -94l-21 -125q-25 -149 -99.5 -255.5
t-193.5 -162.5t-274 -56q-132 0 -232 42.5t-150 120.5z" />
    <glyph glyph-name="oslash" unicode="&#xf8;" horiz-adv-x="1156" 
d="M78 343q0 45 9 94l29 169q24 141 95.5 241.5t184.5 153t259 52.5q104 0 185 -32l102 159h144l-142 -221q52 -46 80 -112.5t28 -147.5q0 -45 -9 -93l-30 -172q-25 -142 -96.5 -242.5t-184 -153.5t-258.5 -53q-82 0 -145 19l-94 -146h-144l127 197q-68 47 -104 120.5
t-36 167.5zM372 294l320 498q-32 13 -80 13q-94 0 -155 -52.5t-77 -146.5l-29 -172q-4 -23 -4 -47q0 -55 25 -93zM515 233q96 0 157.5 52.5t77.5 148.5l29 172q4 21 4 45q0 27 -6 49l-299 -465q24 -2 37 -2z" />
    <glyph glyph-name="otilde" unicode="&#xf5;" horiz-adv-x="1156" 
d="M101 437l29 169q24 141 95.5 241.5t184.5 153t259 52.5q122 0 211.5 -43.5t137 -123.5t47.5 -188q0 -49 -8 -92l-30 -172q-25 -142 -96.5 -242.5t-184 -153.5t-258.5 -53q-122 0 -211 44t-136.5 125t-47.5 190q0 49 8 93zM405 273q44 -40 124 -40q96 0 157.5 52.5
t77.5 148.5l29 172q4 21 4 46q0 74 -44.5 113.5t-126.5 39.5q-94 0 -155 -52.5t-77 -146.5l-29 -172q-4 -23 -4 -48q0 -73 44 -113zM329 1245q24 142 85 218.5t183 76.5q34 0 68 -12.5t74 -38.5q39 -26 62 -37.5t41 -11.5q36 0 52.5 17t23.5 51l6 33h201l-6 -33
q-28 -150 -88.5 -226t-179.5 -76q-35 0 -70.5 12.5t-63.5 33.5q-43 31 -65 42t-47 11q-37 0 -54 -16t-22 -45l-6 -35h-200z" />
    <glyph glyph-name="oe" unicode="&#x153;" horiz-adv-x="1780" 
d="M101 437l29 169q37 213 175 330t355 117q116 0 194.5 -43t114.5 -125q66 82 157 125t203 43q172 0 264 -102.5t92 -295.5q0 -75 -15 -164l-11 -66h-666q-2 -20 -2 -30q0 -87 56.5 -134t162.5 -47q67 0 131.5 22t105.5 58l105 -172q-52 -62 -156 -99.5t-224 -37.5
q-122 0 -205 43.5t-122 126.5q-65 -83 -158 -126.5t-209 -43.5q-187 0 -287 89.5t-100 254.5q0 54 10 108zM391 252q43 -44 124 -44q95 0 158 59t81 167l29 172q5 35 5 58q0 80 -43.5 123t-124.5 43q-95 0 -157.5 -58.5t-80.5 -165.5l-29 -172q-5 -26 -5 -59q0 -79 43 -123z
M1458 599l1 20q1 10 1 20q0 87 -41.5 139.5t-128.5 52.5q-103 0 -173.5 -61t-94.5 -171h436z" />
    <glyph glyph-name="p" unicode="p" horiz-adv-x="1154" 
d="M-15 -422l249 1460h264l-23 -136q58 72 133.5 111.5t155.5 39.5q94 0 161.5 -40.5t103.5 -116t36 -177.5q0 -56 -10 -112l-31 -180q-36 -208 -151.5 -325t-293.5 -117q-89 0 -150 38.5t-86 107.5l-94 -553h-264zM424 258q40 -35 115 -35q91 0 150.5 53.5t75.5 150.5
l30 179q5 32 5 53q0 75 -41.5 115.5t-119.5 40.5q-84 0 -137.5 -43t-69.5 -123l-46 -266q-2 -18 -2 -27q0 -64 40 -98z" />
    <glyph glyph-name="thorn" unicode="&#xfe;" horiz-adv-x="1154" 
d="M-15 -422l319 1876h265l-94 -551q58 72 133.5 111t155.5 39q94 0 161.5 -40.5t103.5 -116t36 -177.5q0 -56 -10 -112l-31 -180q-36 -208 -151.5 -325t-293.5 -117q-89 0 -150 38.5t-86 107.5l-94 -553h-264zM424 258q40 -35 115 -35q89 0 147.5 53.5t74.5 150.5l30 179
q5 32 5 54q0 74 -40.5 114.5t-116.5 40.5q-84 0 -137.5 -42.5t-69.5 -122.5l-46 -267q-2 -18 -2 -27q0 -64 40 -98z" />
    <glyph glyph-name="q" unicode="q" horiz-adv-x="1144" 
d="M89 317q0 54 10 110l31 181q36 212 151.5 329t291.5 117q80 0 141.5 -39t96.5 -111l23 134h264l-249 -1460h-264l94 552q-49 -69 -123 -107.5t-162 -38.5q-95 0 -163.5 40.5t-105 115.5t-36.5 177zM399 263q41 -40 117 -40q86 0 140.5 45t67.5 127l-1 -5l44 254
q3 18 3 35q0 66 -40 101t-114 35q-89 0 -148 -55t-75 -154l-30 -179q-5 -30 -5 -51q0 -73 41 -113z" />
    <glyph glyph-name="r" unicode="r" horiz-adv-x="914" 
d="M234 1038h277l-24 -143q62 76 138.5 117t156.5 41q142 0 215 -81l-194 -214q-42 47 -134 47q-90 0 -149.5 -49t-79.5 -136l-105 -620h-278z" />
    <glyph glyph-name="racute" unicode="&#x155;" horiz-adv-x="914" 
d="M234 1038h277l-24 -143q62 76 138.5 117t156.5 41q142 0 215 -81l-194 -214q-42 47 -134 47q-90 0 -149.5 -49t-79.5 -136l-105 -620h-278zM1030 1529l-370 -336l-153 133l353 355z" />
    <glyph glyph-name="rcaron" unicode="&#x159;" horiz-adv-x="914" 
d="M234 1038h277l-24 -143q62 76 138.5 117t156.5 41q142 0 215 -81l-194 -214q-42 47 -134 47q-90 0 -149.5 -49t-79.5 -136l-105 -620h-278zM1041 1520l-410 -327l-299 327l159 132l176 -190l240 190z" />
    <glyph glyph-name="uni0157" unicode="&#x157;" horiz-adv-x="914" 
d="M234 1038h277l-24 -143q62 76 138.5 117t156.5 41q142 0 215 -81l-194 -214q-42 47 -134 47q-90 0 -149.5 -49t-79.5 -136l-105 -620h-278zM249 -407l-317 -203l79 462h282z" />
    <glyph glyph-name="s" unicode="s" horiz-adv-x="1102" 
d="M188 330q72 -52 154.5 -80t161.5 -28q113 0 178.5 28t65.5 84q0 31 -24.5 47.5t-62.5 23.5t-108 13q-48 4 -69 7q-111 14 -177 32t-112.5 68.5t-46.5 148.5q0 117 60 202.5t173 131t267 45.5q124 0 235.5 -34.5t197.5 -99.5l-190 -189q-66 42 -141 64t-147 22
q-99 0 -154.5 -25.5t-55.5 -71.5q0 -27 27.5 -41t71 -20.5t137.5 -15.5q117 -12 188 -30t123 -72.5t52 -160.5q0 -122 -63.5 -211t-182.5 -136t-283 -47q-144 0 -266 38t-203 109z" />
    <glyph glyph-name="sacute" unicode="&#x15b;" horiz-adv-x="1102" 
d="M188 330q72 -52 154.5 -80t161.5 -28q113 0 178.5 28t65.5 84q0 31 -24.5 47.5t-62.5 23.5t-108 13q-48 4 -69 7q-111 14 -177 32t-112.5 68.5t-46.5 148.5q0 117 60 202.5t173 131t267 45.5q124 0 235.5 -34.5t197.5 -99.5l-190 -189q-66 42 -141 64t-147 22
q-99 0 -154.5 -25.5t-55.5 -71.5q0 -27 27.5 -41t71 -20.5t137.5 -15.5q117 -12 188 -30t123 -72.5t52 -160.5q0 -122 -63.5 -211t-182.5 -136t-283 -47q-144 0 -266 38t-203 109zM1070 1529l-370 -336l-153 133l353 355z" />
    <glyph glyph-name="scaron" unicode="&#x161;" horiz-adv-x="1102" 
d="M188 330q72 -52 154.5 -80t161.5 -28q113 0 178.5 28t65.5 84q0 31 -24.5 47.5t-62.5 23.5t-108 13q-48 4 -69 7q-111 14 -177 32t-112.5 68.5t-46.5 148.5q0 117 60 202.5t173 131t267 45.5q124 0 235.5 -34.5t197.5 -99.5l-190 -189q-66 42 -141 64t-147 22
q-99 0 -154.5 -25.5t-55.5 -71.5q0 -27 27.5 -41t71 -20.5t137.5 -15.5q117 -12 188 -30t123 -72.5t52 -160.5q0 -122 -63.5 -211t-182.5 -136t-283 -47q-144 0 -266 38t-203 109zM1081 1520l-410 -327l-299 327l159 132l176 -190l240 190z" />
    <glyph glyph-name="scedilla" unicode="&#x15f;" horiz-adv-x="1102" 
d="M-6 132l194 198q72 -52 154.5 -80t161.5 -28q113 0 178.5 28t65.5 84q0 31 -24.5 47.5t-62.5 23.5t-108 13q-48 4 -69 7q-111 14 -177 32t-112.5 68.5t-46.5 148.5q0 117 60 202.5t173 131t267 45.5q124 0 235.5 -34.5t197.5 -99.5l-190 -189q-66 42 -141 64t-147 22
q-99 0 -154.5 -25.5t-55.5 -71.5q0 -27 27.5 -41t71 -20.5t137.5 -15.5q117 -12 188 -30t123 -72.5t52 -160.5q0 -110 -52 -193.5t-150 -133.5t-235 -63l-10 -59q74 -14 112 -49.5t38 -91.5q0 -100 -88.5 -156t-244.5 -56q-101 0 -171 18l69 152q56 -14 108 -14
q50 0 78 11.5t28 31.5t-37.5 31t-108.5 11h-4l29 173q-110 12 -202 48t-157 93z" />
    <glyph glyph-name="uni0219" unicode="&#x219;" horiz-adv-x="1102" 
d="M188 330q72 -52 154.5 -80t161.5 -28q113 0 178.5 28t65.5 84q0 31 -24.5 47.5t-62.5 23.5t-108 13q-48 4 -69 7q-111 14 -177 32t-112.5 68.5t-46.5 148.5q0 117 60 202.5t173 131t267 45.5q124 0 235.5 -34.5t197.5 -99.5l-190 -189q-66 42 -141 64t-147 22
q-99 0 -154.5 -25.5t-55.5 -71.5q0 -27 27.5 -41t71 -20.5t137.5 -15.5q117 -12 188 -30t123 -72.5t52 -160.5q0 -122 -63.5 -211t-182.5 -136t-283 -47q-144 0 -266 38t-203 109zM530 -407l-317 -203l79 462h282z" />
    <glyph glyph-name="uni1E63" unicode="&#x1e63;" horiz-adv-x="1102" 
d="M188 330q72 -52 154.5 -80t161.5 -28q113 0 178.5 28t65.5 84q0 31 -24.5 47.5t-62.5 23.5t-108 13q-48 4 -69 7q-111 14 -177 32t-112.5 68.5t-46.5 148.5q0 117 60 202.5t173 131t267 45.5q124 0 235.5 -34.5t197.5 -99.5l-190 -189q-66 42 -141 64t-147 22
q-99 0 -154.5 -25.5t-55.5 -71.5q0 -27 27.5 -41t71 -20.5t137.5 -15.5q117 -12 188 -30t123 -72.5t52 -160.5q0 -122 -63.5 -211t-182.5 -136t-283 -47q-144 0 -266 38t-203 109zM516 -482h-279l45 262h279z" />
    <glyph glyph-name="germandbls" unicode="&#xdf;" horiz-adv-x="1177" 
d="M238 1060q22 129 91 220.5t180 140t257 48.5q117 0 206 -36.5t138 -102.5t49 -154v-5q0 -108 -72 -182t-207 -106q92 -15 141.5 -62.5t49.5 -119.5q0 -19 -3 -39l-74 -430q-20 -118 -128.5 -182.5t-284.5 -64.5h-101l43 248h99q52 0 84.5 25t40.5 69l56 334q2 14 2 19
q0 35 -25 54.5t-71 19.5h-99l43 250h101q55 0 89.5 27.5t34.5 82.5v5q0 49 -37 75.5t-104 26.5q-99 0 -161 -44.5t-76 -124.5l-179 -1052h-264z" />
    <glyph glyph-name="t" unicode="t" horiz-adv-x="708" 
d="M154 1038h117l51 302h266l-51 -302h156l-39 -224h-155l-84 -493q-2 -14 -2 -21q0 -27 15 -42t46 -15h84l-43 -248h-143q-122 0 -180.5 50t-58.5 149q0 38 7 76l93 544h-118z" />
    <glyph glyph-name="tcaron" unicode="&#x165;" horiz-adv-x="788" 
d="M154 1038h117l51 302h266l-51 -302h156l-39 -224h-155l-84 -493q-2 -14 -2 -21q0 -27 15 -42t46 -15h84l-43 -248h-143q-122 0 -180.5 50t-58.5 149q0 38 7 76l93 544h-118zM892 1221l-258 -163l82 479h230z" />
    <glyph glyph-name="uni0163" unicode="&#x163;" horiz-adv-x="708" 
d="M-15 -405l69 152q56 -14 108 -14q50 0 78 11.5t28 31.5t-37.5 31t-108.5 11h-4l44 261q-29 47 -29 116q0 37 7 75l93 544h-118l39 224h117l51 302h266l-51 -302h156l-39 -224h-155l-84 -493q-2 -14 -2 -21q0 -27 15 -42t46 -15h84l-43 -248h-165l-11 -65
q74 -14 112 -49.5t38 -91.5q0 -100 -88.5 -156t-244.5 -56q-101 0 -171 18z" />
    <glyph glyph-name="uni021B" unicode="&#x21b;" horiz-adv-x="708" 
d="M154 1038h117l51 302h266l-51 -302h156l-39 -224h-155l-84 -493q-2 -14 -2 -21q0 -27 15 -42t46 -15h84l-43 -248h-143q-122 0 -180.5 50t-58.5 149q0 38 7 76l93 544h-118zM324 -407l-317 -203l79 462h282z" />
    <glyph glyph-name="u" unicode="u" horiz-adv-x="1179" 
d="M125 400l109 638h264l-107 -631q-4 -28 -4 -39q0 -64 42.5 -99.5t119.5 -35.5q90 0 145 45.5t69 127.5v-3l108 635h263l-177 -1038h-263l25 147q-49 -71 -125 -116.5t-170 -45.5q-95 0 -164.5 38.5t-106.5 110.5t-37 169q0 46 9 97z" />
    <glyph glyph-name="uacute" unicode="&#xfa;" horiz-adv-x="1179" 
d="M125 400l109 638h264l-107 -631q-4 -28 -4 -39q0 -64 42.5 -99.5t119.5 -35.5q90 0 145 45.5t69 127.5v-3l108 635h263l-177 -1038h-263l25 147q-49 -71 -125 -116.5t-170 -45.5q-95 0 -164.5 38.5t-106.5 110.5t-37 169q0 46 9 97zM1104 1529l-370 -336l-153 133
l353 355z" />
    <glyph glyph-name="ubreve" unicode="&#x16d;" horiz-adv-x="1179" 
d="M125 400l109 638h264l-107 -631q-4 -28 -4 -39q0 -64 42.5 -99.5t119.5 -35.5q90 0 145 45.5t69 127.5v-3l108 635h263l-177 -1038h-263l25 147q-49 -71 -125 -116.5t-170 -45.5q-95 0 -164.5 38.5t-106.5 110.5t-37 169q0 46 9 97zM424 1482q0 50 11 118h212
q-7 -41 -7 -76q0 -122 92 -122h18q59 0 97.5 49.5t54.5 148.5h212q-33 -195 -133 -291.5t-263 -96.5h-18q-276 0 -276 270z" />
    <glyph glyph-name="ucircumflex" unicode="&#xfb;" horiz-adv-x="1179" 
d="M125 400l109 638h264l-107 -631q-4 -28 -4 -39q0 -64 42.5 -99.5t119.5 -35.5q90 0 145 45.5t69 127.5v-3l108 635h263l-177 -1038h-263l25 147q-49 -71 -125 -116.5t-170 -45.5q-95 0 -164.5 38.5t-106.5 110.5t-37 169q0 46 9 97zM373 1325l410 327l299 -327l-159 -133
l-176 190l-240 -190z" />
    <glyph glyph-name="udieresis" unicode="&#xfc;" horiz-adv-x="1179" 
d="M125 400l109 638h264l-107 -631q-4 -28 -4 -39q0 -64 42.5 -99.5t119.5 -35.5q90 0 145 45.5t69 127.5v-3l108 635h263l-177 -1038h-263l25 147q-49 -71 -125 -116.5t-170 -45.5q-95 0 -164.5 38.5t-106.5 110.5t-37 169q0 46 9 97zM841 1472h262l-44 -258h-262z
M403 1472h262l-45 -258h-262z" />
    <glyph glyph-name="uni1EE5" unicode="&#x1ee5;" horiz-adv-x="1179" 
d="M125 400l109 638h264l-107 -631q-4 -28 -4 -39q0 -64 42.5 -99.5t119.5 -35.5q90 0 145 45.5t69 127.5v-3l108 635h263l-177 -1038h-263l25 147q-49 -71 -125 -116.5t-170 -45.5q-95 0 -164.5 38.5t-106.5 110.5t-37 169q0 46 9 97zM560 -482h-279l45 262h279z" />
    <glyph glyph-name="ugrave" unicode="&#xf9;" horiz-adv-x="1179" 
d="M125 400l109 638h264l-107 -631q-4 -28 -4 -39q0 -64 42.5 -99.5t119.5 -35.5q90 0 145 45.5t69 127.5v-3l108 635h263l-177 -1038h-263l25 147q-49 -71 -125 -116.5t-170 -45.5q-95 0 -164.5 38.5t-106.5 110.5t-37 169q0 46 9 97zM870 1326l-178 -133l-276 336l201 152
z" />
    <glyph glyph-name="uhorn" unicode="&#x1b0;" horiz-adv-x="1270" 
d="M116 303q0 46 9 97l109 638h264l-107 -631q-4 -28 -4 -39q0 -64 42.5 -99.5t119.5 -35.5q90 0 145 45.5t69 127.5v-3l108 635h131q77 0 126.5 38.5t60.5 107.5l11 67h240l-15 -87q-20 -116 -101.5 -184t-212.5 -78l-154 -902h-263l25 147q-49 -71 -125 -116.5t-170 -45.5
q-95 0 -164.5 38.5t-106.5 110.5t-37 169z" />
    <glyph glyph-name="uhungarumlaut" unicode="&#x171;" horiz-adv-x="1179" 
d="M125 400l109 638h264l-107 -631q-4 -28 -4 -39q0 -64 42.5 -99.5t119.5 -35.5q90 0 145 45.5t69 127.5v-3l108 635h263l-177 -1038h-263l25 147q-49 -71 -125 -116.5t-170 -45.5q-95 0 -164.5 38.5t-106.5 110.5t-37 169q0 46 9 97zM816 1542l-296 -366l-176 116l278 377
zM1251 1542l-296 -366l-176 116l278 377z" />
    <glyph glyph-name="umacron" unicode="&#x16b;" horiz-adv-x="1179" 
d="M125 400l109 638h264l-107 -631q-4 -28 -4 -39q0 -64 42.5 -99.5t119.5 -35.5q90 0 145 45.5t69 127.5v-3l108 635h263l-177 -1038h-263l25 147q-49 -71 -125 -116.5t-170 -45.5q-95 0 -164.5 38.5t-106.5 110.5t-37 169q0 46 9 97zM331 1196l45 258h750l-45 -258h-750z
" />
    <glyph glyph-name="uogonek" unicode="&#x173;" horiz-adv-x="1179" 
d="M116 303q0 46 9 97l109 638h264l-107 -631q-4 -28 -4 -39q0 -64 42.5 -99.5t119.5 -35.5q90 0 145 45.5t69 127.5v-3l108 635h263l-177 -1038q-78 -38 -119 -79.5t-41 -84.5t67 -43h58l-37 -213h-99q-98 0 -156 33t-58 117q0 80 45 148t132 122h-55l25 147
q-49 -71 -125 -116.5t-170 -45.5q-95 0 -164.5 38.5t-106.5 110.5t-37 169z" />
    <glyph glyph-name="uring" unicode="&#x16f;" horiz-adv-x="1179" 
d="M125 400l109 638h264l-107 -631q-4 -28 -4 -39q0 -64 42.5 -99.5t119.5 -35.5q90 0 145 45.5t69 127.5v-3l108 635h263l-177 -1038h-263l25 147q-49 -71 -125 -116.5t-170 -45.5q-95 0 -164.5 38.5t-106.5 110.5t-37 169q0 46 9 97zM466 1391q0 95 41 168t115.5 113
t171.5 40q71 0 125 -25.5t83.5 -71.5t29.5 -106q0 -95 -40.5 -166t-114.5 -109.5t-172 -38.5q-71 0 -125.5 24.5t-84 69t-29.5 102.5zM676 1381q21 -18 59 -18q49 0 78.5 30.5t29.5 80.5q0 33 -20 52t-58 19q-49 0 -79 -31.5t-30 -81.5q0 -33 20 -51z" />
    <glyph glyph-name="v" unicode="v" horiz-adv-x="1064" 
d="M123 1038h261l126 -670l353 670h265l-585 -1038h-188z" />
    <glyph glyph-name="w" unicode="w" horiz-adv-x="1624" 
d="M143 1038h252l78 -663l350 663h162l126 -663l302 663h255l-505 -1038h-195l-123 686l-355 -686h-195z" />
    <glyph glyph-name="x" unicode="x" horiz-adv-x="1099" 
d="M416 536l-266 502h283l155 -324l245 324h289l-431 -529l271 -509h-282l-161 331l-282 -331h-280z" />
    <glyph glyph-name="y" unicode="y" horiz-adv-x="1029" 
d="M59 -183h55q48 0 85 18.5t63 68.5l84 159l-223 975h252l145 -644l340 644h253l-694 -1281q-35 -65 -77.5 -106t-107.5 -62.5t-161 -21.5h-57z" />
    <glyph glyph-name="yacute" unicode="&#xfd;" horiz-adv-x="1029" 
d="M59 -183h55q48 0 85 18.5t63 68.5l84 159l-223 975h252l145 -644l340 644h253l-694 -1281q-35 -65 -77.5 -106t-107.5 -62.5t-161 -21.5h-57zM1054 1529l-370 -336l-153 133l353 355z" />
    <glyph glyph-name="ydieresis" unicode="&#xff;" horiz-adv-x="1029" 
d="M59 -183h55q48 0 85 18.5t63 68.5l84 159l-223 975h252l145 -644l340 644h253l-694 -1281q-35 -65 -77.5 -106t-107.5 -62.5t-161 -21.5h-57zM791 1472h262l-44 -258h-262zM353 1472h262l-45 -258h-262z" />
    <glyph glyph-name="uni01B4" unicode="&#x1b4;" horiz-adv-x="1091" 
d="M16 -433l43 250h56q103 0 148 86l83 158l-223 977h253l144 -644l238 452q108 207 301 207h119l-43 -248h-63q-85 0 -128 -79l-527 -969q-35 -66 -78 -107t-107.5 -62t-158.5 -21h-57z" />
    <glyph glyph-name="z" unicode="z" horiz-adv-x="1053" 
d="M219 1038h801l-38 -219l-590 -583h520l-41 -236h-844l38 223l603 579h-490z" />
    <glyph glyph-name="zacute" unicode="&#x17a;" horiz-adv-x="1053" 
d="M219 1038h801l-38 -219l-590 -583h520l-41 -236h-844l38 223l603 579h-490zM1052 1529l-370 -336l-153 133l353 355z" />
    <glyph glyph-name="zcaron" unicode="&#x17e;" horiz-adv-x="1053" 
d="M219 1038h801l-38 -219l-590 -583h520l-41 -236h-844l38 223l603 579h-490zM1063 1520l-410 -327l-299 327l159 132l176 -190l240 190z" />
    <glyph glyph-name="zdotaccent" unicode="&#x17c;" horiz-adv-x="1053" 
d="M219 1038h801l-38 -219l-590 -583h520l-41 -236h-844l38 223l603 579h-490zM803 1251h-278l45 262h278z" />
    <glyph glyph-name="_254" horiz-adv-x="1156" 
d="M209 62q-63 48 -96.5 119.5t-33.5 161.5q0 45 9 94l29 169q24 141 95.5 241.5t184.5 153t259 52.5q97 0 172 -27l100 154h171l-148 -227q50 -46 75.5 -110.5t25.5 -143.5q0 -50 -8 -93l-30 -172q-25 -142 -96.5 -242.5t-184 -153.5t-258.5 -53q-74 0 -134 16l-92 -143
h-171zM348 386q0 -73 44 -113t124 -40q96 0 157.5 52.5t77.5 148.5l29 172q4 21 4 46q0 74 -44.5 113.5t-126.5 39.5q-94 0 -155 -52.5t-77 -146.5l-29 -172q-4 -23 -4 -48z" />
    <glyph glyph-name="ordfeminine" unicode="&#xaa;" horiz-adv-x="725" 
d="M166 973q0 70 33 121.5t94.5 79.5t144.5 28h129v2q1 5 1 13q0 27 -20.5 42t-55.5 15q-40 0 -64 -5.5t-55 -20.5l-116 111q58 55 123.5 78.5t157.5 23.5q116 0 177.5 -45t61.5 -132q0 -24 -4 -47l-69 -406h-201l8 46q-32 -26 -74 -39.5t-88 -13.5q-88 0 -135.5 39
t-47.5 110zM379 976q15 -10 43 -10q48 0 77 16t37 44l6 31h-105q-34 0 -54 -14t-20 -38q0 -19 16 -29z" />
    <glyph glyph-name="ordmasculine" unicode="&#xba;" horiz-adv-x="720" 
d="M181 1084l20 117q21 124 106 192t219 68q118 0 179.5 -53t61.5 -149q0 -33 -5 -59l-20 -116q-21 -123 -106 -191.5t-219 -68.5q-117 0 -179 52.5t-62 149.5q0 33 5 58zM414 1033q13 -13 37 -13q29 0 47 18t24 51l19 110q1 6 1 16q0 24 -13 37t-37 13q-28 0 -46.5 -17
t-24.5 -51l-19 -108q-2 -14 -2 -18q0 -25 14 -38z" />
    <glyph glyph-name="uni0410" unicode="&#x410;" horiz-adv-x="1346" 
d="M745 1454h176l313 -1454h-274l-48 253h-558l-133 -253h-284zM866 501l-101 533l-280 -533h381z" />
    <glyph glyph-name="uni0411" unicode="&#x411;" horiz-adv-x="1325" 
d="M325 1454h943l-43 -248h-677l-54 -313h325q118 0 208 -49.5t139.5 -139.5t49.5 -209q0 -146 -77.5 -259t-204 -174.5t-268.5 -61.5h-589zM716 248q57 0 106 28.5t78.5 80t29.5 118.5q0 84 -33 127t-114 43h-331l-68 -397h332z" />
    <glyph glyph-name="uni0412" unicode="&#x412;" horiz-adv-x="1342" 
d="M325 1454h599q199 0 298 -75.5t99 -238.5q0 -96 -49.5 -180.5t-133 -142t-181.5 -77.5q141 -16 201 -88t60 -193v-3q0 -132 -71 -236t-191.5 -162t-261.5 -58h-617zM383 247h313q74 0 131 27t88.5 78t31.5 120v3q0 75 -38 111.5t-136 36.5h-326zM489 869h327q97 0 158 52
t61 143q0 73 -38 108t-132 35h-318z" />
    <glyph glyph-name="uni0413" unicode="&#x413;" horiz-adv-x="1035" 
d="M1191 1454l-43 -248h-600l-206 -1206h-265l248 1454h866z" />
    <glyph glyph-name="uni0403" unicode="&#x403;" horiz-adv-x="1035" 
d="M1191 1454l-43 -248h-600l-206 -1206h-265l248 1454h866zM1148 1773l-341 -226l-137 156l324 245z" />
    <glyph glyph-name="uni0490" unicode="&#x490;" horiz-adv-x="1035" 
d="M77 0l248 1454h605l46 272h260l-46 -272h1l-43 -248h-600l-206 -1206h-265z" />
    <glyph glyph-name="uni0414" unicode="&#x414;" horiz-adv-x="1512" 
d="M37 248h26q102 0 172.5 88.5t97.5 247.5l148 870h943l-205 -1206h173l-99 -549h-258l54 301h-840l-54 -301h-257zM457 248h498l163 958h-414l-101 -593q-39 -228 -146 -365z" />
    <glyph glyph-name="uni0415" unicode="&#x415;" horiz-adv-x="1244" 
d="M1310 1454l-43 -248h-719l-62 -359h608l-43 -250h-607l-60 -349h721l-43 -248h-985l248 1454h985z" />
    <glyph glyph-name="uni0400" unicode="&#x400;" horiz-adv-x="1244" 
d="M1310 1454l-43 -248h-719l-62 -359h608l-43 -250h-607l-60 -349h721l-43 -248h-985l248 1454h985zM994 1701l-178 -157l-283 226l191 176z" />
    <glyph glyph-name="uni0401" unicode="&#x401;" horiz-adv-x="1244" 
d="M1310 1454l-43 -248h-719l-62 -359h608l-43 -250h-607l-60 -349h721l-43 -248h-985l248 1454h985zM986 1830h261l-44 -257h-262zM552 1830h262l-45 -257h-261z" />
    <glyph glyph-name="uni0416" unicode="&#x416;" horiz-adv-x="1982" 
d="M-83 0l614 728l-304 726h294l238 -607h157l103 607h264l-104 -607h141l444 607h312l-552 -726l366 -728h-317l-276 597h-160l-102 -597h-263l101 597h-138l-479 -597h-339z" />
    <glyph glyph-name="uni0417" unicode="&#x417;" horiz-adv-x="1228" 
d="M74 395h265q2 -77 62.5 -118.5t162.5 -41.5q77 0 135.5 29.5t90.5 84t32 125.5v1q0 79 -31.5 117.5t-114.5 38.5h-232l43 250h232q77 0 127.5 41t58.5 115l1 9q2 20 2 29q0 71 -42.5 107.5t-127.5 36.5q-89 0 -158 -43.5t-107 -122.5h-262q71 197 219 306.5t347 109.5
q127 0 221.5 -40t145 -114t50.5 -173q0 -25 -3 -51l-1 -8q-15 -113 -85 -198.5t-178 -125.5q100 -37 139 -109.5t39 -182.5v-1q0 -144 -72 -253t-203 -168.5t-304 -59.5q-147 0 -249.5 48t-152.5 137.5t-50 210.5v14z" />
    <glyph glyph-name="uni0418" unicode="&#x418;" horiz-adv-x="1454" 
d="M324 1454h255l-181 -1067l764 1067h287l-247 -1453h-255l178 1049l-759 -1049h-289z" />
    <glyph glyph-name="uni0419" unicode="&#x419;" horiz-adv-x="1454" 
d="M324 1454h255l-181 -1067l764 1067h287l-247 -1453h-255l178 1049l-759 -1049h-289zM601 1886l213 -2q-3 -19 -3 -36q0 -51 28.5 -78.5t80.5 -27.5h8q61 0 101.5 37t51.5 105l214 2q-27 -157 -131.5 -242.5t-267.5 -85.5h-8q-141 0 -217.5 65t-76.5 187q0 38 7 76z" />
    <glyph glyph-name="uni040D" unicode="&#x40d;" horiz-adv-x="1454" 
d="M324 1454h255l-181 -1067l764 1067h287l-247 -1453h-255l178 1049l-759 -1049h-289zM1034 1701l-178 -157l-283 226l191 176z" />
    <glyph glyph-name="uni048A" unicode="&#x48a;" horiz-adv-x="1470" 
d="M271 1454h255l-181 -1067l764 1067h287l-205 -1206h219l-182 -572h-265l102 324h-34v1h-137l178 1049l-759 -1049h-289zM541 1810q0 38 7 76l213 -2q-3 -19 -3 -36q0 -51 28.5 -78.5t80.5 -27.5h8q61 0 101.5 37t51.5 105l214 2q-27 -157 -131.5 -242.5t-267.5 -85.5h-8
q-141 0 -217.5 65t-76.5 187z" />
    <glyph glyph-name="uni041A" unicode="&#x41a;" horiz-adv-x="1334" 
d="M325 1454h265l-104 -607h159l467 607h316l-576 -727l390 -727h-323l-300 597h-175l-102 -597h-265z" />
    <glyph glyph-name="uni040C" unicode="&#x40c;" horiz-adv-x="1334" 
d="M325 1454h265l-104 -607h159l467 607h316l-576 -727l390 -727h-323l-300 597h-175l-102 -597h-265zM1217 1773l-341 -226l-137 156l324 245z" />
    <glyph glyph-name="uni041B" unicode="&#x41b;" horiz-adv-x="1489" 
d="M28 0l44 256q78 0 130.5 32t89 103t64.5 194l148 869h980l-247 -1454h-265l205 1206h-451l-109 -639q-98 -567 -580 -567h-9z" />
    <glyph glyph-name="uni041C" unicode="&#x41c;" horiz-adv-x="1616" 
d="M325 1454h316l157 -973l487 973h327l-248 -1454h-245l172 1008l-432 -836h-219l-150 818l-169 -990h-244z" />
    <glyph glyph-name="uni041D" unicode="&#x41d;" horiz-adv-x="1410" 
d="M77 0l248 1454h265l-104 -610h550l104 610h266l-248 -1454h-265l101 596h-550l-102 -596h-265z" />
    <glyph glyph-name="uni041E" unicode="&#x41e;" horiz-adv-x="1342" 
d="M125 409q0 56 10 112l70 412q27 159 114 280.5t220 188.5t294 67q140 0 242.5 -52t157.5 -147.5t55 -224.5q0 -56 -10 -112l-70 -412q-27 -160 -114.5 -281.5t-220.5 -188t-293 -66.5q-140 0 -242.5 52t-157.5 147.5t-55 224.5zM462 301q60 -58 163 -58q78 0 143 33.5
t108.5 95t57.5 142.5l72 426q5 33 5 56q0 100 -60 157.5t-163 57.5q-78 0 -143 -33.5t-108 -95t-57 -142.5l-73 -426q-5 -33 -5 -56q0 -99 60 -157z" />
    <glyph glyph-name="uni041F" unicode="&#x41f;" horiz-adv-x="1410" 
d="M77 0l248 1454h1081l-248 -1454h-265l205 1206h-550l-206 -1206h-265z" />
    <glyph glyph-name="uni0420" unicode="&#x420;" horiz-adv-x="1295" 
d="M325 1454h589q118 0 208 -46.5t139.5 -132t49.5 -197.5q0 -153 -68 -269.5t-192.5 -180.5t-287.5 -64h-325l-96 -564h-265zM812 812q64 0 113 28t75.5 79.5t26.5 118.5q0 76 -41 122t-108 46h-330l-68 -394h332z" />
    <glyph glyph-name="uni0421" unicode="&#x421;" horiz-adv-x="1287" 
d="M136 527l68 399q29 169 113.5 291t215 187t295.5 65q137 0 239 -58t153 -163t51 -239v-25h-279l1 20q0 63 -28.5 110.5t-76 72.5t-105.5 25q-122 0 -202.5 -76.5t-103.5 -209.5l-68 -399q-6 -36 -6 -70q0 -101 56 -158t161 -57q61 0 115.5 27t93 78.5t53.5 122.5h248
q-15 -147 -94 -257.5t-201 -169t-260 -58.5q-143 0 -244 49t-153.5 142t-52.5 224q0 65 11 127z" />
    <glyph glyph-name="uni0422" unicode="&#x422;" horiz-adv-x="1006" 
d="M124 1454h1077l-43 -248h-405l-205 -1206h-266l205 1206h-406z" />
    <glyph glyph-name="uni0423" unicode="&#x423;" horiz-adv-x="1270" 
d="M233 233h122q88 0 156 71l-307 1150h275l211 -846l450 846h275l-629 -1155q-84 -155 -184.5 -234.5t-239.5 -79.5h-172z" />
    <glyph glyph-name="uni040E" unicode="&#x40e;" horiz-adv-x="1270" 
d="M233 233h122q88 0 156 71l-307 1150h275l211 -846l450 846h275l-629 -1155q-84 -155 -184.5 -234.5t-239.5 -79.5h-172zM526 1886l213 -2q-3 -19 -3 -36q0 -51 28.5 -78.5t80.5 -27.5h8q61 0 101.5 37t51.5 105l214 2q-27 -157 -131.5 -242.5t-267.5 -85.5h-8
q-141 0 -217.5 65t-76.5 187q0 38 7 76z" />
    <glyph glyph-name="uni0424" unicode="&#x424;" horiz-adv-x="1642" 
d="M111 732l7 40q44 251 227.5 397.5t481.5 173.5l27 161h270l-28 -162q163 -18 281 -80.5t180.5 -162.5t62.5 -228q0 -48 -9 -99l-7 -40q-44 -251 -227.5 -397.5t-481.5 -173.5l-27 -161h-270l28 162q-163 18 -281 80.5t-180.5 162.5t-62.5 228q0 48 9 99zM352 667
q0 -115 80.5 -185.5t231.5 -91.5l124 724q-180 -23 -289 -110.5t-134 -231.5l-7 -40q-6 -34 -6 -65zM1223 501q109 87 134 231l7 40q6 35 6 65q0 115 -80.5 185.5t-231.5 90.5l-124 -723q180 24 289 111z" />
    <glyph glyph-name="uni0425" unicode="&#x425;" horiz-adv-x="1182" 
d="M488 743l-311 711h273l211 -485l371 485h284l-550 -716l324 -738h-272l-224 514l-395 -514h-282z" />
    <glyph glyph-name="uni0427" unicode="&#x427;" horiz-adv-x="1302" 
d="M193 916l92 538h265l-93 -545q-5 -35 -5 -59q0 -86 46.5 -131.5t130.5 -45.5q125 0 207 64.5t105 180.5l91 536h266l-248 -1454h-265l97 571q-60 -75 -144 -114.5t-188 -39.5q-114 0 -197 46.5t-127 132.5t-44 202q0 54 11 118z" />
    <glyph glyph-name="uni0426" unicode="&#x426;" horiz-adv-x="1506" 
d="M325 1454h265l-206 -1206h538l205 1202h265l-205 -1202h199l-98 -572h-264l56 324h-1003z" />
    <glyph glyph-name="uni0428" unicode="&#x428;" horiz-adv-x="1916" 
d="M77 0l248 1454h265l-206 -1206h397l205 1206h264l-206 -1206h397l205 1206h266l-248 -1454h-1587z" />
    <glyph glyph-name="uni0429" unicode="&#x429;" horiz-adv-x="2010" 
d="M81 0l248 1454h264l-206 -1206h390l206 1206h263l-206 -1206h388l205 1206h263l-205 -1206h199l-103 -572h-264l58 324h-1500z" />
    <glyph glyph-name="uni040F" unicode="&#x40f;" horiz-adv-x="1410" 
d="M328 1454h265l-206 -1206h545l205 1206h265l-247 -1454h-407l-58 -324h-265l58 324h-403z" />
    <glyph glyph-name="uni042C" unicode="&#x42c;" horiz-adv-x="1320" 
d="M77 0l248 1454h265l-96 -561h320q118 0 208 -48t139.5 -136t49.5 -204q0 -160 -64.5 -273t-188 -172.5t-297.5 -59.5h-584zM711 248q102 0 158 62t56 175q0 76 -38.5 118t-108.5 42h-326l-68 -397h327z" />
    <glyph glyph-name="uni042A" unicode="&#x42a;" horiz-adv-x="1463" 
d="M154 1454h603l-96 -561h296q118 0 208 -48t139.5 -136t49.5 -204q0 -160 -64.5 -273t-188 -172.5t-297.5 -59.5h-560l206 1206h-339zM551 248h303q102 0 158 62t56 175q0 76 -38.5 118t-108.5 42h-302z" />
    <glyph glyph-name="uni042B" unicode="&#x42b;" horiz-adv-x="1731" 
d="M325 1454h265l-96 -561h265q118 0 208 -48t139.5 -136t49.5 -204q0 -160 -64.5 -273t-188 -172.5t-297.5 -59.5h-529zM1473 1454h275l-248 -1454h-275zM384 248h272q102 0 158 62t56 175q0 76 -38.5 118t-108.5 42h-271z" />
    <glyph glyph-name="uni0409" unicode="&#x409;" horiz-adv-x="2105" 
d="M40 256q78 0 130.5 32t89 103t64.5 194l148 869h980l-95 -561h242q118 0 208 -48t139.5 -136t49.5 -204q0 -160 -64.5 -273t-188 -172.5t-297.5 -59.5h-506l205 1206h-451l-109 -639q-98 -567 -580 -567h-9zM1247 248h249q102 0 158 62t56 175q0 76 -38.5 118t-108.5 42
h-248z" />
    <glyph glyph-name="uni040A" unicode="&#x40a;" horiz-adv-x="2105" 
d="M45 0l248 1454h265l-104 -610h550l104 610h266l-96 -561h321q118 0 208 -48t139.5 -136t49.5 -204q0 -160 -64.5 -273t-188 -172.5t-297.5 -59.5h-585l101 596h-550l-102 -596h-265zM1168 248h328q102 0 158 62t56 175q0 76 -38.5 118t-108.5 42h-327z" />
    <glyph glyph-name="uni0405" unicode="&#x405;" horiz-adv-x="1281" 
d="M180 375q74 -69 178 -106.5t221 -37.5q95 0 168 24t114 70.5t41 110.5v1q0 56 -26.5 88t-78 48.5t-141.5 29.5q-146 21 -235 52t-148.5 111t-59.5 231v1q0 150 85.5 256t230 160.5t320.5 54.5q118 0 234 -39.5t210 -112.5l-155 -216q-76 59 -162 90.5t-170 31.5
q-88 0 -157 -23t-108 -67t-39 -104v-1q0 -62 32.5 -96t84 -50t147.5 -33q143 -25 231 -61.5t139 -113.5t51 -211v-2q0 -147 -87 -255t-235.5 -164.5t-327.5 -56.5q-160 0 -295 46.5t-227 133.5z" />
    <glyph glyph-name="uni0404" unicode="&#x404;" horiz-adv-x="1287" 
d="M129 527l68 399q29 169 113.5 291t215 187t295.5 65q137 0 239 -58t153 -163t51 -239v-25h-279l1 20q0 63 -28.5 110.5t-76 72.5t-105.5 25q-122 0 -202.5 -76.5t-103.5 -209.5l-14 -84h488l-41 -240h-488l-13 -75q-6 -36 -6 -70q0 -101 56 -158t161 -57q61 0 115.5 27
t93 78.5t53.5 122.5h248q-15 -147 -94 -257.5t-201 -169t-260 -58.5q-143 0 -244 49t-153.5 142t-52.5 224q0 65 11 127z" />
    <glyph glyph-name="uni042D" unicode="&#x42d;" horiz-adv-x="1287" 
d="M89 470h276q-2 -12 -2 -34q0 -60 29 -104t77.5 -67t105.5 -23q121 0 202 75t104 210l13 75h-479l41 240h479l14 84q6 38 6 70q0 102 -56 159t-160 57q-61 0 -115.5 -27.5t-93 -79.5t-53.5 -121h-250q15 147 94.5 257.5t201.5 169t260 58.5q143 0 244 -49t153.5 -142
t52.5 -224q0 -66 -11 -128l-68 -399q-29 -169 -113.5 -291t-214.5 -186.5t-295 -64.5q-129 0 -230 51t-158 147t-57 227q0 30 3 60z" />
    <glyph glyph-name="uni0406" unicode="&#x406;" horiz-adv-x="569" 
d="M306 1454h275l-248 -1454h-275z" />
    <glyph glyph-name="uni0407" unicode="&#x407;" horiz-adv-x="569" 
d="M306 1454h275l-248 -1454h-275zM595 1830h261l-44 -257h-262zM161 1830h262l-45 -257h-261z" />
    <glyph glyph-name="uni0408" unicode="&#x408;" horiz-adv-x="1055" 
d="M200 332q27 -46 74 -71.5t107 -25.5q91 0 151 59.5t77 167.5l168 992h273l-169 -993q-26 -151 -100.5 -258t-190 -162.5t-264.5 -55.5q-131 0 -228 51t-141 144z" />
    <glyph glyph-name="uni040B" unicode="&#x40b;" horiz-adv-x="1582" 
d="M124 1454h1071l-43 -248h-404l-51 -302q136 149 375 149q380 0 380 -362q0 -77 -14 -155l-91 -536h-279l92 543q6 36 6 68q0 187 -212 187q-261 0 -315 -234l-96 -564h-264l205 1206h-403z" />
    <glyph glyph-name="uni042E" unicode="&#x42e;" horiz-adv-x="1884" 
d="M298 1455h275l-104 -608h265l15 86q27 159 114 280.5t220 188.5t294 67q140 0 242.5 -52t157.5 -147.5t55 -224.5q0 -56 -10 -112l-70 -412q-27 -160 -114.5 -281.5t-220.5 -188t-293 -66.5q-140 0 -242.5 52t-157.5 147.5t-55 224.5q0 56 10 112l13 76h-265l-102 -596
h-275zM946 458q0 -99 60 -157t163 -58q78 0 143 33.5t108.5 95t57.5 142.5l72 426q5 33 5 56q0 100 -60 157.5t-163 57.5q-78 0 -143 -33.5t-108 -95t-57 -142.5l-73 -426q-5 -33 -5 -56z" />
    <glyph glyph-name="uni042F" unicode="&#x42f;" horiz-adv-x="1295" 
d="M449 569q-87 16 -151.5 67.5t-99 131.5t-34.5 181q0 147 74 262.5t193.5 179.5t250.5 64h609l-248 -1455h-266l96 562h-135l-442 -562h-304zM486 854q32 -44 108 -44h321l68 397h-322q-54 0 -102 -29t-77 -81t-29 -118q0 -82 33 -125z" />
    <glyph glyph-name="uni0402" unicode="&#x402;" horiz-adv-x="1506" 
d="M81 1206l43 248h1071l-43 -248h-403l-83 -486q66 82 162 125.5t214 43.5q116 0 204.5 -46t136.5 -129.5t48 -193.5q0 -160 -75 -278t-201 -180t-276 -62h-59l43 248h38q67 0 121 26.5t85 76t31 117.5q0 86 -45 129t-153 43q-126 0 -210 -54.5t-113 -154.5l-73 -431h-264
l205 1206h-404z" />
    <glyph glyph-name="uni0460" unicode="&#x460;" horiz-adv-x="2156" 
d="M125 406q0 58 10 115l70 411q27 160 116 281.5t224.5 188.5t298.5 67l-44 -255q-79 0 -144.5 -34.5t-108.5 -96.5t-57 -144l-72 -425q-5 -35 -5 -60q0 -98 55.5 -156t150.5 -58q83 0 151.5 34t113.5 96t59 144l46 269h269l-46 -269q-5 -33 -5 -57q0 -100 63 -158.5
t173 -58.5q73 0 135 34t103.5 96.5t55.5 143.5l72 425q5 33 5 58q0 100 -59.5 158.5t-162.5 58.5l44 255q144 0 249 -52t161 -148t56 -226q0 -57 -10 -111l-70 -411q-27 -158 -112 -279.5t-215 -189t-286 -67.5q-140 0 -238.5 57t-146.5 161q-83 -104 -201.5 -161
t-257.5 -57q-136 0 -235 51.5t-152 146.5t-53 223z" />
    <glyph glyph-name="uni0462" unicode="&#x462;" horiz-adv-x="1380" 
d="M91 1082l42 241h231l22 131h265l-22 -131h409l-42 -241h-408l-33 -189h320q118 0 208 -48t139.5 -136t49.5 -204q0 -160 -64.5 -273t-188 -172.5t-297.5 -59.5h-584l185 1082h-232zM445 248h327q102 0 158 62t56 175q0 76 -38.5 118t-108.5 42h-326z" />
    <glyph glyph-name="uni0464" unicode="&#x464;" horiz-adv-x="1708" 
d="M313 1454h275l-104 -612h123l14 84q29 169 113.5 291t215 187t295.5 65q137 0 239 -58t153 -163t51 -239v-25h-279l1 20q0 63 -28.5 110.5t-76 72.5t-105.5 25q-122 0 -202.5 -76.5t-103.5 -209.5l-14 -84h488l-41 -240h-488l-13 -75q-6 -36 -6 -70q0 -101 56 -158
t161 -57q61 0 115.5 27t93 78.5t53.5 122.5h248q-15 -147 -94 -257.5t-201 -169t-260 -58.5q-143 0 -244 49t-153.5 142t-52.5 224q0 65 11 127l13 75h-123l-103 -602h-275z" />
    <glyph glyph-name="uni0466" unicode="&#x466;" horiz-adv-x="1346" 
d="M745 1454h176l313 -1454h-274l-65 347h-118l-62 -347h-258l63 347h-116l-183 -347h-284zM849 588l-84 446l-235 -446h319z" />
    <glyph glyph-name="uni0468" unicode="&#x468;" horiz-adv-x="1790" 
d="M284 1454h275l-148 -867h298l482 867h176l313 -1454h-274l-65 347h-118l-62 -347h-258l63 347h-116l-183 -347h-284l193 347h-206l-59 -347h-275zM976 588h319l-84 446z" />
    <glyph glyph-name="uni046A" unicode="&#x46a;" horiz-adv-x="1524" 
d="M128 463q58 136 148.5 219.5t200.5 117.5l-275 654h1434l-496 -652q100 -34 163 -118t74 -221l39 -463h-291l-15 361q-3 72 -30.5 121.5t-68.5 73.5t-85 24h-20l-99 -580h-265l100 580h-3q-43 0 -92 -23.5t-94 -72.5t-73 -123l-137 -361h-311zM621 1198l176 -443l325 443
h-501z" />
    <glyph glyph-name="uni046C" unicode="&#x46c;" horiz-adv-x="2008" 
d="M318 1454h275l-107 -629h465l-265 629h1434l-496 -652q100 -34 163 -118t74 -221l39 -463h-291l-15 361q-3 72 -30.5 121.5t-68.5 73.5t-85 24h-20l-99 -580h-265l100 580h-3q-43 0 -92 -23.5t-94 -72.5t-73 -123l-137 -361h-311l196 463q26 62 62 117h-230l-99 -580
h-275zM1105 1198l176 -443l325 443h-501z" />
    <glyph glyph-name="uni046E" unicode="&#x46e;" horiz-adv-x="1227" 
d="M35 36q52 93 146 145t216 52h171q71 0 127 27.5t88.5 81.5t32.5 128v1q0 82 -38.5 121t-137.5 39h-100l43 250h100q93 0 153 50t60 139q0 76 -40.5 112.5t-137.5 36.5q-90 0 -158.5 -42.5t-106.5 -122.5l-1 -1h-263v1q72 202 215.5 308.5t337.5 106.5q145 0 247.5 -39.5
t156 -115t53.5 -182.5q0 -93 -29.5 -160t-91 -117.5t-164.5 -95.5q105 -34 145 -105.5t40 -186.5v-1q0 -151 -77.5 -259.5t-211.5 -165t-301 -56.5h-151q-47 0 -75.5 -26.5t-28.5 -70.5q0 -30 20.5 -45.5t57.5 -15.5h387l-43 -249h-391q-147 0 -225 62.5t-78 180.5
q0 121 53 215zM641 1964l180 -158l235 158l123 -145l-396 -267l-304 267z" />
    <glyph glyph-name="uni0470" unicode="&#x470;" horiz-adv-x="1482" 
d="M213 917l91 537h265l-92 -544q-6 -39 -6 -75q0 -88 39 -147t113 -85l145 851h265l-145 -851q102 32 167 110.5t85 196.5l92 544h265l-91 -537q-41 -240 -186 -388.5t-375 -182.5l-59 -346h-266l59 347q-179 33 -278 151.5t-99 299.5q0 53 11 119z" />
    <glyph glyph-name="uni0472" unicode="&#x472;" horiz-adv-x="1342" 
d="M130 521l70 412q27 159 114 280.5t220 188.5t294 67q140 0 242.5 -52t157.5 -147.5t55 -224.5q0 -56 -10 -112l-70 -412q-27 -160 -114.5 -281.5t-220.5 -188t-293 -66.5q-140 0 -242.5 52t-157.5 147.5t-55 224.5q0 56 10 112zM459 847h526l16 93q5 33 5 56
q0 100 -60 157.5t-163 57.5q-78 0 -143 -33.5t-108 -95t-57 -142.5zM397 458q0 -99 60 -157t163 -58q78 0 143 33.5t108.5 95t57.5 142.5l14 83h-527l-14 -83q-5 -33 -5 -56z" />
    <glyph glyph-name="uni0474" unicode="&#x474;" horiz-adv-x="1244" 
d="M174 1454h265l156 -1008l363 737q42 86 87.5 145.5t112.5 96t160 36.5h142l-43 -248h-134q-22 0 -37 -13.5t-31 -44.5l-586 -1155h-213z" />
    <glyph glyph-name="uni0476" unicode="&#x476;" horiz-adv-x="1244" 
d="M439 1454l156 -1008l363 737q42 86 87.5 145.5t112.5 96t160 36.5h142l-43 -248h-134q-22 0 -37 -13.5t-31 -44.5l-586 -1155h-213l-242 1454h265zM360 1785l206 178l224 -260l-193 -159zM1053 1963l224 -260l-192 -159l-238 241z" />
    <glyph glyph-name="uni0478" unicode="&#x478;" horiz-adv-x="2241" 
d="M125 409q0 56 10 112l70 412q27 159 114 280.5t220 188.5t294 67q140 0 242.5 -52t157.5 -147.5t55 -224.5q0 -56 -10 -112l-70 -412q-27 -160 -114.5 -281.5t-220.5 -188t-293 -66.5q-140 0 -242.5 52t-157.5 147.5t-55 224.5zM462 301q60 -58 163 -58q78 0 143 33.5
t108.5 95t57.5 142.5l72 426q5 33 5 56q0 100 -60 157.5t-163 57.5q-78 0 -143 -33.5t-108 -95t-57 -142.5l-73 -426q-5 -33 -5 -56q0 -99 60 -157zM1311 -183h55q48 0 85 18.5t63 68.5l84 159l-223 975h252l145 -644l340 644h253l-694 -1281q-35 -65 -77.5 -106
t-107.5 -62.5t-161 -21.5h-57z" />
    <glyph glyph-name="uni0492" unicode="&#x492;" horiz-adv-x="1225" 
d="M148 597l43 250h221l104 607h866l-43 -248h-600l-62 -359h293l-43 -250h-292l-102 -597h-265l102 597h-222z" />
    <glyph glyph-name="uni0494" unicode="&#x494;" horiz-adv-x="1366" 
d="M321 1454h866l-43 -248h-600l-83 -486q65 83 160.5 126t213.5 43q129 0 227 -59.5t152 -168t54 -251.5q0 -209 -94.5 -375.5t-253 -259.5t-341.5 -93h-37l42 248h23q101 0 183 48.5t129.5 141t47.5 218.5q0 103 -18.5 168t-69 99.5t-143.5 34.5q-127 0 -211 -54
t-113 -153l-74 -433h-265z" />
    <glyph glyph-name="uni0496" unicode="&#x496;" horiz-adv-x="2042" 
d="M-83 0l614 728l-304 726h294l238 -607h157l103 607h264l-104 -607h141l444 607h312l-552 -726l242 -480h260l-99 -572h-283l56 324h-127l-276 597h-160l-102 -597h-263l101 597h-138l-479 -597h-339z" />
    <glyph glyph-name="uni0498" unicode="&#x498;" horiz-adv-x="1211" 
d="M43 395h265q2 -77 62.5 -118.5t162.5 -41.5q77 0 135.5 29.5t90.5 84t32 125.5v1q0 79 -31.5 117.5t-114.5 38.5h-232l43 250h232q77 0 127.5 41t58.5 115l1 9q2 20 2 29q0 71 -42.5 107.5t-127.5 36.5q-89 0 -158 -43.5t-107 -122.5h-262q71 197 219 306.5t347 109.5
q127 0 221.5 -40t145 -114t50.5 -173q0 -25 -3 -51l-1 -8q-15 -113 -85 -198.5t-178 -125.5q100 -37 139 -109.5t39 -182.5v-1q0 -120 -51 -217t-145.5 -161t-223.5 -89l-59 -323h-266l58 316q-171 26 -257.5 127.5t-86.5 260.5v15z" />
    <glyph glyph-name="uni049A" unicode="&#x49a;" horiz-adv-x="1374" 
d="M325 1454h265l-104 -607h159l467 607h316l-576 -727l257 -479h265l-99 -572h-283l56 324h-129l-300 597h-175l-102 -597h-265z" />
    <glyph glyph-name="uni049C" unicode="&#x49c;" horiz-adv-x="1334" 
d="M77 0l248 1454h265l-104 -607h58l43 253h169l-43 -253h10l384 607h321l-492 -719l306 -735h-318l-216 597h-38l-43 -253h-169l43 253h-57l-102 -597h-265z" />
    <glyph glyph-name="uni049E" unicode="&#x49e;" horiz-adv-x="1404" 
d="M111 1087l39 228h222l24 139h265l-24 -139h216l-40 -228h-215l-41 -240h159l467 607h316l-576 -727l390 -727h-323l-300 597h-175l-102 -597h-265l185 1087h-222z" />
    <glyph glyph-name="uni04A0" unicode="&#x4a0;" horiz-adv-x="1555" 
d="M71 1206l43 248h706l-104 -607h159l467 607h316l-576 -727l390 -727h-323l-300 597h-175l-102 -597h-265l206 1206h-442z" />
    <glyph glyph-name="uni04A2" unicode="&#x4a2;" horiz-adv-x="1450" 
d="M77 0l248 1454h265l-104 -610h550l104 610h266l-206 -1206h199l-99 -572h-283l56 324h-180l101 596h-550l-102 -596h-265z" />
    <glyph glyph-name="uni04A4" unicode="&#x4a4;" horiz-adv-x="1742" 
d="M39 0l248 1454h265l-104 -610h550l104 610h795l-43 -248h-528l-206 -1206h-265l101 596h-550l-102 -596h-265z" />
    <glyph glyph-name="uni04A6" unicode="&#x4a6;" horiz-adv-x="2182" 
d="M53 0l248 1454h1081l-126 -739q67 85 166 129.5t222 44.5q132 0 232 -60.5t154.5 -171.5t54.5 -257q0 -214 -82.5 -377t-233.5 -252t-350 -89h-39l43 248h23q94 0 171 47.5t121.5 137.5t44.5 213q0 107 -20 174t-72 102.5t-147 35.5q-135 0 -223 -56.5t-115 -160.5
l-72 -423h-265l205 1206h-550l-206 -1206h-265z" />
    <glyph glyph-name="uni0524" unicode="&#x524;" horiz-adv-x="1485" 
d="M325 1454h1081l-206 -1206h187l-99 -572h-283l56 324h-168l205 1206h-550l-206 -1206h-265z" />
    <glyph glyph-name="uni04A8" unicode="&#x4a8;" horiz-adv-x="1501" 
d="M124 402q0 53 11 119l92 539q33 195 159 302t323 107l-44 -255q-68 0 -111.5 -38.5t-55.5 -108.5l-94 -553q-5 -33 -5 -58q0 -84 46 -136t132 -67q-26 68 -26 157q0 63 11 122l91 534q69 403 443 403q315 0 315 -287q0 -50 -11 -116l-91 -534q-31 -180 -127 -299h157
l-43 -248h-125q-200 0 -337 44q-108 -25 -232 -29q-230 0 -354 104t-124 298zM821 473q0 -108 80 -168q117 70 144 227l91 534q5 32 5 52q0 103 -89 103q-110 0 -135 -155l-91 -534q-5 -35 -5 -59z" />
    <glyph glyph-name="uni04AA" unicode="&#x4aa;" horiz-adv-x="1287" 
d="M125 400q0 65 11 127l68 399q29 169 113.5 291t215 187t295.5 65q137 0 239 -58t153 -163t51 -239v-25h-279l1 20q0 63 -28.5 110.5t-76 72.5t-105.5 25q-122 0 -202.5 -76.5t-103.5 -209.5l-68 -399q-6 -36 -6 -70q0 -101 56 -158t161 -57q61 0 115.5 27t93 78.5
t53.5 122.5h248q-13 -125 -73 -224.5t-154 -162.5t-207 -86l-55 -321h-267l55 324q-147 34 -225.5 136.5t-78.5 263.5z" />
    <glyph glyph-name="uni04AC" unicode="&#x4ac;" horiz-adv-x="1006" 
d="M81 1206l43 248h1077l-43 -248h-405l-163 -958h211l-99 -572h-283l56 324h-193l205 1206h-406z" />
    <glyph glyph-name="uni04AE" unicode="&#x4ae;" horiz-adv-x="1050" 
d="M384 1454l188 -632l403 632h280l-589 -882l-96 -572h-267l98 573l-287 881h270z" />
    <glyph glyph-name="uni04B0" unicode="&#x4b0;" horiz-adv-x="1050" 
d="M109 1454h270l188 -632l403 632h280l-589 -882l-1 -8h225l-41 -239h-224l-55 -325h-267l56 325h-214l41 239h213l2 9z" />
    <glyph glyph-name="uni04B2" unicode="&#x4b2;" horiz-adv-x="1222" 
d="M-83 0l571 743l-311 711h273l211 -485l371 485h284l-550 -716l215 -490h263l-99 -572h-283l56 324h-100l-224 514l-395 -514h-282z" />
    <glyph glyph-name="uni04B4" unicode="&#x4b4;" horiz-adv-x="1606" 
d="M81 1206l43 248h944l-43 -248h-317l-162 -958h491l205 1206h264l-205 -1206h200l-103 -572h-266l58 324h-951l205 1206h-363z" />
    <glyph glyph-name="uni04B6" unicode="&#x4b6;" horiz-adv-x="1376" 
d="M193 916l92 538h265l-93 -545q-5 -35 -5 -59q0 -86 46.5 -131.5t130.5 -45.5q125 0 207 64.5t105 180.5l91 536h266l-206 -1206h186l-99 -572h-283l56 324h-167l97 571q-60 -75 -144 -114.5t-188 -39.5q-114 0 -197 46.5t-127 132.5t-44 202q0 54 11 118z" />
    <glyph glyph-name="uni04B8" unicode="&#x4b8;" horiz-adv-x="1287" 
d="M155 798q0 54 11 118l92 538h265l-93 -545q-5 -35 -5 -59q0 -72 32 -115.5t93 -56.5l53 309h172l-51 -295q75 26 124 83.5t66 142.5l91 536h266l-248 -1454h-265l97 571q-69 -89 -173 -127l-37 -214h-172l32 187q-108 4 -187 51.5t-121 132t-42 197.5z" />
    <glyph glyph-name="uni04BA" unicode="&#x4ba;" horiz-adv-x="1372" 
d="M77 0l248 1454h265l-94 -552q136 151 376 151q118 0 203.5 -48t131 -137.5t45.5 -210.5q0 -53 -11 -121l-91 -536h-280l92 543q6 36 6 67q0 188 -214 188q-137 0 -216 -63.5t-103 -189.5l-93 -545h-265z" />
    <glyph glyph-name="uni04BC" unicode="&#x4bc;" horiz-adv-x="1547" 
d="M92 776q0 21 5 53l23 135h260l-11 -69q-1 -4 -1 -10q0 -23 18.5 -35.5t52.5 -12.5h42l23 136q27 157 105 268t201 169.5t282 58.5q208 0 319 -98t111 -280q0 -52 -11 -118l-65 -377h-736l-21 -122q-4 -24 -4 -50q0 -89 56 -136.5t162 -47.5q103 0 199.5 39t164.5 111
l123 -180q-114 -108 -252 -166.5t-279 -58.5q-217 0 -333 99t-116 283q0 57 10 114l20 115h-134q-104 0 -159 46.5t-55 133.5zM1218 837l22 133q5 33 5 58q0 89 -51 137.5t-146 48.5q-112 0 -183.5 -64t-91.5 -180l-23 -133h468z" />
    <glyph glyph-name="uni04BE" unicode="&#x4be;" horiz-adv-x="1529" 
d="M61 829l23 135h260l-11 -69q-1 -4 -1 -10q0 -23 18.5 -35.5t52.5 -12.5h42l23 136q27 157 105 268t201 169.5t282 58.5q208 0 319 -98t111 -280q0 -52 -11 -118l-65 -377h-736l-21 -122q-4 -24 -4 -50q0 -89 56 -136.5t162 -47.5q103 0 199.5 39t164.5 111l123 -180
q-84 -80 -183.5 -133.5t-204.5 -76.5l-59 -324h-266l58 319q-158 26 -241.5 121.5t-83.5 250.5q0 57 10 114l20 115h-134q-104 0 -159 46.5t-55 133.5q0 21 5 53zM714 837h468l22 133q5 33 5 58q0 89 -51 137.5t-146 48.5q-112 0 -183.5 -64t-91.5 -180z" />
    <glyph glyph-name="uni04C0" unicode="&#x4c0;" horiz-adv-x="569" 
d="M306 1454h275l-248 -1454h-275z" />
    <glyph glyph-name="uni04C1" unicode="&#x4c1;" horiz-adv-x="1982" 
d="M-83 0l614 728l-304 726h294l238 -607h157l103 607h264l-104 -607h141l444 607h312l-552 -726l366 -728h-317l-276 597h-160l-102 -597h-263l101 597h-138l-479 -597h-339zM877 1886l213 -2q-3 -19 -3 -36q0 -51 28.5 -78.5t80.5 -27.5h8q61 0 101.5 37t51.5 105l214 2
q-27 -157 -131.5 -242.5t-267.5 -85.5h-8q-141 0 -217.5 65t-76.5 187q0 38 7 76z" />
    <glyph glyph-name="uni04C3" unicode="&#x4c3;" horiz-adv-x="1348" 
d="M325 1454h265l-104 -607h162l419 607h314l-456 -629q97 -29 168 -96t109 -165.5t38 -219.5q0 -242 -78.5 -414t-228 -262t-360.5 -90h-36l43 249h22q94 0 171 52t122.5 152.5t45.5 240.5q0 109 -21.5 179t-79.5 108t-164 38h-232l-102 -597h-265z" />
    <glyph glyph-name="uni04C5" unicode="&#x4c5;" horiz-adv-x="1505" 
d="M-25 0l44 256q78 0 130.5 32t89 103t64.5 194l148 869h980l-205 -1206h219l-181 -572h-265l102 324h-182l205 1206h-451l-109 -639q-98 -567 -580 -567h-9z" />
    <glyph glyph-name="uni04C7" unicode="&#x4c7;" horiz-adv-x="1410" 
d="M325 1454h265l-104 -610h551l103 610h266l-233 -1370h-1l-39 -231q-22 -131 -103.5 -203t-206.5 -72h-152l43 248h75q35 0 58 20t30 58l41 244h1l76 448h-551l-102 -596h-265z" />
    <glyph glyph-name="uni04C9" unicode="&#x4c9;" horiz-adv-x="1476" 
d="M77 0l248 1454h265l-104 -610h550l104 610h266l-206 -1206h220l-182 -572h-265l102 324h-182l101 596h-550l-102 -596h-265z" />
    <glyph glyph-name="uni04CB" unicode="&#x4cb;" horiz-adv-x="1302" 
d="M193 916l92 538h265l-93 -545q-5 -35 -5 -59q0 -86 46.5 -131.5t130.5 -45.5q125 0 207 64.5t105 180.5l91 536h266l-248 -1454h-173l-58 -324h-267l103 572h172l55 323q-60 -75 -144 -114.5t-188 -39.5q-114 0 -197 46.5t-127 132.5t-44 202q0 54 11 118z" />
    <glyph glyph-name="uni04CD" unicode="&#x4cd;" horiz-adv-x="1632" 
d="M271 1454h316l157 -973l487 973h327l-206 -1206h220l-181 -572h-265l102 324h-163l172 1008l-432 -836h-219l-150 818l-169 -990h-244z" />
    <glyph glyph-name="uni04D0" unicode="&#x4d0;" horiz-adv-x="1346" 
d="M745 1454h176l313 -1454h-274l-48 253h-558l-133 -253h-284zM866 501l-101 533l-280 -533h381zM559 1886l213 -2q-3 -19 -3 -36q0 -51 28.5 -78.5t80.5 -27.5h8q61 0 101.5 37t51.5 105l214 2q-27 -157 -131.5 -242.5t-267.5 -85.5h-8q-141 0 -217.5 65t-76.5 187
q0 38 7 76z" />
    <glyph glyph-name="uni04D2" unicode="&#x4d2;" horiz-adv-x="1346" 
d="M745 1454h176l313 -1454h-274l-48 253h-558l-133 -253h-284zM866 501l-101 533l-280 -533h381zM984 1830h261l-44 -257h-262zM550 1830h262l-45 -257h-261z" />
    <glyph glyph-name="uni04D4" unicode="&#x4d4;" horiz-adv-x="2020" 
d="M-103 0l1062 1454h1142l-43 -248h-719l-62 -359h608l-43 -250h-607l-60 -349h721l-43 -248h-985l43 252h-543l-183 -252h-288zM542 493h410l126 739z" />
    <glyph glyph-name="uni04D6" unicode="&#x4d6;" horiz-adv-x="1244" 
d="M1310 1454l-43 -248h-719l-62 -359h608l-43 -250h-607l-60 -349h721l-43 -248h-985l248 1454h985zM561 1886l213 -2q-3 -19 -3 -36q0 -51 28.5 -78.5t80.5 -27.5h8q61 0 101.5 37t51.5 105l214 2q-27 -157 -131.5 -242.5t-267.5 -85.5h-8q-141 0 -217.5 65t-76.5 187
q0 38 7 76z" />
    <glyph glyph-name="uni04D8" unicode="&#x4d8;" horiz-adv-x="1301" 
d="M147 481l63 366h742l23 133q4 24 4 50q0 89 -57 136.5t-164 47.5q-105 0 -201.5 -40t-165.5 -114l-123 184q115 108 255 166.5t279 58.5q218 0 335 -99.5t117 -283.5q0 -56 -10 -113l-84 -492q-27 -157 -105.5 -268t-202 -169.5t-283.5 -58.5q-209 0 -321 98.5
t-112 280.5q0 53 11 117zM464 289q51 -49 149 -49q113 0 186 64t92 180l21 122h-474l-20 -122q-5 -33 -5 -57q0 -89 51 -138z" />
    <glyph glyph-name="uni04DA" unicode="&#x4da;" horiz-adv-x="1301" 
d="M147 481l63 366h742l23 133q4 24 4 50q0 89 -57 136.5t-164 47.5q-105 0 -201.5 -40t-165.5 -114l-123 184q115 108 255 166.5t279 58.5q218 0 335 -99.5t117 -283.5q0 -56 -10 -113l-84 -492q-27 -157 -105.5 -268t-202 -169.5t-283.5 -58.5q-209 0 -321 98.5
t-112 280.5q0 53 11 117zM464 289q51 -49 149 -49q113 0 186 64t92 180l21 122h-474l-20 -122q-5 -33 -5 -57q0 -89 51 -138zM970 1830h261l-44 -257h-262zM536 1830h262l-45 -257h-261z" />
    <glyph glyph-name="uni04DC" unicode="&#x4dc;" horiz-adv-x="1982" 
d="M-83 0l614 728l-304 726h294l238 -607h157l103 607h264l-104 -607h141l444 607h312l-552 -726l366 -728h-317l-276 597h-160l-102 -597h-263l101 597h-138l-479 -597h-339zM1302 1830h261l-44 -257h-262zM868 1830h262l-45 -257h-261z" />
    <glyph glyph-name="uni04DE" unicode="&#x4de;" horiz-adv-x="1228" 
d="M74 395h265q2 -77 62.5 -118.5t162.5 -41.5q77 0 135.5 29.5t90.5 84t32 125.5v1q0 79 -31.5 117.5t-114.5 38.5h-232l43 250h232q77 0 127.5 41t58.5 115l1 9q2 20 2 29q0 71 -42.5 107.5t-127.5 36.5q-89 0 -158 -43.5t-107 -122.5h-262q71 197 219 306.5t347 109.5
q127 0 221.5 -40t145 -114t50.5 -173q0 -25 -3 -51l-1 -8q-15 -113 -85 -198.5t-178 -125.5q100 -37 139 -109.5t39 -182.5v-1q0 -144 -72 -253t-203 -168.5t-304 -59.5q-147 0 -249.5 48t-152.5 137.5t-50 210.5v14zM930 1830h261l-44 -257h-262zM496 1830h262l-45 -257
h-261z" />
    <glyph glyph-name="uni04E0" unicode="&#x4e0;" horiz-adv-x="1228" 
d="M77 410v1h264v-1q3 -175 228 -175q120 0 191.5 65.5t71.5 189.5v1q0 63 -18 101.5t-64 58t-129 19.5h-199l35 205l397 331h-571l43 248h914l-40 -230l-391 -329q151 -32 232 -126.5t81 -241.5v-1q0 -175 -77.5 -297t-212.5 -183t-306 -61q-232 0 -340.5 103t-108.5 297
v25z" />
    <glyph glyph-name="uni04E2" unicode="&#x4e2;" horiz-adv-x="1454" 
d="M324 1454h255l-181 -1067l764 1067h287l-247 -1453h-255l178 1049l-759 -1049h-289zM520 1574l44 254h750l-44 -254h-750z" />
    <glyph glyph-name="uni04E4" unicode="&#x4e4;" horiz-adv-x="1454" 
d="M324 1454h255l-181 -1067l764 1067h287l-247 -1453h-255l178 1049l-759 -1049h-289zM1026 1830h261l-44 -257h-262zM592 1830h262l-45 -257h-261z" />
    <glyph glyph-name="uni04E6" unicode="&#x4e6;" horiz-adv-x="1342" 
d="M125 409q0 56 10 112l70 412q27 159 114 280.5t220 188.5t294 67q140 0 242.5 -52t157.5 -147.5t55 -224.5q0 -56 -10 -112l-70 -412q-27 -160 -114.5 -281.5t-220.5 -188t-293 -66.5q-140 0 -242.5 52t-157.5 147.5t-55 224.5zM462 301q60 -58 163 -58q78 0 143 33.5
t108.5 95t57.5 142.5l72 426q5 33 5 56q0 100 -60 157.5t-163 57.5q-78 0 -143 -33.5t-108 -95t-57 -142.5l-73 -426q-5 -33 -5 -56q0 -99 60 -157zM981 1830h261l-44 -257h-262zM547 1830h262l-45 -257h-261z" />
    <glyph glyph-name="uni04E8" unicode="&#x4e8;" horiz-adv-x="1342" 
d="M130 521l70 412q27 159 114 280.5t220 188.5t294 67q140 0 242.5 -52t157.5 -147.5t55 -224.5q0 -56 -10 -112l-70 -412q-27 -160 -114.5 -281.5t-220.5 -188t-293 -66.5q-140 0 -242.5 52t-157.5 147.5t-55 224.5q0 56 10 112zM459 847h526l16 93q5 33 5 56
q0 100 -60 157.5t-163 57.5q-78 0 -143 -33.5t-108 -95t-57 -142.5zM397 458q0 -99 60 -157t163 -58q78 0 143 33.5t108.5 95t57.5 142.5l14 83h-527l-14 -83q-5 -33 -5 -56z" />
    <glyph glyph-name="uni04EA" unicode="&#x4ea;" horiz-adv-x="1342" 
d="M130 521l70 412q27 159 114 280.5t220 188.5t294 67q140 0 242.5 -52t157.5 -147.5t55 -224.5q0 -56 -10 -112l-70 -412q-27 -160 -114.5 -281.5t-220.5 -188t-293 -66.5q-140 0 -242.5 52t-157.5 147.5t-55 224.5q0 56 10 112zM459 847h526l16 93q5 33 5 56
q0 100 -60 157.5t-163 57.5q-78 0 -143 -33.5t-108 -95t-57 -142.5zM397 458q0 -99 60 -157t163 -58q78 0 143 33.5t108.5 95t57.5 142.5l14 83h-527l-14 -83q-5 -33 -5 -56zM982 1830h261l-44 -257h-262zM548 1830h262l-45 -257h-261z" />
    <glyph glyph-name="uni04EC" unicode="&#x4ec;" horiz-adv-x="1287" 
d="M89 470h276q-2 -12 -2 -34q0 -60 29 -104t77.5 -67t105.5 -23q121 0 202 75t104 210l13 75h-479l41 240h479l14 84q6 38 6 70q0 102 -56 159t-160 57q-61 0 -115.5 -27.5t-93 -79.5t-53.5 -121h-250q15 147 94.5 257.5t201.5 169t260 58.5q143 0 244 -49t153.5 -142
t52.5 -224q0 -66 -11 -128l-68 -399q-29 -169 -113.5 -291t-214.5 -186.5t-295 -64.5q-129 0 -230 51t-158 147t-57 227q0 30 3 60zM930 1830h261l-44 -257h-262zM496 1830h262l-45 -257h-261z" />
    <glyph glyph-name="uni04EE" unicode="&#x4ee;" horiz-adv-x="1270" 
d="M233 233h122q88 0 156 71l-307 1150h275l211 -846l450 846h275l-629 -1155q-84 -155 -184.5 -234.5t-239.5 -79.5h-172zM445 1574l44 254h750l-44 -254h-750z" />
    <glyph glyph-name="uni04F0" unicode="&#x4f0;" horiz-adv-x="1270" 
d="M233 233h122q88 0 156 71l-307 1150h275l211 -846l450 846h275l-629 -1155q-84 -155 -184.5 -234.5t-239.5 -79.5h-172zM951 1830h261l-44 -257h-262zM517 1830h262l-45 -257h-261z" />
    <glyph glyph-name="uni04F2" unicode="&#x4f2;" horiz-adv-x="1270" 
d="M233 233h122q88 0 156 71l-307 1150h275l211 -846l450 846h275l-629 -1155q-84 -155 -184.5 -234.5t-239.5 -79.5h-172zM886 1780l-283 -236l-139 149l266 255zM1328 1780l-282 -236l-141 149l267 255z" />
    <glyph glyph-name="uni04F4" unicode="&#x4f4;" horiz-adv-x="1302" 
d="M193 916l92 538h265l-93 -545q-5 -35 -5 -59q0 -86 46.5 -131.5t130.5 -45.5q125 0 207 64.5t105 180.5l91 536h266l-248 -1454h-265l97 571q-60 -75 -144 -114.5t-188 -39.5q-114 0 -197 46.5t-127 132.5t-44 202q0 54 11 118zM949 1830h261l-44 -257h-262zM515 1830
h262l-45 -257h-261z" />
    <glyph glyph-name="uni04F6" unicode="&#x4f6;" horiz-adv-x="1035" 
d="M1191 1454l-43 -248h-600l-164 -958h218l-99 -572h-283l56 324h-199l248 1454h866z" />
    <glyph glyph-name="uni04F8" unicode="&#x4f8;" horiz-adv-x="1731" 
d="M325 1454h265l-96 -561h265q118 0 208 -48t139.5 -136t49.5 -204q0 -160 -64.5 -273t-188 -172.5t-297.5 -59.5h-529zM1473 1454h275l-248 -1454h-275zM384 248h272q102 0 158 62t56 175q0 76 -38.5 118t-108.5 42h-271zM1184 1830h261l-44 -257h-262zM750 1830h262
l-45 -257h-261z" />
    <glyph glyph-name="uni04FA" unicode="&#x4fa;" horiz-adv-x="1211" 
d="M129 597l43 250h221l104 607h866l-43 -248h-600l-62 -359h293l-43 -250h-292l-79 -463h217l-35 -205q-22 -131 -104.5 -203.5t-209.5 -72.5h-184l43 249h108q38 0 61.5 21t29.5 57l3 20h-217l102 597h-222z" />
    <glyph glyph-name="uni04FC" unicode="&#x4fc;" horiz-adv-x="1200" 
d="M490 743l-313 711h278l210 -481l363 481h288l-551 -715l124 -281q74 -168 109.5 -279.5t35.5 -201.5q0 -202 -107 -300.5t-325 -98.5l43 248q59 0 93 41t34 115q0 58 -27 143.5t-83 217.5l-71 168l-387 -511h-287z" />
    <glyph glyph-name="uni04FE" unicode="&#x4fe;" horiz-adv-x="1182" 
d="M395 627h-270l38 220h276l-266 607h273l211 -485l371 485h284l-466 -607h287l-39 -220h-283l275 -627h-272l-224 514l-395 -514h-282z" />
    <glyph glyph-name="uni0480" unicode="&#x480;" horiz-adv-x="1347" 
d="M173 690q0 60 12 127l17 97q30 174 118 298.5t226.5 190.5t319.5 66q138 0 243 -60.5t162.5 -170t57.5 -254.5h-273q0 71 -29.5 122.5t-82.5 78.5t-122 27q-141 0 -232.5 -78.5t-114.5 -219.5l-16 -97q-5 -29 -5 -65q0 -107 65.5 -166t192.5 -59h190l-90 -527h-265
l47 273q-203 17 -312 124.5t-109 292.5z" />
    <glyph glyph-name="uni048C" unicode="&#x48c;" horiz-adv-x="1380" 
d="M136 0l184 1077h-180l40 230h179l25 147h265l-25 -147h301l-40 -230h-300l-32 -184h320q118 0 208 -48t139.5 -136t49.5 -204q0 -160 -64.5 -273t-188 -172.5t-297.5 -59.5h-584zM443 248h327q102 0 158 62t56 175q0 76 -38.5 118t-108.5 42h-326z" />
    <glyph glyph-name="uni048E" unicode="&#x48e;" horiz-adv-x="1295" 
d="M77 0l248 1454h589q118 0 208 -46.5t139.5 -132t49.5 -197.5q0 -143 -59.5 -254t-167.5 -177l101 -195l-210 -119l-121 236q-48 -5 -91 -5h-325l-96 -564h-265zM730 812l-72 140l208 118l102 -197q28 31 43.5 73t15.5 92q0 76 -41 122t-108 46h-330l-68 -394h250z" />
    <glyph glyph-name="uni0430" unicode="&#x430;" horiz-adv-x="1130" 
d="M51 236q0 182 114.5 280t327.5 98h275l7 44q3 17 3 33q0 62 -45 96.5t-131 34.5q-62 0 -126.5 -18.5t-117.5 -52.5l-144 152q75 71 187.5 110.5t240.5 39.5q186 0 286 -79t100 -225q0 -41 -7 -82l-114 -667h-243l16 97q-46 -54 -129.5 -83t-181.5 -29q-152 0 -235 65.5
t-83 185.5zM298 285q0 -46 41 -69t124 -23q116 0 178 24t72 75l21 123h-274q-77 0 -119.5 -34t-42.5 -96z" />
    <glyph glyph-name="uni0431" unicode="&#x431;" horiz-adv-x="1186" 
d="M131 437l85 497q23 137 81 232.5t171.5 150t296.5 56.5q71 1 108 20.5t44 60.5h262q-27 -157 -131.5 -229.5t-303.5 -72.5q-137 0 -197.5 -59t-79.5 -168l-4 -23q100 111 277 111q108 0 187 -42t120.5 -120t41.5 -183q0 -48 -9 -102l-23 -132q-24 -141 -95.5 -242
t-184.5 -154t-259 -53q-122 0 -211 43.5t-136.5 124.5t-47.5 190q0 50 8 94zM391 386q0 -74 43.5 -113.5t124.5 -39.5q96 0 157.5 52.5t77.5 148.5l22 132q4 21 4 46q0 74 -44.5 113.5t-126.5 39.5q-95 0 -155.5 -52t-76.5 -147l-22 -132q-4 -23 -4 -48z" />
    <glyph glyph-name="uni0432" unicode="&#x432;" horiz-adv-x="1147" 
d="M57 0l177 1038h553q90 0 158 -28t105 -79.5t37 -119.5t-35.5 -124t-94.5 -92.5t-129 -49.5q101 -25 144.5 -82.5t43.5 -144.5v-3q0 -97 -54 -168.5t-147 -109t-208 -37.5h-550zM355 208h245q67 0 110 36.5t43 97.5v3q0 46 -26 69.5t-88 23.5h-244zM674 646q58 0 94 29.5
t36 82.5q0 35 -21.5 53.5t-75.5 18.5h-245l-32 -184h244z" />
    <glyph glyph-name="uni0433" unicode="&#x433;" horiz-adv-x="915" 
d="M970 1038l-43 -248h-471l-135 -790h-264l177 1038h736z" />
    <glyph glyph-name="uni0453" unicode="&#x453;" horiz-adv-x="915" 
d="M970 1038l-43 -248h-471l-135 -790h-264l177 1038h736zM1039 1529l-370 -336l-153 133l353 355z" />
    <glyph glyph-name="uni0491" unicode="&#x491;" horiz-adv-x="915" 
d="M234 1038h481l31 180h254l-31 -180h1l-26 -148v-2l-17 -98h-471l-135 -790h-264z" />
    <glyph glyph-name="uni0434" unicode="&#x434;" horiz-adv-x="1330" 
d="M48 238h64q50 0 82 24t56 86t44 178l87 512h795l-136 -800h157l-87 -499h-240l46 261h-669l-46 -261h-240zM777 238l96 562h-270l-58 -340q-24 -138 -94 -222h326z" />
    <glyph glyph-name="uni0435" unicode="&#x435;" horiz-adv-x="1138" 
d="M95 357q0 50 8 93l20 117q26 154 100.5 263t190.5 166t265 57q176 0 269.5 -105.5t93.5 -301.5q0 -76 -15 -165l-11 -67h-675q-1 -9 -1 -18q0 -81 52.5 -131.5t163.5 -50.5q72 0 138 21t114 59l102 -174q-63 -64 -166 -99.5t-228 -35.5q-130 0 -225 45.5t-145.5 129.5
t-50.5 197zM370 594h434l1 18q1 10 1 20q0 84 -40 135t-127 51q-108 0 -177.5 -59t-91.5 -165z" />
    <glyph glyph-name="uni0450" unicode="&#x450;" horiz-adv-x="1138" 
d="M95 357q0 50 8 93l20 117q26 154 100.5 263t190.5 166t265 57q176 0 269.5 -105.5t93.5 -301.5q0 -76 -15 -165l-11 -67h-675q-1 -9 -1 -18q0 -81 52.5 -131.5t163.5 -50.5q72 0 138 21t114 59l102 -174q-63 -64 -166 -99.5t-228 -35.5q-130 0 -225 45.5t-145.5 129.5
t-50.5 197zM370 594h434l1 18q1 10 1 20q0 84 -40 135t-127 51q-108 0 -177.5 -59t-91.5 -165zM859 1326l-178 -133l-276 336l201 152z" />
    <glyph glyph-name="uni0451" unicode="&#x451;" horiz-adv-x="1138" 
d="M95 357q0 50 8 93l20 117q26 154 100.5 263t190.5 166t265 57q176 0 269.5 -105.5t93.5 -301.5q0 -76 -15 -165l-11 -67h-675q-1 -9 -1 -18q0 -81 52.5 -131.5t163.5 -50.5q72 0 138 21t114 59l102 -174q-63 -64 -166 -99.5t-228 -35.5q-130 0 -225 45.5t-145.5 129.5
t-50.5 197zM370 594h434l1 18q1 10 1 20q0 84 -40 135t-127 51q-108 0 -177.5 -59t-91.5 -165zM830 1472h262l-44 -258h-262zM392 1472h262l-45 -258h-262z" />
    <glyph glyph-name="uni0436" unicode="&#x436;" horiz-adv-x="1504" 
d="M-103 0l463 542l-223 496h278l172 -392h56l67 392h263l-67 -392h52l305 392h283l-393 -495l279 -543h-291l-198 400h-79l-68 -400h-263l68 400h-63l-334 -400h-307z" />
    <glyph glyph-name="uni0437" unicode="&#x437;" horiz-adv-x="1014" 
d="M46 323h256q2 -54 42.5 -83.5t113.5 -29.5q81 0 131.5 28.5t50.5 78.5v1q0 46 -28 69t-92 23h-134l37 217h135q53 0 88.5 33t35.5 90v1q0 42 -28.5 63.5t-94.5 21.5q-67 0 -118.5 -32t-76.5 -89h-255q60 161 188.5 249.5t301.5 88.5q167 0 259 -62t92 -174v-1
q0 -92 -57 -165.5t-161 -114.5q90 -19 124.5 -72t34.5 -134v-1q0 -97 -63 -175.5t-171 -123.5t-239 -45q-180 0 -276 86.5t-96 238.5v13z" />
    <glyph glyph-name="uni0438" unicode="&#x438;" horiz-adv-x="1214" 
d="M234 1038h253l-108 -643l556 643h224l-177 -1037h-254l106 626l-551 -626h-226z" />
    <glyph glyph-name="uni0439" unicode="&#x439;" horiz-adv-x="1214" 
d="M234 1038h253l-108 -643l556 643h224l-177 -1037h-254l106 626l-551 -626h-226zM441 1482q0 50 11 118h212q-7 -41 -7 -76q0 -122 92 -122h18q59 0 97.5 49.5t54.5 148.5h212q-33 -195 -133 -291.5t-263 -96.5h-18q-276 0 -276 270z" />
    <glyph glyph-name="uni045D" unicode="&#x45d;" horiz-adv-x="1214" 
d="M234 1038h253l-108 -643l556 643h224l-177 -1037h-254l106 626l-551 -626h-226zM887 1326l-178 -133l-276 336l201 152z" />
    <glyph glyph-name="uni048B" unicode="&#x48b;" horiz-adv-x="1334" 
d="M234 1038h253l-108 -643l556 643h224l-136 -796h162l-178 -503h-247l95 262h-127l106 626l-551 -626h-226zM441 1482q0 50 11 118h212q-7 -41 -7 -76q0 -122 92 -122h18q59 0 97.5 49.5t54.5 148.5h212q-33 -195 -133 -291.5t-263 -96.5h-18q-276 0 -276 270z" />
    <glyph glyph-name="uni043A" unicode="&#x43a;" horiz-adv-x="1094" 
d="M234 1038h264l-67 -393h138l268 393h298l-357 -505l244 -533h-301l-167 395h-166l-67 -395h-264z" />
    <glyph glyph-name="uni045C" unicode="&#x45c;" horiz-adv-x="1094" 
d="M234 1038h264l-67 -393h138l268 393h298l-357 -505l244 -533h-301l-167 395h-166l-67 -395h-264zM1057 1529l-370 -336l-153 133l353 355z" />
    <glyph glyph-name="uni043B" unicode="&#x43b;" horiz-adv-x="1191" 
d="M28 239q73 0 122.5 49.5t64.5 138.5l104 611h816l-176 -1038h-265l135 790h-303l-67 -391q-33 -194 -151 -301t-300 -107h-23z" />
    <glyph glyph-name="uni043C" unicode="&#x43c;" horiz-adv-x="1336" 
d="M234 1038h229l193 -565l386 565h239l-177 -1038h-239l102 603l-274 -401h-156l-139 400l-102 -602h-239z" />
    <glyph glyph-name="uni043D" unicode="&#x43d;" horiz-adv-x="1220" 
d="M57 0l177 1038h264l-70 -409h403l70 409h264l-177 -1038h-264l67 391h-403l-67 -391h-264z" />
    <glyph glyph-name="uni043E" unicode="&#x43e;" horiz-adv-x="1156" 
d="M101 437l29 169q24 141 95.5 241.5t184.5 153t259 52.5q122 0 211.5 -43.5t137 -123.5t47.5 -188q0 -49 -8 -92l-30 -172q-25 -142 -96.5 -242.5t-184 -153.5t-258.5 -53q-122 0 -211 44t-136.5 125t-47.5 190q0 49 8 93zM405 273q44 -40 124 -40q96 0 157.5 52.5
t77.5 148.5l29 172q4 21 4 46q0 74 -44.5 113.5t-126.5 39.5q-94 0 -155 -52.5t-77 -146.5l-29 -172q-4 -23 -4 -48q0 -73 44 -113z" />
    <glyph glyph-name="uni043F" unicode="&#x43f;" horiz-adv-x="1220" 
d="M57 0l177 1038h931l-177 -1038h-264l135 790h-403l-135 -790h-264z" />
    <glyph glyph-name="uni0440" unicode="&#x440;" horiz-adv-x="1154" 
d="M-15 -422l249 1460h264l-23 -136q58 72 133.5 111.5t155.5 39.5q94 0 161.5 -40.5t103.5 -116t36 -177.5q0 -56 -10 -112l-31 -180q-36 -208 -151.5 -325t-293.5 -117q-89 0 -150 38.5t-86 107.5l-94 -553h-264zM424 258q40 -35 115 -35q91 0 150.5 53.5t75.5 150.5
l30 179q5 32 5 53q0 75 -41.5 115.5t-119.5 40.5q-84 0 -137.5 -43t-69.5 -123l-46 -266q-2 -18 -2 -27q0 -64 40 -98z" />
    <glyph glyph-name="uni0441" unicode="&#x441;" horiz-adv-x="1060" 
d="M105 459l21 125q25 150 100.5 255t194.5 159.5t272 54.5q132 0 232 -43.5t149 -122.5l-202 -165q-35 39 -89 61t-116 22q-115 0 -187 -57.5t-90 -163.5l-21 -125q-5 -30 -5 -51q0 -84 53 -129.5t154 -45.5q63 0 124 23.5t110 66.5l143 -175q-77 -78 -191.5 -120.5
t-245.5 -42.5q-128 0 -221.5 46t-143 131t-49.5 200q0 52 8 97z" />
    <glyph glyph-name="uni0442" unicode="&#x442;" horiz-adv-x="1066" 
d="M183 1038h877l-42 -246h-306l-135 -792h-263l134 792h-307z" />
    <glyph glyph-name="uni0443" unicode="&#x443;" horiz-adv-x="1029" 
d="M59 -183h55q48 0 85 18.5t63 68.5l84 159l-223 975h252l145 -644l340 644h253l-694 -1281q-35 -65 -77.5 -106t-107.5 -62.5t-161 -21.5h-57z" />
    <glyph glyph-name="uni045E" unicode="&#x45e;" horiz-adv-x="1029" 
d="M59 -183h55q48 0 85 18.5t63 68.5l84 159l-223 975h252l145 -644l340 644h253l-694 -1281q-35 -65 -77.5 -106t-107.5 -62.5t-161 -21.5h-57zM374 1482q0 50 11 118h212q-7 -41 -7 -76q0 -122 92 -122h18q59 0 97.5 49.5t54.5 148.5h212q-33 -195 -133 -291.5t-263 -96.5
h-18q-276 0 -276 270z" />
    <glyph glyph-name="uni0444" unicode="&#x444;" horiz-adv-x="1507" 
d="M87 359l55 322q29 170 125 263.5t241 93.5q66 0 112.5 -27t72.5 -80l69 408h261l-70 -409q44 53 100 80.5t122 27.5q118 0 185.5 -72.5t67.5 -197.5q0 -39 -8 -87l-55 -322q-29 -171 -125 -265t-242 -94q-132 0 -186 101l-68 -402h-261l68 401q-88 -100 -220 -100
q-118 0 -185 73t-67 199q0 37 8 87zM889 279q28 -31 80 -31q55 0 92 43.5t50 120.5l37 216q5 30 5 51q0 54 -24.5 82.5t-68.5 28.5q-62 0 -102.5 -41t-54.5 -117l-40 -234q-2 -22 -2 -33q0 -56 28 -86zM378 278q24 -30 68 -30q58 0 98 37t57 106l44 262q1 8 1 22
q0 55 -28 85t-81 30q-54 0 -91 -42t-50 -120l-37 -216q-5 -30 -5 -51q0 -54 24 -83z" />
    <glyph glyph-name="uni0445" unicode="&#x445;" horiz-adv-x="1099" 
d="M416 536l-266 502h283l155 -324l245 324h289l-431 -529l271 -509h-282l-161 331l-282 -331h-280z" />
    <glyph glyph-name="uni0447" unicode="&#x447;" horiz-adv-x="1192" 
d="M172 736l51 302h264l-48 -286q-3 -19 -3 -38q0 -64 40 -98.5t115 -34.5q94 0 154 46t79 131l48 280h264l-176 -1038h-265l71 418q-104 -93 -265 -93q-104 0 -180 39.5t-116.5 112.5t-40.5 171q0 38 8 88z" />
    <glyph glyph-name="uni0446" unicode="&#x446;" horiz-adv-x="1296" 
d="M227 1038h263l-135 -792h369l135 792h263l-135 -792h185l-89 -506h-263l46 260h-816z" />
    <glyph glyph-name="uni0448" unicode="&#x448;" horiz-adv-x="1616" 
d="M57 0l177 1038h263l-135 -790h269l135 790h263l-135 -790h269l135 790h263l-177 -1038h-1327z" />
    <glyph glyph-name="uni0449" unicode="&#x449;" horiz-adv-x="1722" 
d="M227 1038h263l-135 -792h267l134 792h264l-135 -792h267l135 792h262l-135 -792h184l-89 -506h-263l46 260h-1242z" />
    <glyph glyph-name="uni045F" unicode="&#x45f;" horiz-adv-x="1190" 
d="M234 1038h264l-135 -790h373l135 790h264l-177 -1038h-308l-45 -260h-264l45 260h-329z" />
    <glyph glyph-name="uni044C" unicode="&#x44c;" horiz-adv-x="1124" 
d="M57 0l177 1038h264l-55 -320h246q99 0 173.5 -38.5t115.5 -108.5t41 -162q0 -122 -56 -215t-159 -143.5t-238 -50.5h-509zM602 248q38 0 71.5 18t53 50.5t19.5 73.5q0 103 -103 103h-238l-42 -245h239z" />
    <glyph glyph-name="uni044A" unicode="&#x44a;" horiz-adv-x="1295" 
d="M153 1038h545l-55 -320h215q99 0 173.5 -38.5t115.5 -108.5t41 -162q0 -122 -56 -215t-159 -143.5t-238 -50.5h-477l135 790h-283zM563 248h208q38 0 71.5 18t53 50.5t19.5 73.5q0 103 -103 103h-207z" />
    <glyph glyph-name="uni044B" unicode="&#x44b;" horiz-adv-x="1474" 
d="M233 1038h263l-55 -320h168q99 0 173.5 -38.5t115.5 -108.5t41 -162q0 -122 -56 -215t-159 -143.5t-238 -50.5h-430zM1177 1038h263l-176 -1038h-263zM361 248h161q38 0 71.5 18t53 50.5t19.5 73.5q0 103 -103 103h-160z" />
    <glyph glyph-name="uni0459" unicode="&#x459;" horiz-adv-x="1691" 
d="M-79 -9l43 248q73 0 122.5 49.5t64.5 138.5l104 611h816l-54 -320h236q99 0 173.5 -38.5t115.5 -108.5t41 -162q0 -122 -56 -215t-159 -143.5t-238 -50.5h-500l135 790h-303l-67 -391q-33 -194 -151 -301t-300 -107h-23zM937 248h229q38 0 71.5 18t53 50.5t19.5 73.5
q0 103 -103 103h-228z" />
    <glyph glyph-name="uni045A" unicode="&#x45a;" horiz-adv-x="1731" 
d="M-11 0l177 1038h264l-70 -409h403l70 409h264l-55 -320h252q99 0 173.5 -38.5t115.5 -108.5t41 -162q0 -122 -56 -215t-159 -143.5t-238 -50.5h-515l67 391h-403l-67 -391h-264zM962 248h245q38 0 71.5 18t53 50.5t19.5 73.5q0 103 -103 103h-244z" />
    <glyph glyph-name="uni0455" unicode="&#x455;" horiz-adv-x="1102" 
d="M188 330q72 -52 154.5 -80t161.5 -28q113 0 178.5 28t65.5 84q0 31 -24.5 47.5t-62.5 23.5t-108 13q-48 4 -69 7q-111 14 -177 32t-112.5 68.5t-46.5 148.5q0 117 60 202.5t173 131t267 45.5q124 0 235.5 -34.5t197.5 -99.5l-190 -189q-66 42 -141 64t-147 22
q-99 0 -154.5 -25.5t-55.5 -71.5q0 -27 27.5 -41t71 -20.5t137.5 -15.5q117 -12 188 -30t123 -72.5t52 -160.5q0 -122 -63.5 -211t-182.5 -136t-283 -47q-144 0 -266 38t-203 109z" />
    <glyph glyph-name="uni0454" unicode="&#x454;" horiz-adv-x="1060" 
d="M105 459l21 125q25 150 100.5 255t194.5 159.5t272 54.5q132 0 232 -43.5t149 -122.5l-202 -165q-35 39 -89 61t-116 22q-102 0 -170.5 -45.5t-95.5 -130.5h418l-38 -220h-417q0 -85 53 -130.5t154 -45.5q63 0 124 23.5t110 66.5l143 -175q-77 -78 -191.5 -120.5
t-245.5 -42.5q-128 0 -221.5 46t-143 131t-49.5 200q0 52 8 97z" />
    <glyph glyph-name="uni044D" unicode="&#x44d;" horiz-adv-x="1060" 
d="M-13 148l201 163q35 -42 87.5 -65t116.5 -23q100 0 170 47.5t98 138.5h-398l38 220h397v3q0 84 -53 128.5t-154 44.5q-62 0 -123 -21.5t-109 -59.5l-145 163q76 79 190.5 122.5t247.5 43.5q128 0 221 -46t143 -130.5t50 -198.5q0 -41 -8 -94l-21 -125
q-25 -149 -99.5 -255.5t-193.5 -162.5t-274 -56q-132 0 -232 42.5t-150 120.5z" />
    <glyph glyph-name="uni0456" unicode="&#x456;" horiz-adv-x="528" 
d="M526 1196h-282l45 258h282zM319 0h-280l177 1038h282z" />
    <glyph glyph-name="uni0457" unicode="&#x457;" horiz-adv-x="528" 
d="M319 0h-280l177 1038h282zM519 1472h262l-44 -258h-262zM81 1472h262l-45 -258h-262z" />
    <glyph glyph-name="uni0458" unicode="&#x458;" horiz-adv-x="589" 
d="M-155 -422l43 248h93q41 0 67.5 20.5t32.5 57.5l192 1134h269l-202 -1185q-22 -131 -109 -203t-223 -72h-163zM342 1454h272l-44 -258h-272z" />
    <glyph glyph-name="uni045B" unicode="&#x45b;" horiz-adv-x="1204" 
d="M92 1267h208l32 187h263l-32 -187h396l-38 -220h-395l-47 -270q124 156 300 156q92 0 159.5 -39t103 -111t35.5 -170q0 -49 -9 -103l-87 -510h-263l87 509q4 28 4 39q0 66 -42.5 101.5t-121.5 35.5q-86 0 -141.5 -44.5t-68.5 -125.5v2l-88 -517h-263l179 1047h-209z" />
    <glyph glyph-name="uni044E" unicode="&#x44e;" horiz-adv-x="1624" 
d="M0 0l177 1038h282l-71 -409h220q42 203 181.5 313.5t353.5 110.5q122 0 211.5 -43.5t137 -123.5t47.5 -188q0 -49 -8 -92l-30 -172q-25 -142 -96.5 -242.5t-184 -153.5t-258.5 -53q-122 0 -211 44t-136.5 125t-47.5 190q0 34 4 65h-220l-71 -409h-280zM879 273
q44 -40 124 -40q96 0 157.5 52.5t77.5 148.5l29 172q4 21 4 46q0 74 -44.5 113.5t-126.5 39.5q-94 0 -155 -52.5t-77 -146.5l-29 -172q-4 -23 -4 -48q0 -73 44 -113z" />
    <glyph glyph-name="uni044F" unicode="&#x44f;" horiz-adv-x="1140" 
d="M285 352q-80 36 -124.5 108t-44.5 169q0 122 56 215t158 143.5t236 50.5h519l-177 -1038h-264l55 320h-138l-263 -320h-311zM418 572q23 -27 77 -27h242l42 245h-243q-64 0 -103 -38.5t-39 -103.5q0 -49 24 -76z" />
    <glyph glyph-name="uni0452" unicode="&#x452;" horiz-adv-x="1204" 
d="M92 1267h208l32 187h259l-32 -187h400l-38 -220h-399l-46 -270q63 77 137.5 117t165.5 40q92 0 159.5 -39t103 -111t35.5 -170q0 -49 -9 -103l-103 -605q-27 -157 -110 -242.5t-206 -85.5h-183l42 248h121q30 0 50.5 21t26.5 57l103 606q3 20 3 38q0 66 -43.5 101.5
t-123.5 35.5q-87 0 -143 -43.5t-70 -122.5l-89 -519h-259l179 1047h-209z" />
    <glyph glyph-name="uni0461" unicode="&#x461;" horiz-adv-x="1554" 
d="M113 1038h253l144 -673l239 332l-63 341h263l105 -663q93 136 169 317.5t104 345.5h251q-29 -168 -111.5 -367t-192.5 -379t-216 -292h-179l-78 418l-292 -418h-180z" />
    <glyph glyph-name="uni0463" unicode="&#x463;" horiz-adv-x="1149" 
d="M31 910l39 228h203l35 202h262l-34 -202h357l-40 -228h-356l-33 -192h249q99 0 173.5 -38.5t115.5 -108.5t41 -162q0 -122 -56 -215t-159 -143.5t-238 -50.5h-511l156 910h-204zM384 248h242q38 0 71.5 18t53 50.5t19.5 73.5q0 103 -103 103h-241z" />
    <glyph glyph-name="uni0465" unicode="&#x465;" horiz-adv-x="1534" 
d="M194 1038h282l-71 -409h204q47 204 193 314t365 110q132 0 232 -43.5t149 -122.5l-202 -165q-35 39 -89 61t-116 22q-102 0 -170.5 -45.5t-95.5 -130.5h418l-38 -220h-417q0 -85 53 -130.5t154 -45.5q63 0 124 23.5t110 66.5l143 -175q-77 -78 -191.5 -120.5
t-245.5 -42.5q-128 0 -221.5 46t-143 131t-49.5 200q0 15 2 47h-205l-71 -409h-280z" />
    <glyph glyph-name="uni0467" unicode="&#x467;" horiz-adv-x="1126" 
d="M562 1044h182l270 -1044h-260l-48 208h-95l-36 -208h-199l35 208h-80l-118 -208h-276zM664 387l-67 289l-164 -289h231z" />
    <glyph glyph-name="uni0469" unicode="&#x469;" horiz-adv-x="1580" 
d="M201 1038h282l-112 -651h252l393 657h182l270 -1044h-260l-48 208h-95l-36 -208h-199l35 208h-80l-118 -208h-276l125 208h-176l-36 -208h-280zM887 387h231l-67 289z" />
    <glyph glyph-name="uni046B" unicode="&#x46b;" horiz-adv-x="1244" 
d="M-91 0l115 268q102 236 303 302l-251 468h1271l-411 -470q178 -69 200 -300l25 -268h-255l-16 242q-9 133 -148 133h-11l-64 -375h-263l64 375h-14q-127 0 -182 -133l-99 -242h-264zM464 820l160 -289l254 289h-414z" />
    <glyph glyph-name="uni046D" unicode="&#x46d;" horiz-adv-x="1708" 
d="M205 1038h282l-76 -441h369l-236 441h1271l-411 -470q178 -69 200 -300l25 -268h-255l-16 242q-9 133 -148 133h-11l-64 -375h-263l64 375h-14q-127 0 -182 -133l-99 -242h-264l115 268q26 60 57 107h-176l-65 -375h-280zM932 820l160 -289l254 289h-414z" />
    <glyph glyph-name="uni046F" unicode="&#x46f;" horiz-adv-x="967" 
d="M-33 -172q0 118 49.5 204.5t141.5 133t217 46.5h39q77 0 122 30t45 85v1q0 43 -23 66.5t-78 23.5h-87l41 241h87q47 0 77.5 25t30.5 68q0 42 -21.5 61.5t-75.5 19.5q-57 0 -99.5 -30t-65.5 -87l-1 -1h-257l1 1q48 167 165 252t295 85q339 0 339 -241q0 -54 -27 -105.5
t-71.5 -90.5t-95.5 -60q80 -30 104.5 -86t24.5 -123v-1q0 -116 -61 -197.5t-169.5 -122.5t-248.5 -41h-16q-55 0 -85.5 -23.5t-30.5 -64.5q0 -32 25 -51t65 -19h343l-43 -249h-357q-89 0 -157 31t-105 87.5t-37 131.5zM452 1636l180 -190l243 190l137 -135l-417 -327
l-306 327z" />
    <glyph glyph-name="uni0471" unicode="&#x471;" horiz-adv-x="1492" 
d="M141 433q0 63 12 133l80 472h264l-82 -479q-7 -41 -7 -81q0 -92 42 -153t122 -87l188 1101h263l-188 -1101q108 31 176.5 113t90.5 208l81 479h263l-80 -472q-41 -242 -189.5 -390.5t-383.5 -181.5l-50 -295h-263l50 295q-189 29 -289 141t-100 298z" />
    <glyph glyph-name="uni0473" unicode="&#x473;" horiz-adv-x="1156" 
d="M89 437l29 169q24 141 95.5 241.5t184.5 153t259 52.5q122 0 211.5 -43.5t137 -123.5t47.5 -188q0 -49 -8 -92l-30 -172q-25 -142 -96.5 -242.5t-184 -153.5t-258.5 -53q-122 0 -211 44t-136.5 125t-47.5 190q0 49 8 93zM783 624q2 20 2 29q0 73 -44.5 112.5t-126.5 39.5
q-89 0 -149 -47.5t-79 -133.5h397zM393 273q44 -40 124 -40q90 0 150.5 47t80.5 134h-398q-1 -9 -1 -27q0 -74 44 -114z" />
    <glyph glyph-name="uni0475" unicode="&#x475;" horiz-adv-x="1081" 
d="M133 1038h259l109 -670l183 408q64 142 143 209.5t192 67.5h109l-43 -248h-44q-39 0 -71 -15t-57 -64l-379 -726h-188z" />
    <glyph glyph-name="uni0477" unicode="&#x477;" horiz-adv-x="1081" 
d="M133 1038h259l109 -670l183 408q64 142 143 209.5t192 67.5h109l-43 -248h-44q-39 0 -71 -15t-57 -64l-379 -726h-188zM428 1696l211 -393l-208 -129l-225 389zM884 1696l210 -393l-208 -129l-224 389z" />
    <glyph glyph-name="uni0479" unicode="&#x479;" horiz-adv-x="2045" 
d="M101 437l29 169q24 141 95.5 241.5t184.5 153t259 52.5q122 0 211.5 -43.5t137 -123.5t47.5 -188q0 -49 -8 -92l-30 -172q-25 -142 -96.5 -242.5t-184 -153.5t-258.5 -53q-122 0 -211 44t-136.5 125t-47.5 190q0 49 8 93zM405 273q44 -40 124 -40q96 0 157.5 52.5
t77.5 148.5l29 172q4 21 4 46q0 74 -44.5 113.5t-126.5 39.5q-94 0 -155 -52.5t-77 -146.5l-29 -172q-4 -23 -4 -48q0 -73 44 -113zM1115 -183h55q48 0 85 18.5t63 68.5l84 159l-223 975h252l145 -644l340 644h253l-694 -1281q-35 -65 -77.5 -106t-107.5 -62.5t-161 -21.5
h-57z" />
    <glyph glyph-name="uni0493" unicode="&#x493;" horiz-adv-x="1005" 
d="M12 331l38 220h192l83 487h736l-43 -248h-471l-41 -239h287l-38 -220h-287l-56 -331h-264l56 331h-192z" />
    <glyph glyph-name="uni0495" unicode="&#x495;" horiz-adv-x="1170" 
d="M49 0l177 1038h736l-43 -248h-471l-47 -271q56 59 133 90t170 31q103 0 177.5 -48.5t114 -138.5t39.5 -213q0 -64 -10 -130l-2 -13q-39 -253 -189 -386t-386 -133h-35l42 248h22q116 0 186 69t84 209l1 10q4 50 4 69q0 105 -42 156.5t-132 51.5q-85 0 -142.5 -34.5
t-78.5 -98.5l-44 -258h-264z" />
    <glyph glyph-name="uni0497" unicode="&#x497;" horiz-adv-x="1544" 
d="M-103 0l463 542l-223 496h278l172 -392h56l67 392h263l-67 -392h52l305 392h283l-393 -495l157 -305h244l-86 -499h-283l44 261h-88l-198 400h-79l-68 -400h-263l68 400h-63l-334 -400h-307z" />
    <glyph glyph-name="uni0499" unicode="&#x499;" horiz-adv-x="1014" 
d="M46 323h256q2 -54 42.5 -83.5t113.5 -29.5q81 0 131.5 28.5t50.5 78.5v1q0 46 -28 69t-92 23h-134l37 217h135q53 0 88.5 33t35.5 90v1q0 42 -28.5 63.5t-94.5 21.5q-67 0 -118.5 -32t-76.5 -89h-255q60 161 188.5 249.5t301.5 88.5q167 0 259 -62t92 -174v-1
q0 -92 -57 -165.5t-161 -114.5q90 -19 124.5 -72t34.5 -134v-1q0 -81 -44 -149.5t-122.5 -116t-178.5 -66.5l-46 -258h-269l46 263q-114 30 -172.5 110t-58.5 196v15z" />
    <glyph glyph-name="uni049B" unicode="&#x49b;" horiz-adv-x="1154" 
d="M57 0l177 1038h264l-67 -393h138l268 393h298l-357 -505l135 -295h254l-86 -499h-283l44 261h-121l-167 395h-166l-67 -395h-264z" />
    <glyph glyph-name="uni049D" unicode="&#x49d;" horiz-adv-x="1094" 
d="M57 0l177 1038h264l-67 -394h38l38 221h132l-37 -216l240 389h293l-337 -513l224 -525h-296l-154 395h-13l-39 -226h-132l39 226h-39l-67 -395h-264z" />
    <glyph glyph-name="uni049F" unicode="&#x49f;" horiz-adv-x="1147" 
d="M63 1100l40 229h235l21 125h267l-22 -125h265l-39 -229h-265l-78 -455h138l268 393h298l-357 -505l244 -533h-301l-167 395h-166l-67 -395h-264l174 1019l13 81h-237z" />
    <glyph glyph-name="uni04A1" unicode="&#x4a1;" horiz-adv-x="1360" 
d="M110 790l43 248h611l-67 -393h138l268 393h298l-357 -505l244 -533h-301l-167 395h-166l-67 -395h-264l135 790h-348z" />
    <glyph glyph-name="uni04A3" unicode="&#x4a3;" horiz-adv-x="1220" 
d="M234 1038h264l-70 -409h403l70 409h264l-136 -800h195l-86 -499h-283l44 261h-175l67 391h-403l-67 -391h-264z" />
    <glyph glyph-name="uni04A5" unicode="&#x4a5;" horiz-adv-x="1511" 
d="M-18 0l177 1038h264l-70 -409h403l70 409h739l-43 -248h-474l-135 -790h-264l67 391h-403l-67 -391h-264z" />
    <glyph glyph-name="uni04A7" unicode="&#x4a7;" horiz-adv-x="1805" 
d="M4 0l177 1038h931l-89 -521q56 60 134.5 91.5t175.5 31.5q105 0 181 -49t116.5 -139.5t40.5 -213.5q0 -64 -10 -128l-2 -13q-41 -260 -181.5 -389.5t-384.5 -129.5h-37l43 248h22q108 0 176.5 73.5t86.5 208.5l2 15q5 34 5 75q0 98 -45 145.5t-138 47.5
q-91 0 -150.5 -36.5t-79.5 -104.5l-43 -250h-264l135 790h-403l-135 -790h-264z" />
    <glyph glyph-name="uni0525" unicode="&#x525;" horiz-adv-x="1220" 
d="M57 0l177 1038h931l-136 -800h195l-86 -499h-283l44 261h-175l135 790h-403l-135 -790h-264z" />
    <glyph glyph-name="uni04A9" unicode="&#x4a9;" horiz-adv-x="1461" 
d="M121 438l36 214q32 191 162.5 296t335.5 105l-44 -255q-77 0 -125.5 -36.5t-59.5 -102.5l-38 -228q-3 -21 -3 -39q0 -69 45 -106.5t131 -37.5q33 0 50 1q-41 88 -41 203q0 63 12 133l11 65q34 199 148 301t300 102q159 0 241 -74.5t82 -220.5q0 -52 -10 -108l-11 -65
q-36 -212 -168 -350q36 -2 57 -2h77l-43 -248h-63q-221 0 -367 60q-141 -39 -318 -45q-125 0 -216 43t-139.5 123t-48.5 187q0 43 7 85zM909 326q142 86 171 259l11 65q4 23 4 46q0 53 -25.5 81t-72.5 28q-56 0 -92 -39.5t-49 -115.5l-11 -65q-7 -45 -7 -75q0 -116 71 -184z
" />
    <glyph glyph-name="uni04AB" unicode="&#x4ab;" horiz-adv-x="1060" 
d="M97 362q0 52 8 97l21 125q25 150 100.5 255t194.5 159.5t272 54.5q132 0 232 -43.5t149 -122.5l-202 -165q-35 39 -89 61t-116 22q-115 0 -187 -57.5t-90 -163.5l-21 -125q-5 -30 -5 -51q0 -84 53 -129.5t154 -45.5q63 0 124 23.5t110 66.5l143 -175q-56 -57 -132.5 -95
t-166.5 -55l-44 -259h-270l45 260q-135 31 -209 126.5t-74 236.5z" />
    <glyph glyph-name="uni04AD" unicode="&#x4ad;" horiz-adv-x="1066" 
d="M141 792l42 246h877l-42 -246h-306l-94 -554h195l-86 -499h-283l44 261h-174l134 792h-307z" />
    <glyph glyph-name="uni04AF" unicode="&#x4af;" horiz-adv-x="1064" 
d="M384 1038l126 -670l353 670h265l-524 -930l-91 -530h-270l90 523l-210 937h261z" />
    <glyph glyph-name="uni04B1" unicode="&#x4b1;" horiz-adv-x="1064" 
d="M44 -238l41 238h220l18 101l-210 937h261l126 -670l353 670h265l-524 -930l-19 -108h234l-41 -238h-233l-32 -184h-270l32 184h-221z" />
    <glyph glyph-name="uni04B3" unicode="&#x4b3;" horiz-adv-x="1099" 
d="M-43 0l459 536l-266 502h283l155 -324l245 324h289l-431 -529l148 -278l1 7h284l-86 -499h-283l44 261h-119l-161 331l-282 -331h-280z" />
    <glyph glyph-name="uni04B5" unicode="&#x4b5;" horiz-adv-x="1403" 
d="M142 800l41 238h629l-41 -238h-179l-94 -554h336l134 792h262l-134 -792h183l-89 -506h-263l46 260h-779l136 800h-188z" />
    <glyph glyph-name="uni04B7" unicode="&#x4b7;" horiz-adv-x="1192" 
d="M164 648q0 38 8 88l51 302h264l-48 -286q-3 -19 -3 -38q0 -64 40 -98.5t115 -34.5q94 0 154 46t79 131l48 280h264l-136 -800h196l-86 -499h-283l44 261h-176l71 418q-104 -93 -265 -93q-104 0 -180 39.5t-116.5 112.5t-40.5 171z" />
    <glyph glyph-name="uni04B9" unicode="&#x4b9;" horiz-adv-x="1192" 
d="M164 648q0 38 8 88l51 302h264l-48 -286q-3 -19 -3 -38q0 -51 25.5 -84t74.5 -43l43 249h141l-41 -243q57 18 94.5 60t50.5 105l48 280h264l-176 -1038h-265l71 418q-57 -51 -130 -74l-35 -204h-141l32 185q-102 2 -175.5 42t-113 112t-39.5 169z" />
    <glyph glyph-name="uni04BB" unicode="&#x4bb;" horiz-adv-x="1184" 
d="M57 0l248 1454h264l-95 -557q126 156 302 156q94 0 162 -39t104 -111.5t36 -170.5q0 -48 -9 -102l-107 -630h-264l107 629q3 21 3 39q0 66 -43 101.5t-123 35.5q-84 0 -138.5 -41t-71.5 -116l-111 -648h-264z" />
    <glyph glyph-name="uni04BD" unicode="&#x4bd;" horiz-adv-x="1344" 
d="M56 643l17 97h220l-13 -76q-2 -12 -2 -17q0 -51 68 -53q30 145 104.5 248t188 157t258.5 54q176 0 269.5 -105.5t93.5 -301.5q0 -76 -15 -165l-11 -67h-675q-1 -9 -1 -18q0 -81 52.5 -131.5t163.5 -50.5q72 0 138 21t114 59l102 -174q-63 -64 -166 -99.5t-228 -35.5
q-130 0 -225 45.5t-145.5 129.5t-50.5 197q0 28 3 58h-35q-114 0 -172 43.5t-58 129.5q0 22 5 55zM588 594h434l1 18q1 10 1 20q0 84 -40 135t-127 51q-108 0 -177.5 -59t-91.5 -165z" />
    <glyph glyph-name="uni04BF" unicode="&#x4bf;" horiz-adv-x="1344" 
d="M51 588q0 22 5 55l17 97h220l-13 -76q-2 -12 -2 -17q0 -51 68 -53q30 145 104.5 248t188 157t258.5 54q176 0 269.5 -105.5t93.5 -301.5q0 -76 -15 -165l-11 -67h-675q-1 -9 -1 -18q0 -81 52.5 -131.5t163.5 -50.5q72 0 138 21t114 59l102 -174q-49 -51 -124.5 -84
t-167.5 -45l-44 -252h-266l47 267q-124 37 -192 128t-68 223q0 28 3 58h-35q-114 0 -172 43.5t-58 129.5zM588 594h434l1 18q1 10 1 20q0 84 -40 135t-127 51q-108 0 -177.5 -59t-91.5 -165z" />
    <glyph glyph-name="uni04CF" unicode="&#x4cf;" horiz-adv-x="569" 
d="M306 1454h275l-248 -1454h-275z" />
    <glyph glyph-name="uni04C2" unicode="&#x4c2;" horiz-adv-x="1504" 
d="M-103 0l463 542l-223 496h278l172 -392h56l67 392h263l-67 -392h52l305 392h283l-393 -495l279 -543h-291l-198 400h-79l-68 -400h-263l68 400h-63l-334 -400h-307zM586 1482q0 50 11 118h212q-7 -41 -7 -76q0 -122 92 -122h18q59 0 97.5 49.5t54.5 148.5h212
q-33 -195 -133 -291.5t-263 -96.5h-18q-276 0 -276 270z" />
    <glyph glyph-name="uni04C4" unicode="&#x4c4;" horiz-adv-x="1192" 
d="M234 1038h264l-67 -392h94l303 392h293l-330 -419q124 -43 192.5 -149.5t68.5 -259.5q0 -41 -4 -77l-2 -18q-19 -173 -95 -293.5t-200 -182t-285 -61.5h-38l43 248h22q120 0 194.5 72t90.5 203l2 17q4 31 4 66q0 108 -53 161t-164 53h-178l-68 -398h-264z" />
    <glyph glyph-name="uni04C6" unicode="&#x4c6;" horiz-adv-x="1311" 
d="M-15 -9l43 248q73 0 122.5 49.5t64.5 138.5l104 611h816l-135 -796h162l-179 -503h-247l96 261h-138l135 790h-303l-67 -391q-33 -194 -151 -301t-300 -107h-23z" />
    <glyph glyph-name="uni04C8" unicode="&#x4c8;" horiz-adv-x="1220" 
d="M57 0l177 1038h264l-70 -408h404l69 408h264l-202 -1185q-22 -131 -105 -203t-211 -72h-187l42 248h115q37 0 60.5 20t30.5 58l83 486h-403l-67 -390h-264z" />
    <glyph glyph-name="uni04CA" unicode="&#x4ca;" horiz-adv-x="1340" 
d="M57 0l177 1038h264l-70 -409h403l70 409h264l-136 -796h162l-178 -503h-247l91 261h-133l67 391h-403l-67 -391h-264z" />
    <glyph glyph-name="uni04CC" unicode="&#x4cc;" horiz-adv-x="1192" 
d="M164 648q0 38 8 88l51 302h264l-48 -286q-3 -19 -3 -38q0 -64 40 -98.5t115 -34.5q94 0 154 46t79 131l48 280h264l-176 -1038h-126l-50 -284h-267l91 522h128l30 180q-104 -93 -265 -93q-104 0 -180 39.5t-116.5 112.5t-40.5 171z" />
    <glyph glyph-name="uni04CE" unicode="&#x4ce;" horiz-adv-x="1456" 
d="M234 1038h229l193 -565l386 565h239l-136 -796h162l-177 -503h-246l94 261h-113l102 603l-274 -401h-156l-139 400l-102 -602h-239z" />
    <glyph glyph-name="uni04D1" unicode="&#x4d1;" horiz-adv-x="1130" 
d="M51 236q0 182 114.5 280t327.5 98h275l7 44q3 17 3 33q0 62 -45 96.5t-131 34.5q-62 0 -126.5 -18.5t-117.5 -52.5l-144 152q75 71 187.5 110.5t240.5 39.5q186 0 286 -79t100 -225q0 -41 -7 -82l-114 -667h-243l16 97q-46 -54 -129.5 -83t-181.5 -29q-152 0 -235 65.5
t-83 185.5zM298 285q0 -46 41 -69t124 -23q116 0 178 24t72 75l21 123h-274q-77 0 -119.5 -34t-42.5 -96zM394 1482q0 50 11 118h212q-7 -41 -7 -76q0 -122 92 -122h18q59 0 97.5 49.5t54.5 148.5h212q-33 -195 -133 -291.5t-263 -96.5h-18q-276 0 -276 270z" />
    <glyph glyph-name="uni04D3" unicode="&#x4d3;" horiz-adv-x="1130" 
d="M51 236q0 182 114.5 280t327.5 98h275l7 44q3 17 3 33q0 62 -45 96.5t-131 34.5q-62 0 -126.5 -18.5t-117.5 -52.5l-144 152q75 71 187.5 110.5t240.5 39.5q186 0 286 -79t100 -225q0 -41 -7 -82l-114 -667h-243l16 97q-46 -54 -129.5 -83t-181.5 -29q-152 0 -235 65.5
t-83 185.5zM298 285q0 -46 41 -69t124 -23q116 0 178 24t72 75l21 123h-274q-77 0 -119.5 -34t-42.5 -96zM811 1472h262l-44 -258h-262zM373 1472h262l-45 -258h-262z" />
    <glyph glyph-name="uni04D5" unicode="&#x4d5;" horiz-adv-x="1748" 
d="M163 506q111 93 320 93h265l6 36q4 23 4 48q0 72 -42.5 111t-121.5 39q-61 0 -123 -21t-115 -60l-144 151q75 71 185.5 110.5t235.5 39.5q119 0 193.5 -47t99.5 -137q66 90 160.5 137t211.5 47q172 0 264 -102.5t92 -295.5q0 -75 -15 -164l-11 -66h-666q-2 -22 -2 -32
q0 -86 57 -132.5t162 -46.5q67 0 131.5 22t105.5 58l105 -172q-52 -62 -156 -99.5t-224 -37.5q-134 0 -220.5 52t-120.5 152q-161 -204 -419 -204q-157 0 -243 66t-86 187q0 175 111 268zM1427 599l1 20q1 10 1 20q0 87 -41.5 139.5t-128.5 52.5q-103 0 -173.5 -61
t-94.5 -171h436zM297 283q0 -94 149 -94q77 0 134.5 31t90 77.5t40.5 93.5h1l6 34h-264q-74 0 -115.5 -37.5t-41.5 -104.5z" />
    <glyph glyph-name="uni04D7" unicode="&#x4d7;" horiz-adv-x="1138" 
d="M95 357q0 50 8 93l20 117q26 154 100.5 263t190.5 166t265 57q176 0 269.5 -105.5t93.5 -301.5q0 -76 -15 -165l-11 -67h-675q-1 -9 -1 -18q0 -81 52.5 -131.5t163.5 -50.5q72 0 138 21t114 59l102 -174q-63 -64 -166 -99.5t-228 -35.5q-130 0 -225 45.5t-145.5 129.5
t-50.5 197zM370 594h434l1 18q1 10 1 20q0 84 -40 135t-127 51q-108 0 -177.5 -59t-91.5 -165zM413 1482q0 50 11 118h212q-7 -41 -7 -76q0 -122 92 -122h18q59 0 97.5 49.5t54.5 148.5h212q-33 -195 -133 -291.5t-263 -96.5h-18q-276 0 -276 270z" />
    <glyph glyph-name="uni04D9" unicode="&#x4d9;" horiz-adv-x="1138" 
d="M123 557l11 67h675q1 9 1 18q0 81 -52.5 131.5t-163.5 50.5q-72 0 -138 -21t-114 -59l-102 174q63 64 166 99.5t228 35.5q130 0 225 -45.5t145.5 -129.5t50.5 -197q0 -50 -8 -93l-20 -117q-26 -154 -100.5 -263t-190.5 -166t-265 -57q-176 0 -269.5 105.5t-93.5 301.5
q0 77 15 165zM382 274q42 -54 129 -54q108 0 177.5 59t91.5 165h-434l-1 -18q-1 -10 -1 -20q0 -84 38 -132z" />
    <glyph glyph-name="uni04DB" unicode="&#x4db;" horiz-adv-x="1138" 
d="M123 557l11 67h675q1 9 1 18q0 81 -52.5 131.5t-163.5 50.5q-72 0 -138 -21t-114 -59l-102 174q63 64 166 99.5t228 35.5q130 0 225 -45.5t145.5 -129.5t50.5 -197q0 -50 -8 -93l-20 -117q-26 -154 -100.5 -263t-190.5 -166t-265 -57q-176 0 -269.5 105.5t-93.5 301.5
q0 77 15 165zM382 274q42 -54 129 -54q108 0 177.5 59t91.5 165h-434l-1 -18q-1 -10 -1 -20q0 -84 38 -132zM824 1472h262l-44 -258h-262zM386 1472h262l-45 -258h-262z" />
    <glyph glyph-name="uni04DD" unicode="&#x4dd;" horiz-adv-x="1504" 
d="M-103 0l463 542l-223 496h278l172 -392h56l67 392h263l-67 -392h52l305 392h283l-393 -495l279 -543h-291l-198 400h-79l-68 -400h-263l68 400h-63l-334 -400h-307zM1003 1472h262l-44 -258h-262zM565 1472h262l-45 -258h-262z" />
    <glyph glyph-name="uni04DF" unicode="&#x4df;" horiz-adv-x="1014" 
d="M46 323h256q2 -54 42.5 -83.5t113.5 -29.5q81 0 131.5 28.5t50.5 78.5v1q0 46 -28 69t-92 23h-134l37 217h135q53 0 88.5 33t35.5 90v1q0 42 -28.5 63.5t-94.5 21.5q-67 0 -118.5 -32t-76.5 -89h-255q60 161 188.5 249.5t301.5 88.5q167 0 259 -62t92 -174v-1
q0 -92 -57 -165.5t-161 -114.5q90 -19 124.5 -72t34.5 -134v-1q0 -97 -63 -175.5t-171 -123.5t-239 -45q-180 0 -276 86.5t-96 238.5v13zM761 1472h262l-44 -258h-262zM323 1472h262l-45 -258h-262z" />
    <glyph glyph-name="uni04E1" unicode="&#x4e1;" horiz-adv-x="948" 
d="M-76 102v1h247l-1 -1q-2 -13 -2 -36q0 -140 159 -140q93 0 149.5 58.5t56.5 169.5v1q0 90 -51 139t-144 49h-123l26 145l305 309h-449l41 241h768l-38 -223l-300 -290q114 -38 174.5 -129.5t60.5 -227.5v-1q0 -143 -68.5 -249t-186.5 -162.5t-263 -56.5q-364 0 -364 335
q0 32 3 68z" />
    <glyph glyph-name="uni04E3" unicode="&#x4e3;" horiz-adv-x="1214" 
d="M234 1038h253l-108 -643l556 643h224l-177 -1037h-254l106 626l-551 -626h-226zM348 1196l45 258h750l-45 -258h-750z" />
    <glyph glyph-name="uni04E5" unicode="&#x4e5;" horiz-adv-x="1214" 
d="M234 1038h253l-108 -643l556 643h224l-177 -1037h-254l106 626l-551 -626h-226zM858 1472h262l-44 -258h-262zM420 1472h262l-45 -258h-262z" />
    <glyph glyph-name="uni04E7" unicode="&#x4e7;" horiz-adv-x="1156" 
d="M101 437l29 169q24 141 95.5 241.5t184.5 153t259 52.5q122 0 211.5 -43.5t137 -123.5t47.5 -188q0 -49 -8 -92l-30 -172q-25 -142 -96.5 -242.5t-184 -153.5t-258.5 -53q-122 0 -211 44t-136.5 125t-47.5 190q0 49 8 93zM405 273q44 -40 124 -40q96 0 157.5 52.5
t77.5 148.5l29 172q4 21 4 46q0 74 -44.5 113.5t-126.5 39.5q-94 0 -155 -52.5t-77 -146.5l-29 -172q-4 -23 -4 -48q0 -73 44 -113zM829 1472h262l-44 -258h-262zM391 1472h262l-45 -258h-262z" />
    <glyph glyph-name="uni04E9" unicode="&#x4e9;" horiz-adv-x="1156" 
d="M89 437l29 169q24 141 95.5 241.5t184.5 153t259 52.5q122 0 211.5 -43.5t137 -123.5t47.5 -188q0 -49 -8 -92l-30 -172q-25 -142 -96.5 -242.5t-184 -153.5t-258.5 -53q-122 0 -211 44t-136.5 125t-47.5 190q0 49 8 93zM783 624q2 20 2 29q0 73 -44.5 112.5t-126.5 39.5
q-89 0 -149 -47.5t-79 -133.5h397zM393 273q44 -40 124 -40q90 0 150.5 47t80.5 134h-398q-1 -9 -1 -27q0 -74 44 -114z" />
    <glyph glyph-name="uni04EB" unicode="&#x4eb;" horiz-adv-x="1156" 
d="M89 437l29 169q24 141 95.5 241.5t184.5 153t259 52.5q122 0 211.5 -43.5t137 -123.5t47.5 -188q0 -49 -8 -92l-30 -172q-25 -142 -96.5 -242.5t-184 -153.5t-258.5 -53q-122 0 -211 44t-136.5 125t-47.5 190q0 49 8 93zM783 624q2 20 2 29q0 73 -44.5 112.5t-126.5 39.5
q-89 0 -149 -47.5t-79 -133.5h397zM393 273q44 -40 124 -40q90 0 150.5 47t80.5 134h-398q-1 -9 -1 -27q0 -74 44 -114zM828 1472h262l-44 -258h-262zM390 1472h262l-45 -258h-262z" />
    <glyph glyph-name="uni04ED" unicode="&#x4ed;" horiz-adv-x="1060" 
d="M-13 148l201 163q35 -42 87.5 -65t116.5 -23q100 0 170 47.5t98 138.5h-398l38 220h397v3q0 84 -53 128.5t-154 44.5q-62 0 -123 -21.5t-109 -59.5l-145 163q76 79 190.5 122.5t247.5 43.5q128 0 221 -46t143 -130.5t50 -198.5q0 -41 -8 -94l-21 -125
q-25 -149 -99.5 -255.5t-193.5 -162.5t-274 -56q-132 0 -232 42.5t-150 120.5zM751 1472h262l-44 -258h-262zM313 1472h262l-45 -258h-262z" />
    <glyph glyph-name="uni04EF" unicode="&#x4ef;" horiz-adv-x="1029" 
d="M59 -183h55q48 0 85 18.5t63 68.5l84 159l-223 975h252l145 -644l340 644h253l-694 -1281q-35 -65 -77.5 -106t-107.5 -62.5t-161 -21.5h-57zM281 1196l45 258h750l-45 -258h-750z" />
    <glyph glyph-name="uni04F1" unicode="&#x4f1;" horiz-adv-x="1029" 
d="M59 -183h55q48 0 85 18.5t63 68.5l84 159l-223 975h252l145 -644l340 644h253l-694 -1281q-35 -65 -77.5 -106t-107.5 -62.5t-161 -21.5h-57zM791 1472h262l-44 -258h-262zM353 1472h262l-45 -258h-262z" />
    <glyph glyph-name="uni04F3" unicode="&#x4f3;" horiz-adv-x="1029" 
d="M59 -183h55q48 0 85 18.5t63 68.5l84 159l-223 975h252l145 -644l340 644h253l-694 -1281q-35 -65 -77.5 -106t-107.5 -62.5t-161 -21.5h-57zM766 1542l-296 -366l-176 116l278 377zM1201 1542l-296 -366l-176 116l278 377z" />
    <glyph glyph-name="uni04F5" unicode="&#x4f5;" horiz-adv-x="1192" 
d="M172 736l51 302h264l-48 -286q-3 -19 -3 -38q0 -64 40 -98.5t115 -34.5q94 0 154 46t79 131l48 280h264l-176 -1038h-265l71 418q-104 -93 -265 -93q-104 0 -180 39.5t-116.5 112.5t-40.5 171q0 38 8 88zM842 1472h262l-44 -258h-262zM404 1472h262l-45 -258h-262z" />
    <glyph glyph-name="uni04F7" unicode="&#x4f7;" horiz-adv-x="915" 
d="M970 1038l-43 -248h-471l-94 -552h195l-86 -499h-283l44 261h-175l177 1038h736z" />
    <glyph glyph-name="uni04F9" unicode="&#x4f9;" horiz-adv-x="1474" 
d="M233 1038h263l-55 -320h168q99 0 173.5 -38.5t115.5 -108.5t41 -162q0 -122 -56 -215t-159 -143.5t-238 -50.5h-430zM1177 1038h263l-176 -1038h-263zM361 248h161q38 0 71.5 18t53 50.5t19.5 73.5q0 103 -103 103h-160zM993 1472h262l-44 -258h-262zM555 1472h262
l-45 -258h-262z" />
    <glyph glyph-name="uni04FB" unicode="&#x4fb;" horiz-adv-x="1005" 
d="M12 331l38 220h192l83 487h736l-43 -248h-471l-41 -239h287l-38 -220h-287l-33 -197h223l-36 -205q-23 -131 -111.5 -203.5t-226.5 -72.5h-180l43 249h112q41 0 67.5 20t33.5 58l3 20h-215l56 331h-192z" />
    <glyph glyph-name="uni04FD" unicode="&#x4fd;" horiz-adv-x="1087" 
d="M-43 0l463 541l-270 497h286l153 -320l243 320h291l-431 -528l186 -349q55 -103 55 -221q0 -176 -93 -269t-270 -93h-44l43 248h17q49 0 75 26.5t26 75.5q0 28 -9 57.5t-26 64.5l-130 281l-283 -331h-282z" />
    <glyph glyph-name="uni04FF" unicode="&#x4ff;" horiz-adv-x="1099" 
d="M308 429h-224l31 180h246l-227 429h283l155 -324l245 324h289l-349 -429h255l-31 -180h-264l229 -429h-282l-161 331l-282 -331h-280z" />
    <glyph glyph-name="uni0481" unicode="&#x481;" horiz-adv-x="1060" 
d="M105 459l21 125q25 148 100.5 253.5t194.5 160.5t272 55q132 0 232 -43.5t149 -122.5l-201 -163q-36 39 -89.5 60t-116.5 21q-114 0 -186.5 -57.5t-90.5 -163.5l-21 -125q-5 -33 -5 -55q0 -88 53 -134.5t151 -46.5h142l-89 -519h-264l49 288q-152 23 -231.5 114
t-79.5 242q0 55 10 111z" />
    <glyph glyph-name="uni048D" unicode="&#x48d;" horiz-adv-x="1145" 
d="M19 839l34 199h204l71 416h264l-71 -416h277l-34 -199h-277l-21 -121h246q99 0 173.5 -38.5t115.5 -108.5t41 -162q0 -122 -56 -215t-159 -143.5t-238 -50.5h-509l143 839h-204zM386 248h239q38 0 71.5 18t53 50.5t19.5 73.5q0 103 -103 103h-238z" />
    <glyph glyph-name="uni048F" unicode="&#x48f;" horiz-adv-x="1154" 
d="M-63 -422l249 1460h264l-23 -136q58 72 133.5 111.5t155.5 39.5q94 0 161.5 -40.5t103.5 -116t36 -177.5q0 -56 -10 -112l-31 -180q-19 -115 -65 -204.5t-114 -146.5l89 -208l-190 -97l-94 219q-38 -5 -71 -5q-89 0 -150 38.5t-86 107.5l-94 -553h-264zM376 258
q40 -35 115 -35h11l-76 179l189 97l71 -165q21 37 31 93l30 179q5 32 5 53q0 75 -41.5 115.5t-119.5 40.5q-84 0 -137.5 -43t-69.5 -123l-46 -266q-2 -18 -2 -27q0 -64 40 -98z" />
    <glyph glyph-name="uni03EE" unicode="&#x3ee;" horiz-adv-x="1037" 
d="M-19 849l29 166q19 110 93.5 171.5t196.5 61.5h161l35 206h275l-35 -206h382l-43 -248h-381l-171 -1000h-275l171 1000h-72q-37 0 -61 -15t-29 -44l-16 -92h-260z" />
    <glyph glyph-name="uni03E4" unicode="&#x3e4;" horiz-adv-x="1279" 
d="M208 1170q67 142 195 216.5t308 74.5h27l-42 -248h-27q-118 0 -182.5 -79.5t-64.5 -224.5q0 -98 49.5 -152t139.5 -54q126 0 205.5 56t100.5 160l91 535h266l-248 -1454h-265l103 609q-59 -76 -145 -115.5t-192 -39.5q-115 0 -202.5 46.5t-135.5 131t-48 195.5
q0 200 67 343z" />
    <glyph glyph-name="uni03EA" unicode="&#x3ea;" horiz-adv-x="1380" 
d="M-63 0l689 860l-137 314q-10 23 -19.5 31t-29.5 8h-134l43 248h173q45 0 71.5 -8t56 -44t63.5 -116l91 -211l170 213q50 63 84.5 96.5t73.5 51.5t91 18h152l-43 -248h-95q-19 0 -31.5 -8t-31.5 -31l-268 -331l362 -843h-1331zM902 227l-173 397l-321 -397h494z" />
    <glyph glyph-name="uni03E8" unicode="&#x3e8;" horiz-adv-x="1261" 
d="M237 763q170 138 459 192q97 19 150.5 63t53.5 110v1q0 45 -38 69.5t-108 24.5q-157 0 -332 -104l-79 208q226 142 454 142q179 0 276.5 -88t97.5 -248v-1q0 -107 -60.5 -193.5t-169.5 -145t-253 -84.5q-341 -65 -341 -284v-1q0 -92 75.5 -142.5t212.5 -50.5
q124 0 234 35.5t214 107.5l93 -209q-130 -92 -273 -136t-310 -44q-166 0 -284 49.5t-180 145t-62 229.5v2q0 213 170 352z" />
    <glyph glyph-name="uni03E6" unicode="&#x3e6;" horiz-adv-x="1304" 
d="M5 -422q58 341 400 341h270q55 0 89 13.5t54.5 47t30.5 94.5l53 312q4 20 4 44q0 74 -49 114.5t-142 40.5h-293l-100 -585h-265l247 1454h266l-106 -621h368q108 0 186.5 -40.5t120 -115t41.5 -175.5q0 -49 -8 -92l-57 -334q-31 -186 -131.5 -295.5t-318.5 -109.5h-268
q-56 -1 -88.5 -24.5t-40.5 -68.5h-263z" />
    <glyph glyph-name="uni03E2" unicode="&#x3e2;" horiz-adv-x="2020" 
d="M91 -422q57 327 342 327h900q54 0 88 12.5t56.5 45.5t34.5 93q-98 -71 -237 -71q-119 0 -201 57.5t-116 161.5q-69 -107 -176 -163t-243 -56q-122 0 -211 45.5t-136 129t-47 196.5q0 48 9 100l170 998h265l-168 -990q-5 -33 -5 -56q0 -83 47 -128t135 -45q111 0 182 60
t90 169l168 990h263l-168 -990q-5 -32 -5 -53q0 -85 53 -130.5t151 -45.5q100 0 165 60t84 169l169 990h265l-235 -1378q-21 -123 -67.5 -214.5t-143 -148.5t-253.5 -57h-859q-97 -3 -110 -78h-256z" />
    <glyph glyph-name="uni03EC" unicode="&#x3ec;" horiz-adv-x="1416" 
d="M131 497l81 474q83 483 561 483h229q68 0 107 24t47 69h250q-55 -321 -401 -321h-248q-247 0 -287 -235l-14 -82q62 111 171 167.5t264 56.5q130 0 224.5 -48.5t144.5 -137.5t50 -210q0 -55 -10 -111l-23 -132q-28 -161 -115 -275t-225.5 -174t-319.5 -60
q-239 0 -367.5 104.5t-128.5 296.5q0 55 10 111zM392 442q0 -101 69 -155t198 -54q148 0 240.5 68.5t113.5 192.5l22 132q4 24 4 51q0 100 -70 154t-200 54q-146 0 -238.5 -68t-112.5 -191l-22 -132q-4 -24 -4 -52z" />
    <glyph glyph-name="uni037F" unicode="&#x37f;" horiz-adv-x="1055" 
d="M200 332q27 -46 74 -71.5t107 -25.5q91 0 151 59.5t77 167.5l168 992h273l-169 -993q-26 -151 -100.5 -258t-190 -162.5t-264.5 -55.5q-131 0 -228 51t-141 144z" />
    <glyph glyph-name="Alpha" unicode="&#x391;" horiz-adv-x="1346" 
d="M745 1454h176l313 -1454h-274l-48 253h-558l-133 -253h-284zM866 501l-101 533l-280 -533h381z" />
    <glyph glyph-name="Beta" unicode="&#x392;" horiz-adv-x="1342" 
d="M325 1454h599q199 0 298 -75.5t99 -238.5q0 -96 -49.5 -180.5t-133 -142t-181.5 -77.5q141 -16 201 -88t60 -193v-3q0 -132 -71 -236t-191.5 -162t-261.5 -58h-617zM383 247h313q74 0 131 27t88.5 78t31.5 120v3q0 75 -38 111.5t-136 36.5h-326zM489 869h327q97 0 158 52
t61 143q0 73 -38 108t-132 35h-318z" />
    <glyph glyph-name="Gamma" unicode="&#x393;" horiz-adv-x="1035" 
d="M1191 1454l-43 -248h-600l-206 -1206h-265l248 1454h866z" />
    <glyph glyph-name="uni0394" unicode="&#x394;" horiz-adv-x="1346" 
d="M745 1454h176l313 -1454h-1297zM770 1034l-414 -786h562z" />
    <glyph glyph-name="Epsilon" unicode="&#x395;" horiz-adv-x="1244" 
d="M1310 1454l-43 -248h-719l-62 -359h608l-43 -250h-607l-60 -349h721l-43 -248h-985l248 1454h985z" />
    <glyph glyph-name="Zeta" unicode="&#x396;" horiz-adv-x="1134" 
d="M283 1454h917l-40 -230l-784 -976h639l-43 -248h-955l40 230l784 976h-601z" />
    <glyph glyph-name="Eta" unicode="&#x397;" horiz-adv-x="1410" 
d="M77 0l248 1454h265l-104 -610h550l104 610h266l-248 -1454h-265l101 596h-550l-102 -596h-265z" />
    <glyph glyph-name="Theta" unicode="&#x398;" horiz-adv-x="1342" 
d="M135 521l70 412q27 159 114 280.5t220 188.5t294 67q140 0 242.5 -52t157.5 -147.5t55 -224.5q0 -56 -10 -112l-70 -412q-27 -160 -114.5 -281.5t-220.5 -188t-293 -66.5q-140 0 -242.5 52t-157.5 147.5t-55 224.5q0 56 10 112zM462 301q60 -58 163 -58q78 0 143 33.5
t108.5 95t57.5 142.5l72 426q5 33 5 56q0 100 -60 157.5t-163 57.5q-78 0 -143 -33.5t-108 -95t-57 -142.5l-73 -426q-5 -33 -5 -56q0 -99 60 -157zM593 847h268l-42 -250h-269z" />
    <glyph glyph-name="Iota" unicode="&#x399;" horiz-adv-x="569" 
d="M306 1454h275l-248 -1454h-275z" />
    <glyph glyph-name="Kappa" unicode="&#x39a;" horiz-adv-x="1334" 
d="M77 0l248 1454h265l-122 -716l634 716h326l-552 -593l366 -861h-290l-273 649l-277 -299l-60 -350h-265z" />
    <glyph glyph-name="Lambda" unicode="&#x39b;" horiz-adv-x="1346" 
d="M745 1454h176l313 -1454h-269l-195 1034l-544 -1034h-289z" />
    <glyph glyph-name="Mu" unicode="&#x39c;" horiz-adv-x="1616" 
d="M325 1454h316l157 -973l487 973h327l-248 -1454h-245l172 1008l-432 -836h-219l-150 818l-169 -990h-244z" />
    <glyph glyph-name="Nu" unicode="&#x39d;" horiz-adv-x="1454" 
d="M324 1454h300l389 -1067l182 1067h254l-247 -1453h-302l-391 1048l-177 -1048h-255z" />
    <glyph glyph-name="Xi" unicode="&#x39e;" horiz-adv-x="1390" 
d="M1353 1206h-1081l43 248h1081zM1157 597h-897l43 250h897zM1148 0h-1081l43 248h1081z" />
    <glyph glyph-name="Omicron" unicode="&#x39f;" horiz-adv-x="1342" 
d="M125 409q0 56 10 112l70 412q27 159 114 280.5t220 188.5t294 67q140 0 242.5 -52t157.5 -147.5t55 -224.5q0 -56 -10 -112l-70 -412q-27 -160 -114.5 -281.5t-220.5 -188t-293 -66.5q-140 0 -242.5 52t-157.5 147.5t-55 224.5zM462 301q60 -58 163 -58q78 0 143 33.5
t108.5 95t57.5 142.5l72 426q5 33 5 56q0 100 -60 157.5t-163 57.5q-78 0 -143 -33.5t-108 -95t-57 -142.5l-73 -426q-5 -33 -5 -56q0 -99 60 -157z" />
    <glyph glyph-name="Pi" unicode="&#x3a0;" horiz-adv-x="1410" 
d="M77 0l248 1454h1081l-248 -1454h-265l205 1206h-550l-206 -1206h-265z" />
    <glyph glyph-name="Rho" unicode="&#x3a1;" horiz-adv-x="1295" 
d="M325 1454h589q118 0 208 -46.5t139.5 -132t49.5 -197.5q0 -153 -68 -269.5t-192.5 -180.5t-287.5 -64h-325l-96 -564h-265zM812 812q64 0 113 28t75.5 79.5t26.5 118.5q0 76 -41 122t-108 46h-330l-68 -394h332z" />
    <glyph glyph-name="Sigma" unicode="&#x3a3;" horiz-adv-x="956" 
d="M205 1454h867l-43 -248h-550l292 -479l-434 -479h530l-43 -248h-867l40 230l463 497l-295 497z" />
    <glyph glyph-name="Tau" unicode="&#x3a4;" horiz-adv-x="1006" 
d="M124 1454h1077l-43 -248h-405l-205 -1206h-266l205 1206h-406z" />
    <glyph glyph-name="Upsilon" unicode="&#x3a5;" horiz-adv-x="1050" 
d="M384 1454l188 -632l403 632h280l-589 -882l-96 -572h-267l98 573l-287 881h270z" />
    <glyph glyph-name="Phi" unicode="&#x3a6;" horiz-adv-x="1642" 
d="M111 732l7 40q44 251 227.5 397.5t481.5 173.5l27 161h270l-28 -162q163 -18 281 -80.5t180.5 -162.5t62.5 -228q0 -48 -9 -99l-7 -40q-44 -251 -227.5 -397.5t-481.5 -173.5l-27 -161h-270l28 162q-163 18 -281 80.5t-180.5 162.5t-62.5 228q0 48 9 99zM352 667
q0 -115 80.5 -185.5t231.5 -91.5l124 724q-180 -23 -289 -110.5t-134 -231.5l-7 -40q-6 -34 -6 -65zM1223 501q109 87 134 231l7 40q6 35 6 65q0 115 -80.5 185.5t-231.5 90.5l-124 -723q180 24 289 111z" />
    <glyph glyph-name="Chi" unicode="&#x3a7;" horiz-adv-x="1182" 
d="M488 743l-311 711h273l211 -485l371 485h284l-550 -716l324 -738h-272l-224 514l-395 -514h-282z" />
    <glyph glyph-name="Psi" unicode="&#x3a8;" horiz-adv-x="1482" 
d="M213 917l91 537h265l-92 -544q-6 -39 -6 -75q0 -88 39 -147t113 -85l145 851h265l-145 -851q102 32 167 110.5t85 196.5l92 544h265l-91 -537q-41 -240 -186 -388.5t-375 -182.5l-59 -346h-266l59 347q-179 33 -278 151.5t-99 299.5q0 53 11 119z" />
    <glyph glyph-name="uni03A9" unicode="&#x3a9;" horiz-adv-x="1342" 
d="M47 0l43 248h184q-64 45 -98 114t-34 155q0 40 7 79l57 337q27 160 114.5 281.5t220.5 188t293 66.5q141 0 243.5 -51.5t157 -147.5t54.5 -225q0 -56 -10 -112l-57 -337q-19 -114 -82 -203.5t-161 -144.5h184l-43 -248h-480l43 249q64 0 118.5 33t91 93t49.5 139l72 426
q5 33 5 57q0 102 -61.5 162t-167.5 60q-79 0 -146.5 -34.5t-112 -98t-58.5 -146.5l-72 -426q-6 -34 -6 -65q0 -93 46.5 -146.5t128.5 -53.5v-1l-43 -248h-480z" />
    <glyph glyph-name="Alphatonos" unicode="&#x386;" horiz-adv-x="1404" 
d="M826 1454h176l313 -1454h-274l-48 253h-558l-133 -253h-284zM947 501l-101 533l-280 -533h381zM564 1485l-233 -443l-189 73l210 454z" />
    <glyph glyph-name="Epsilontonos" unicode="&#x388;" horiz-adv-x="1432" 
d="M1527 1454l-43 -248h-719l-62 -359h608l-43 -250h-607l-60 -349h721l-43 -248h-985l248 1454h985zM484 1485l-233 -443l-189 73l210 454z" />
    <glyph glyph-name="Etatonos" unicode="&#x389;" horiz-adv-x="1608" 
d="M303 0l248 1454h265l-104 -610h550l104 610h266l-248 -1454h-265l101 596h-550l-102 -596h-265zM484 1485l-233 -443l-189 73l210 454z" />
    <glyph glyph-name="Iotatonos" unicode="&#x38a;" horiz-adv-x="762" 
d="M520 1454h275l-248 -1454h-275zM484 1485l-233 -443l-189 73l210 454z" />
    <glyph glyph-name="Omicrontonos" unicode="&#x38c;" horiz-adv-x="1518" 
d="M329 409q0 56 10 112l70 412q27 159 114 280.5t220 188.5t294 67q140 0 242.5 -52t157.5 -147.5t55 -224.5q0 -56 -10 -112l-70 -412q-27 -160 -114.5 -281.5t-220.5 -188t-293 -66.5q-140 0 -242.5 52t-157.5 147.5t-55 224.5zM666 301q60 -58 163 -58q78 0 143 33.5
t108.5 95t57.5 142.5l72 426q5 33 5 56q0 100 -60 157.5t-163 57.5q-78 0 -143 -33.5t-108 -95t-57 -142.5l-73 -426q-5 -33 -5 -56q0 -99 60 -157zM494 1485l-233 -443l-189 73l210 454z" />
    <glyph glyph-name="Upsilontonos" unicode="&#x38e;" horiz-adv-x="1478" 
d="M850 1454l188 -632l403 632h280l-589 -882l-96 -572h-267l98 573l-287 881h270zM564 1485l-233 -443l-189 73l210 454z" />
    <glyph glyph-name="Omegatonos" unicode="&#x38f;" horiz-adv-x="1590" 
d="M325 0l43 248h184q-64 45 -98 114t-34 155q0 40 7 79l57 337q27 160 114.5 281.5t220.5 188t293 66.5q141 0 243.5 -51.5t157 -147.5t54.5 -225q0 -56 -10 -112l-57 -337q-19 -114 -82 -203.5t-161 -144.5h184l-43 -248h-480l43 249q64 0 118.5 33t91 93t49.5 139l72 426
q5 33 5 57q0 102 -61.5 162t-167.5 60q-79 0 -146.5 -34.5t-112 -98t-58.5 -146.5l-72 -426q-6 -34 -6 -65q0 -93 46.5 -146.5t128.5 -53.5v-1l-43 -248h-480zM564 1485l-233 -443l-189 73l210 454z" />
    <glyph glyph-name="Iotadieresis" unicode="&#x3aa;" horiz-adv-x="569" 
d="M306 1454h275l-248 -1454h-275zM595 1830h261l-44 -257h-262zM161 1830h262l-45 -257h-261z" />
    <glyph glyph-name="Upsilondieresis" unicode="&#x3ab;" horiz-adv-x="1050" 
d="M384 1454l188 -632l403 632h280l-589 -882l-96 -572h-267l98 573l-287 881h270zM835 1830h261l-44 -257h-262zM401 1830h262l-45 -257h-261z" />
    <glyph glyph-name="uni0370" unicode="&#x370;" horiz-adv-x="1176" 
d="M486 844h612l-43 -248h-611l-102 -596h-265l248 1454h265z" />
    <glyph glyph-name="uni0372" unicode="&#x372;" horiz-adv-x="1166" 
d="M108 895l96 559h1077l-96 -559h-265l53 311h-140l-205 -1206h-266l205 1206h-141l-53 -311h-265z" />
    <glyph glyph-name="uni0376" unicode="&#x376;" horiz-adv-x="1454" 
d="M324 1454h255l-181 -1067l764 1067h287l-247 -1453h-255l178 1049l-759 -1049h-289z" />
    <glyph glyph-name="uni03D8" unicode="&#x3d8;" horiz-adv-x="1342" 
d="M183 805l22 128q28 160 115.5 281.5t220 188t292.5 66.5q140 0 243 -51.5t157.5 -147t54.5 -223.5q0 -57 -10 -114l-22 -128q-24 -137 -91.5 -246t-170.5 -180.5t-231 -96.5l-48 -282h-265l48 282q-154 32 -239.5 139.5t-85.5 269.5q0 57 10 114zM443 741q0 -102 61 -162
t167 -60q80 0 147.5 34.5t112 98t58.5 146.5l24 142q5 33 5 57q0 102 -61 162t-167 60q-80 0 -147.5 -34.5t-112 -98t-58.5 -146.5l-24 -142q-5 -33 -5 -57z" />
    <glyph glyph-name="uni03DA" unicode="&#x3da;" horiz-adv-x="1216" 
d="M139 448q0 276 94 488t267 334t403 134q181 10 204 143h260q-29 -171 -135.5 -265t-288.5 -106q-162 -11 -283 -96.5t-186 -233t-65 -340.5q0 -283 265 -283h210q182 0 182 -188q0 -41 -9 -92l-35 -204h-265l31 180q2 12 2 18q0 48 -59 48h-112q-240 0 -360 116.5
t-120 346.5z" />
    <glyph glyph-name="uni03DC" unicode="&#x3dc;" horiz-adv-x="1165" 
d="M1291 1454l-43 -248h-700l-64 -372h589l-43 -250h-588l-100 -584h-265l248 1454h966z" />
    <glyph glyph-name="uni03DE" unicode="&#x3de;" horiz-adv-x="1330" 
d="M1363 851l-575 -851h-286l406 602h-869l598 852h285l-423 -603h864z" />
    <glyph glyph-name="uni03E0" unicode="&#x3e0;" horiz-adv-x="1164" 
d="M121 914l635 199q-72 103 -239 103q-138 0 -332 -50l14 253q208 50 362 50q526 0 526 -508q0 -163 -44 -338t-120.5 -335.5t-171.5 -287.5h-276q80 103 146 228t112 256l-496 -154l-43 229l605 187q12 78 12 150l-646 -203z" />
    <glyph glyph-name="uni03CF" unicode="&#x3cf;" horiz-adv-x="1334" 
d="M77 0l248 1454h265l-122 -716l634 716h326l-552 -593l366 -861l-307 -422h-289l306 422l-273 649l-277 -299l-60 -350h-265z" />
    <glyph glyph-name="uni03D2" unicode="&#x3d2;" horiz-adv-x="1094" 
d="M81 1204l44 257q153 0 266.5 -46t176 -131t65.5 -199q41 112 129 196.5t222 132t306 47.5l-44 -257q-139 0 -247.5 -58t-179.5 -160.5t-102 -237.5l-129 -748h-261l126 745q4 36 4 78q0 177 -95 279t-281 102z" />
    <glyph glyph-name="uni03D3" unicode="&#x3d3;" horiz-adv-x="1462" 
d="M496 1204l44 257q153 0 266.5 -46t176 -131t65.5 -199q41 112 129 196.5t222 132t306 47.5l-44 -257q-139 0 -247.5 -58t-179.5 -160.5t-102 -237.5l-129 -748h-261l126 745q4 36 4 78q0 177 -95 279t-281 102zM494 1485l-233 -443l-189 73l210 454z" />
    <glyph glyph-name="uni03D4" unicode="&#x3d4;" horiz-adv-x="1094" 
d="M81 1204l44 257q153 0 266.5 -46t176 -131t65.5 -199q41 112 129 196.5t222 132t306 47.5l-44 -257q-139 0 -247.5 -58t-179.5 -160.5t-102 -237.5l-129 -748h-261l126 745q4 36 4 78q0 177 -95 279t-281 102zM857 1830h261l-44 -257h-262zM423 1830h262l-45 -257h-261z
" />
    <glyph glyph-name="uni03F4" unicode="&#x3f4;" horiz-adv-x="1342" 
d="M130 521l70 412q27 159 114 280.5t220 188.5t294 67q140 0 242.5 -52t157.5 -147.5t55 -224.5q0 -56 -10 -112l-70 -412q-27 -160 -114.5 -281.5t-220.5 -188t-293 -66.5q-140 0 -242.5 52t-157.5 147.5t-55 224.5q0 56 10 112zM459 847h526l16 93q5 33 5 56
q0 100 -60 157.5t-163 57.5q-78 0 -143 -33.5t-108 -95t-57 -142.5zM397 458q0 -99 60 -157t163 -58q78 0 143 33.5t108.5 95t57.5 142.5l14 83h-527l-14 -83q-5 -33 -5 -56z" />
    <glyph glyph-name="uni03F7" unicode="&#x3f7;" horiz-adv-x="1295" 
d="M77 0l248 1454h265l-44 -260h327q118 0 208 -46.5t139.5 -132t49.5 -197.5q0 -153 -68 -269.5t-192.5 -180.5t-287.5 -64h-328l-52 -304h-265zM771 552q64 0 113 28t75.5 79.5t26.5 118.5q0 76 -41 122t-108 46h-334l-67 -394h335z" />
    <glyph glyph-name="uni03F9" unicode="&#x3f9;" horiz-adv-x="1287" 
d="M136 527l68 399q29 169 113.5 291t215 187t295.5 65q137 0 239 -58t153 -163t51 -239v-25h-279l1 20q0 63 -28.5 110.5t-76 72.5t-105.5 25q-122 0 -202.5 -76.5t-103.5 -209.5l-68 -399q-6 -36 -6 -70q0 -101 56 -158t161 -57q61 0 115.5 27t93 78.5t53.5 122.5h248
q-15 -147 -94 -257.5t-201 -169t-260 -58.5q-143 0 -244 49t-153.5 142t-52.5 224q0 65 11 127z" />
    <glyph glyph-name="uni03FA" unicode="&#x3fa;" horiz-adv-x="1616" 
d="M325 1454h316l157 -973l487 973h327l-248 -1454h-245l172 1008l-432 -836h-219l-150 818l-169 -990h-244z" />
    <glyph glyph-name="uni03FD" unicode="&#x3fd;" horiz-adv-x="1287" 
d="M88 426q0 29 1 44h276q-2 -12 -2 -34q0 -60 29 -104t77.5 -67t105.5 -23q121 0 202 75t104 210l68 399q6 38 6 70q0 102 -56 159t-160 57q-61 0 -115.5 -27.5t-93 -79.5t-53.5 -121h-250q15 147 94.5 257.5t201.5 169t260 58.5q143 0 244 -49t153.5 -142t52.5 -224
q0 -66 -11 -128l-68 -399q-29 -169 -113.5 -291t-214.5 -186.5t-295 -64.5q-131 0 -231 53t-156 152.5t-56 235.5z" />
    <glyph glyph-name="uni03FE" unicode="&#x3fe;" horiz-adv-x="1287" 
d="M136 527l68 399q29 169 113.5 291t215 187t295.5 65q137 0 239 -58t153 -163t51 -239v-25h-279l1 20q0 63 -28.5 110.5t-76 72.5t-105.5 25q-122 0 -202.5 -76.5t-103.5 -209.5l-68 -399q-6 -36 -6 -70q0 -101 56 -158t161 -57q61 0 115.5 27t93 78.5t53.5 122.5h248
q-15 -147 -94 -257.5t-201 -169t-260 -58.5q-143 0 -244 49t-153.5 142t-52.5 224q0 65 11 127zM819 592h-281l46 267h281z" />
    <glyph glyph-name="uni03FF" unicode="&#x3ff;" horiz-adv-x="1287" 
d="M88 426q0 29 1 44h276q-2 -12 -2 -34q0 -60 29 -104t77.5 -67t105.5 -23q121 0 202 75t104 210l68 399q6 38 6 70q0 102 -56 159t-160 57q-61 0 -115.5 -27.5t-93 -79.5t-53.5 -121h-250q15 147 94.5 257.5t201.5 169t260 58.5q143 0 244 -49t153.5 -142t52.5 -224
q0 -66 -11 -128l-68 -399q-29 -169 -113.5 -291t-214.5 -186.5t-295 -64.5q-131 0 -231 53t-156 152.5t-56 235.5zM708 592h-281l46 267h281z" />
    <glyph glyph-name="uni03EF" unicode="&#x3ef;" horiz-adv-x="986" 
d="M37 -174h132q37 0 59.5 20.5t28.5 57.5l152 896h-306l41 238h306l51 302h263l-51 -302h308l-41 -238h-308l-161 -947q-23 -136 -105 -205.5t-232 -69.5h-180z" />
    <glyph glyph-name="uni03E5" unicode="&#x3e5;" horiz-adv-x="1314" 
d="M98 408q0 198 73 343.5t208 223.5t318 78h40l-43 -248h-40q-80 0 -141.5 -38.5t-96.5 -118.5t-35 -198q0 -103 56 -159.5t159 -56.5q127 0 207.5 56t101.5 158l100 590h264l-249 -1460h-263l97 568q-64 -79 -157.5 -120t-209.5 -41q-123 0 -210.5 49.5t-133 144.5
t-45.5 229z" />
    <glyph glyph-name="uni03EB" unicode="&#x3eb;" horiz-adv-x="1165" 
d="M-23 0l495 633l-60 133q-9 19 -22.5 29t-28.5 10h-123l43 248h161q102 0 140 -86l54 -124l97 124q67 86 168 86h162l-43 -248h-103q-16 0 -33 -10.5t-31 -28.5l-117 -148l272 -618h-1031zM648 241l-76 169l-134 -169h210z" />
    <glyph glyph-name="alpha" unicode="&#x3b1;" horiz-adv-x="1210" 
d="M89 307q0 60 12 130l29 169q24 140 83 240.5t149 153.5t204 53q92 0 153.5 -35.5t88.5 -103.5l21 124h263l-122 -717q-2 -14 -2 -21q0 -27 14 -42t41 -15h86l-43 -248h-135q-102 0 -162 42.5t-73 122.5q-50 -85 -129.5 -130t-182.5 -45q-143 0 -219 83.5t-76 238.5z
M397 272q38 -39 108 -39q88 0 145.5 51.5t74.5 145.5l30 176q4 23 4 48q0 72 -41 111.5t-117 39.5q-83 0 -137.5 -52.5t-70.5 -146.5l-29 -172q-5 -32 -5 -53q0 -71 38 -109z" />
    <glyph glyph-name="beta" unicode="&#x3b2;" horiz-adv-x="1154" 
d="M-15 -422l248 1454q23 138 93.5 236t181.5 149.5t255 51.5q117 0 202.5 -38t131.5 -108t46 -164q0 -32 -6 -68l-4 -24q-18 -108 -92 -189.5t-191 -118.5q102 -19 155.5 -82.5t53.5 -162.5q0 -31 -6 -66l-15 -92q-18 -111 -74.5 -195t-142 -130t-188.5 -46
q-113 0 -185.5 38.5t-101.5 122.5l-97 -568h-264zM390 387q0 -72 49 -112t126 -40q86 0 140 46t68 129l9 51q4 20 4 41q0 62 -37 95.5t-106 33.5h-87l43 250h87q67 0 111 42.5t59 124.5l4 22q3 17 3 32q0 56 -39 86.5t-111 30.5q-89 0 -145.5 -49.5t-70.5 -137.5l-105 -616
q-2 -20 -2 -29z" />
    <glyph glyph-name="gamma" unicode="&#x3b3;" horiz-adv-x="1101" 
d="M126 1053h155q160 0 202 -279l65 -437l353 701h264l-553 -1017l-76 -443h-263l75 441q4 20 4 50q0 32 -5 56l-109 608q-15 79 -79 79h-75z" />
    <glyph glyph-name="delta" unicode="&#x3b4;" horiz-adv-x="1156" 
d="M101 437l29 169q18 105 74 188.5t146 136.5t207 68l-243 202l44 253h780l-42 -247h-417l175 -139q64 -51 108.5 -97.5t75.5 -112t31 -147.5q0 -28 -7 -74l-35 -203q-24 -142 -96 -242.5t-184.5 -153.5t-258.5 -53q-122 0 -211 44t-136.5 125t-47.5 190q0 49 8 93z
M405 273q44 -40 124 -40q95 0 156.5 52.5t77.5 148.5l39 229q4 21 4 46q0 72 -43.5 112t-127.5 40q-95 0 -155 -52.5t-76 -146.5l-39 -228q-4 -23 -4 -48q0 -73 44 -113z" />
    <glyph glyph-name="epsilon" unicode="&#x3b5;" horiz-adv-x="1003" 
d="M54 257q0 72 31.5 130t84 95t113.5 48q-64 32 -87.5 81t-23.5 122v1q0 103 59 175t164.5 108t244.5 36q145 0 238.5 -40t138.5 -121l-203 -159q-77 80 -208 80q-82 0 -129.5 -28t-47.5 -80v-1q0 -31 17.5 -46t62.5 -15h169l-41 -238h-169q-60 0 -96.5 -23.5t-36.5 -66.5
v-1q0 -45 37 -67t119 -22q120 0 254 85l143 -172q-165 -153 -431 -153q-120 0 -211.5 33.5t-141.5 95t-50 142.5v1z" />
    <glyph glyph-name="zeta" unicode="&#x3b6;" horiz-adv-x="1080" 
d="M135 554q44 113 139.5 224.5t251.5 229.5l67 51q134 101 197 143l-502 1l43 251h831l-45 -258l-388 -297q-154 -119 -256.5 -244.5t-102.5 -268.5q0 -87 54.5 -121t151.5 -34h155q121 0 181 -55.5t60 -167.5q0 -43 -9 -94l-30 -175h-264l27 158q2 16 2 23
q0 32 -21.5 48.5t-71.5 16.5h-87q-220 2 -324 79.5t-104 247.5q0 128 45 242z" />
    <glyph glyph-name="eta" unicode="&#x3b7;" horiz-adv-x="1184" 
d="M57 0l177 1038h264l-24 -142q126 157 302 157q94 0 162 -39t104 -111.5t36 -170.5q0 -48 -9 -102l-158 -926h-264l158 925q3 21 3 39q0 66 -43 101.5t-123 35.5q-86 0 -141 -42.5t-70 -119.5l-110 -643h-264z" />
    <glyph glyph-name="theta" unicode="&#x3b8;" horiz-adv-x="1156" 
d="M101 437l100 585q24 140 95 240.5t184 153.5t260 53q122 0 211.5 -43.5t137 -124t47.5 -188.5q0 -40 -8 -91l-101 -588q-24 -142 -96 -242.5t-184.5 -153.5t-258.5 -53q-122 0 -211 44t-136.5 125t-47.5 190q0 49 8 93zM425 838h416l31 184q4 23 4 47q0 76 -46.5 117.5
t-131.5 41.5q-98 0 -162 -54.5t-80 -151.5zM352 385q0 -75 45.5 -117t130.5 -42q99 0 163 55t81 153l29 172h-416l-29 -172q-4 -23 -4 -49z" />
    <glyph glyph-name="iota" unicode="&#x3b9;" horiz-adv-x="634" 
d="M90 270l131 768h269l-122 -717q-2 -12 -2 -18q0 -28 17.5 -44t49.5 -16h99l-43 -248h-150q-123 0 -189 55.5t-66 157.5q0 29 6 62z" />
    <glyph glyph-name="kappa" unicode="&#x3ba;" horiz-adv-x="1123" 
d="M234 1038h264l-83 -485l344 358q136 142 290 142h117l-44 -254h-26q-62 0 -104 -16t-87 -60l-116 -112l252 -611h-288l-163 421l-236 -226l-33 -195h-264z" />
    <glyph glyph-name="lambda" unicode="&#x3bb;" horiz-adv-x="1116" 
d="M492 933l-48 201q-10 42 -35 60.5t-66 18.5h-52l43 248h141q75 0 121.5 -34t67.5 -121l229 -989q9 -40 31 -59.5t62 -19.5h59l-43 -248h-131q-75 0 -121.5 28t-62.5 97l-118 494l-363 -609h-269z" />
    <glyph glyph-name="uni03BC" unicode="&#x3bc;" horiz-adv-x="1259" 
d="M233 1038h264l-111 -652q-1 -7 -1 -22q0 -64 41 -97.5t118 -33.5q89 0 144 44.5t69 128.5l107 632h262l-115 -679q-3 -16 -3 -31q0 -41 21 -63t59 -22h70l-43 -248h-149q-90 0 -147.5 33.5t-78.5 97.5q-33 -68 -94 -104.5t-144 -36.5q-71 0 -115.5 31.5t-57.5 90.5
l-57 -387h-263z" />
    <glyph glyph-name="nu" unicode="&#x3bd;" horiz-adv-x="1081" 
d="M136 1053h100q62 0 110 -21.5t83 -82.5t47 -172l46 -409l335 670h268l-566 -1038h-188l-133 726q-8 41 -31.5 60t-69.5 19h-44z" />
    <glyph glyph-name="xi" unicode="&#x3be;" horiz-adv-x="1136" 
d="M113 399l3 26q16 140 90.5 223.5t199.5 110.5q-89 25 -120 73t-31 121v4q0 87 50 149.5t145 99.5h-209l43 248h906l-43 -248h-394q-104 -7 -162.5 -55t-58.5 -135v-5q0 -45 17 -73.5t57.5 -42.5t112.5 -14h291l-43 -250h-291q-133 0 -210.5 -51.5t-89.5 -152.5l-2 -17
q-2 -22 -2 -30q0 -78 58 -117.5t187 -39.5h208q156 0 156 -151q0 -30 -6 -68l-46 -265h-264l31 180q2 12 2 17q0 49 -61 49h-61q-147 0 -252 43.5t-159.5 124.5t-54.5 192q0 27 3 54z" />
    <glyph glyph-name="omicron" unicode="&#x3bf;" horiz-adv-x="1156" 
d="M101 437l29 169q24 141 95.5 241.5t184.5 153t259 52.5q122 0 211.5 -43.5t137 -123.5t47.5 -188q0 -49 -8 -92l-30 -172q-25 -142 -96.5 -242.5t-184 -153.5t-258.5 -53q-122 0 -211 44t-136.5 125t-47.5 190q0 49 8 93zM405 273q44 -40 124 -40q96 0 157.5 52.5
t77.5 148.5l29 172q4 21 4 46q0 74 -44.5 113.5t-126.5 39.5q-94 0 -155 -52.5t-77 -146.5l-29 -172q-4 -23 -4 -48q0 -73 44 -113z" />
    <glyph glyph-name="pi" unicode="&#x3c0;" horiz-adv-x="1426" 
d="M183 1038h1227l-43 -248h-198l-80 -474q-2 -16 -2 -23q0 -26 12.5 -40.5t37.5 -14.5h87l-43 -248h-109q-135 0 -198.5 52t-63.5 153q0 27 7 71l89 524h-311l-135 -790h-269l135 790h-186z" />
    <glyph glyph-name="rho" unicode="&#x3c1;" horiz-adv-x="1154" 
d="M-15 -422l175 1028q24 141 93.5 241.5t179 153t251.5 52.5q117 0 203 -43t131.5 -122t45.5 -186q0 -46 -9 -96l-31 -179q-37 -211 -153.5 -326.5t-293.5 -115.5q-84 0 -145 34.5t-91 99.5l-92 -541h-264zM429 261q40 -38 113 -38q87 0 145 53.5t74 150.5l30 179
q5 32 5 54q0 74 -40 114.5t-113 40.5q-88 0 -145 -55t-74 -154l-32 -188q-4 -23 -4 -48q0 -71 41 -109z" />
    <glyph glyph-name="uni03C2" unicode="&#x3c2;" horiz-adv-x="1060" 
d="M103 451l24 141q25 146 100.5 249.5t195.5 157.5t275 54q130 0 228 -42.5t147 -121.5l-207 -175q-36 44 -90.5 67.5t-116.5 23.5q-111 0 -182 -58t-88 -163l-22 -133q-4 -23 -4 -49q0 -82 52 -126.5t148 -44.5h19q109 0 167.5 -56.5t58.5 -160.5q0 -34 -6 -73l-34 -202
h-265l27 158q3 15 3 29q0 59 -73 59h-8q-111 0 -192 44t-123.5 125t-42.5 191q0 51 9 106z" />
    <glyph glyph-name="sigma" unicode="&#x3c3;" horiz-adv-x="1256" 
d="M101 437l29 169q23 136 91.5 233t176.5 148t247 51h655l-42 -248h-357q51 -31 78 -83.5t27 -116.5q0 -28 -4 -52l-17 -104q-23 -142 -92.5 -243t-178 -153.5t-248.5 -52.5q-116 0 -200 43.5t-129 123t-45 187.5q0 47 9 98zM398 272q39 -39 110 -39q86 0 142.5 52.5
t72.5 148.5l28 165q4 23 4 47q0 62 -31.5 99t-90.5 45h-2q-18 2 -29 2q-84 0 -139 -50.5t-71 -142.5l-28 -165q-5 -30 -5 -52q0 -72 39 -110z" />
    <glyph glyph-name="tau" unicode="&#x3c4;" horiz-adv-x="1096" 
d="M183 1038h877l-43 -248h-310l-81 -474q-2 -16 -2 -22q0 -26 13.5 -41t41.5 -15h89l-42 -248h-149q-118 0 -174.5 50t-56.5 148q0 39 7 77l89 525h-302z" />
    <glyph glyph-name="upsilon" unicode="&#x3c5;" horiz-adv-x="1189" 
d="M93 804l43 248h86q126 0 193 -56t67 -159q0 -35 -5 -61l-63 -369q-4 -28 -4 -40q0 -64 40.5 -99t113.5 -35q86 0 140.5 45.5t68.5 128.5l107 631h263l-107 -631q-34 -202 -169 -312t-345 -110q-185 0 -283 84.5t-98 240.5q0 46 9 97l54 318q2 16 2 21q0 29 -14.5 43.5
t-40.5 14.5h-58z" />
    <glyph glyph-name="phi" unicode="&#x3c6;" horiz-adv-x="1406" 
d="M93 417q0 51 7 100l2 14q32 225 172 357.5t396 158.5l50 292h247l-50 -294q192 -26 294 -137t102 -294q0 -35 -5 -83l-2 -17q-27 -235 -173 -366.5t-395 -156.5l-50 -292h-247l50 294q-194 25 -296 134.5t-102 289.5zM525 195l111 649q-246 -47 -286 -288l-12 -73
q-6 -36 -6 -69q0 -181 193 -219zM1058 484l12 73q6 36 6 68q0 179 -193 218l-111 -648q246 45 286 289z" />
    <glyph glyph-name="chi" unicode="&#x3c7;" horiz-adv-x="1075" 
d="M383 324l-154 403q-17 45 -39 61.5t-59 16.5h-42l43 248h90q50 0 86.5 -12t71 -52.5t64.5 -121.5l117 -311l313 482h287l-507 -729l157 -420q18 -48 39.5 -63t67.5 -15h33l-43 -248h-91q-55 0 -91.5 16t-65.5 55.5t-58 114.5l-126 330l-334 -501h-285z" />
    <glyph glyph-name="psi" unicode="&#x3c8;" horiz-adv-x="1492" 
d="M141 433q0 63 12 133l80 472h264l-82 -479q-7 -41 -7 -81q0 -92 42 -153t122 -87l188 1101h263l-188 -1101q108 31 176.5 113t90.5 208l81 479h263l-80 -472q-41 -242 -189.5 -390.5t-383.5 -181.5l-50 -295h-263l50 295q-189 29 -289 141t-100 298z" />
    <glyph glyph-name="omega" unicode="&#x3c9;" horiz-adv-x="1528" 
d="M89 364l50 292q32 189 161.5 293t332.5 104l-43 -248q-78 0 -127 -39t-61 -110l-50 -295q-3 -16 -3 -30q0 -47 28.5 -72.5t80.5 -25.5q59 0 99 33.5t50 94.5l47 281h263l-47 -281q-3 -15 -3 -30q0 -46 27.5 -72t80.5 -26q60 0 99.5 33.5t49.5 94.5l50 295q3 18 3 33
q0 56 -36.5 86t-104.5 30l43 248q177 0 272 -80t95 -228q0 -38 -8 -89l-50 -292q-31 -180 -145 -279.5t-290 -99.5q-97 0 -161 37.5t-94 108.5q-54 -71 -131 -108.5t-172 -37.5q-97 0 -167.5 36.5t-108 103.5t-37.5 157q0 43 7 82z" />
    <glyph glyph-name="iotatonos" unicode="&#x3af;" horiz-adv-x="634" 
d="M90 270l131 768h269l-122 -717q-2 -12 -2 -18q0 -28 17.5 -44t49.5 -16h99l-43 -248h-150q-123 0 -189 55.5t-66 157.5q0 29 6 62zM716 1699l-233 -443l-189 73l210 454z" />
    <glyph glyph-name="iotadieresis" unicode="&#x3ca;" horiz-adv-x="634" 
d="M90 270l131 768h269l-122 -717q-2 -12 -2 -18q0 -28 17.5 -44t49.5 -16h99l-43 -248h-150q-123 0 -189 55.5t-66 157.5q0 29 6 62zM515 1472h262l-44 -258h-262zM77 1472h262l-45 -258h-262z" />
    <glyph glyph-name="iotadieresistonos" unicode="&#x390;" horiz-adv-x="634" 
d="M90 270l131 768h269l-122 -717q-2 -12 -2 -18q0 -28 17.5 -44t49.5 -16h99l-43 -248h-150q-123 0 -189 55.5t-66 157.5q0 29 6 62zM465 1783l212 -84l-233 -443l-189 73zM623 1472h260l-44 -258h-260zM-72 1214l45 258h260l-45 -258h-260z" />
    <glyph glyph-name="upsilontonos" unicode="&#x3cd;" horiz-adv-x="1189" 
d="M93 804l43 248h86q126 0 193 -56t67 -159q0 -35 -5 -61l-63 -369q-4 -28 -4 -40q0 -64 40.5 -99t113.5 -35q86 0 140.5 45.5t68.5 128.5l107 631h263l-107 -631q-34 -202 -169 -312t-345 -110q-185 0 -283 84.5t-98 240.5q0 46 9 97l54 318q2 16 2 21q0 29 -14.5 43.5
t-40.5 14.5h-58zM1039 1699l-233 -443l-189 73l210 454z" />
    <glyph glyph-name="upsilondieresis" unicode="&#x3cb;" horiz-adv-x="1189" 
d="M93 804l43 248h86q126 0 193 -56t67 -159q0 -35 -5 -61l-63 -369q-4 -28 -4 -40q0 -64 40.5 -99t113.5 -35q86 0 140.5 45.5t68.5 128.5l107 631h263l-107 -631q-34 -202 -169 -312t-345 -110q-185 0 -283 84.5t-98 240.5q0 46 9 97l54 318q2 16 2 21q0 29 -14.5 43.5
t-40.5 14.5h-58zM838 1472h262l-44 -258h-262zM400 1472h262l-45 -258h-262z" />
    <glyph glyph-name="upsilondieresistonos" unicode="&#x3b0;" horiz-adv-x="1189" 
d="M93 804l43 248h86q126 0 193 -56t67 -159q0 -35 -5 -61l-63 -369q-4 -28 -4 -40q0 -64 40.5 -99t113.5 -35q86 0 140.5 45.5t68.5 128.5l107 631h263l-107 -631q-34 -202 -169 -312t-345 -110q-185 0 -283 84.5t-98 240.5q0 46 9 97l54 318q2 16 2 21q0 29 -14.5 43.5
t-40.5 14.5h-58zM788 1783l212 -84l-233 -443l-189 73zM946 1472h260l-44 -258h-260zM251 1214l45 258h260l-45 -258h-260z" />
    <glyph glyph-name="omicrontonos" unicode="&#x3cc;" horiz-adv-x="1156" 
d="M101 437l29 169q24 141 95.5 241.5t184.5 153t259 52.5q122 0 211.5 -43.5t137 -123.5t47.5 -188q0 -49 -8 -92l-30 -172q-25 -142 -96.5 -242.5t-184 -153.5t-258.5 -53q-122 0 -211 44t-136.5 125t-47.5 190q0 49 8 93zM405 273q44 -40 124 -40q96 0 157.5 52.5
t77.5 148.5l29 172q4 21 4 46q0 74 -44.5 113.5t-126.5 39.5q-94 0 -155 -52.5t-77 -146.5l-29 -172q-4 -23 -4 -48q0 -73 44 -113zM1030 1699l-233 -443l-189 73l210 454z" />
    <glyph glyph-name="omegatonos" unicode="&#x3ce;" horiz-adv-x="1528" 
d="M89 364l50 292q32 189 161.5 293t332.5 104l-43 -248q-78 0 -127 -39t-61 -110l-50 -295q-3 -16 -3 -30q0 -47 28.5 -72.5t80.5 -25.5q59 0 99 33.5t50 94.5l47 281h263l-47 -281q-3 -15 -3 -30q0 -46 27.5 -72t80.5 -26q60 0 99.5 33.5t49.5 94.5l50 295q3 18 3 33
q0 56 -36.5 86t-104.5 30l43 248q177 0 272 -80t95 -228q0 -38 -8 -89l-50 -292q-31 -180 -145 -279.5t-290 -99.5q-97 0 -161 37.5t-94 108.5q-54 -71 -131 -108.5t-172 -37.5q-97 0 -167.5 36.5t-108 103.5t-37.5 157q0 43 7 82zM1216 1699l-233 -443l-189 73l210 454z
" />
    <glyph glyph-name="alphatonos" unicode="&#x3ac;" horiz-adv-x="1210" 
d="M89 307q0 60 12 130l29 169q24 140 83 240.5t149 153.5t204 53q92 0 153.5 -35.5t88.5 -103.5l21 124h263l-122 -717q-2 -14 -2 -21q0 -27 14 -42t41 -15h86l-43 -248h-135q-102 0 -162 42.5t-73 122.5q-50 -85 -129.5 -130t-182.5 -45q-143 0 -219 83.5t-76 238.5z
M397 272q38 -39 108 -39q88 0 145.5 51.5t74.5 145.5l30 176q4 23 4 48q0 72 -41 111.5t-117 39.5q-83 0 -137.5 -52.5t-70.5 -146.5l-29 -172q-5 -32 -5 -53q0 -71 38 -109zM999 1699l-233 -443l-189 73l210 454z" />
    <glyph glyph-name="epsilontonos" unicode="&#x3ad;" horiz-adv-x="1003" 
d="M54 257q0 72 31.5 130t84 95t113.5 48q-64 32 -87.5 81t-23.5 122v1q0 103 59 175t164.5 108t244.5 36q145 0 238.5 -40t138.5 -121l-203 -159q-77 80 -208 80q-82 0 -129.5 -28t-47.5 -80v-1q0 -31 17.5 -46t62.5 -15h169l-41 -238h-169q-60 0 -96.5 -23.5t-36.5 -66.5
v-1q0 -45 37 -67t119 -22q120 0 254 85l143 -172q-165 -153 -431 -153q-120 0 -211.5 33.5t-141.5 95t-50 142.5v1zM969 1699l-233 -443l-189 73l210 454z" />
    <glyph glyph-name="etatonos" unicode="&#x3ae;" horiz-adv-x="1184" 
d="M57 0l177 1038h264l-24 -142q126 157 302 157q94 0 162 -39t104 -111.5t36 -170.5q0 -48 -9 -102l-158 -926h-264l158 925q3 21 3 39q0 66 -43 101.5t-123 35.5q-86 0 -141 -42.5t-70 -119.5l-110 -643h-264zM1044 1699l-233 -443l-189 73l210 454z" />
    <glyph glyph-name="uni0371" unicode="&#x371;" horiz-adv-x="796" 
d="M431 633h311l-42 -246h-311l-66 -387h-266l177 1038h266z" />
    <glyph glyph-name="uni0373" unicode="&#x373;" horiz-adv-x="1026" 
d="M95 933l89 521h977l-89 -521h-242l47 275h-119l-205 -1208h-255l206 1208h-119l-48 -275h-242z" />
    <glyph glyph-name="uni0377" unicode="&#x377;" horiz-adv-x="1214" 
d="M234 1038h253l-108 -643l556 643h224l-177 -1037h-254l106 626l-551 -626h-226z" />
    <glyph glyph-name="uni037B" unicode="&#x37b;" horiz-adv-x="1060" 
d="M188 311q35 -42 87.5 -65t116.5 -23q113 0 187 60.5t93 175.5l21 125q4 23 4 49q0 84 -53.5 128t-153.5 44q-62 0 -123 -21.5t-109 -59.5l-145 163q76 79 190.5 122.5t247.5 43.5q128 0 221 -46t143 -130.5t50 -198.5q0 -41 -8 -94l-21 -125q-25 -149 -99.5 -255.5
t-193.5 -162.5t-274 -56q-132 0 -232 42.5t-150 120.5z" />
    <glyph glyph-name="uni037C" unicode="&#x37c;" horiz-adv-x="1060" 
d="M105 459l21 125q25 150 100.5 255t194.5 159.5t272 54.5q132 0 232 -43.5t149 -122.5l-202 -165q-35 39 -89 61t-116 22q-115 0 -187 -57.5t-90 -163.5l-21 -125q-5 -30 -5 -51q0 -84 53 -129.5t154 -45.5q63 0 124 23.5t110 66.5l143 -175q-77 -78 -191.5 -120.5
t-245.5 -42.5q-128 0 -221.5 46t-143 131t-49.5 200q0 52 8 97zM775 380h-281l46 267h281z" />
    <glyph glyph-name="uni037D" unicode="&#x37d;" horiz-adv-x="1060" 
d="M188 311q35 -42 87.5 -65t116.5 -23q113 0 187 60.5t93 175.5l21 125q4 23 4 49q0 84 -53.5 128t-153.5 44q-62 0 -123 -21.5t-109 -59.5l-145 163q76 79 190.5 122.5t247.5 43.5q128 0 221 -46t143 -130.5t50 -198.5q0 -41 -8 -94l-21 -125q-25 -149 -99.5 -255.5
t-193.5 -162.5t-274 -56q-132 0 -232 42.5t-150 120.5zM505 380h-281l46 267h281z" />
    <glyph glyph-name="uni03D9" unicode="&#x3d9;" horiz-adv-x="1156" 
d="M101 437l29 169q24 141 95.5 241.5t184.5 153t259 52.5q122 0 211.5 -43.5t137 -123.5t47.5 -188q0 -49 -8 -92l-30 -172q-31 -178 -135 -290.5t-268 -145.5l-50 -294h-269l51 296q-125 32 -194 121.5t-69 222.5q0 49 8 93zM361 386q0 -73 44 -113t124 -40
q96 0 157.5 52.5t77.5 148.5l29 172q4 21 4 46q0 74 -44.5 113.5t-126.5 39.5q-94 0 -155 -52.5t-77 -146.5l-29 -172q-4 -23 -4 -48z" />
    <glyph glyph-name="uni03DB" unicode="&#x3db;" horiz-adv-x="1101" 
d="M99 364q0 289 173 454.5t503 191.5q53 4 83.5 37t39.5 84h258q-27 -156 -131 -247.5t-279 -104.5q-185 -13 -284 -102.5t-99 -246.5q0 -199 255 -199h75q110 0 176 -44.5t66 -171.5q0 -47 -10 -101l-30 -175h-263l27 158q2 18 2 25q0 31 -18.5 47t-60.5 16h-22
q-230 0 -345.5 95.5t-115.5 283.5z" />
    <glyph glyph-name="uni03DD" unicode="&#x3dd;" horiz-adv-x="1045" 
d="M1100 1038l-43 -248h-581l-65 -377l467 1l-43 -250l-466 -1l-100 -585h-264l249 1460h846z" />
    <glyph glyph-name="uni03DF" unicode="&#x3df;" horiz-adv-x="1250" 
d="M1191 429l-550 -851h-303l389 602h-730l574 858h303l-408 -609h725z" />
    <glyph glyph-name="uni03E1" unicode="&#x3e1;" horiz-adv-x="1214" 
d="M126 815l659 210q-76 191 -290 191q-148 0 -299 -50l2 253q195 50 341 50q560 0 560 -660q0 -200 -47.5 -425t-132 -436t-191.5 -370h-277q103 145 185.5 338.5t131.5 397.5l-546 -175l-42 235l635 202q11 99 11 182v33l-658 -210z" />
    <glyph glyph-name="uni03D7" unicode="&#x3d7;" horiz-adv-x="1292" 
d="M246 434q52 194 52 263q0 47 -23 72.5t-67 25.5h-86l42 248h128q136 0 210 -61t74 -175q0 -71 -36.5 -195t-100.5 -271l576 697h249q-59 -127 -114 -274t-88.5 -268.5t-33.5 -174.5q0 -37 18.5 -57t52.5 -20h83l-43 -248h-1l-6 -37q-25 -145 -118.5 -225t-236.5 -80h-174
l43 248h103q54 0 88.5 28t43.5 80l2 12q-63 27 -95.5 80t-32.5 129q0 74 30 175t79 185l-506 -590h-247q82 238 135 433z" />
    <glyph glyph-name="uni03D0" unicode="&#x3d0;" horiz-adv-x="1176" 
d="M121 437l100 585q24 140 93.5 240.5t180.5 153.5t255 53q115 0 199 -38.5t128.5 -110t44.5 -167.5q0 -36 -8 -81l-4 -22q-18 -101 -83.5 -184.5t-162.5 -113.5q93 -33 141 -97.5t48 -156.5q0 -37 -7 -72l-4 -22q-36 -199 -175 -309t-359 -110q-122 0 -211 44t-136.5 125
t-47.5 190q0 49 8 93zM425 273q44 -40 125 -40q95 0 155 44t73 125l4 24q4 21 4 46q0 73 -44 112t-126 39h-102l43 250h102q77 0 126.5 48t62.5 137l2 14q2 10 2 29q0 58 -37.5 89t-107.5 31q-90 0 -148 -52t-74 -147l-100 -588q-4 -23 -4 -48q0 -73 44 -113z" />
    <glyph glyph-name="uni03D1" unicode="&#x3d1;" horiz-adv-x="1264" 
d="M99 833q174 0 267 -72t93 -204q0 -28 -7 -72l-14 -81q-3 -21 -3 -40q0 -63 38.5 -97t111.5 -34q83 0 137 52.5t71 148.5l55 322h-194q-93 0 -161 34.5t-104.5 98t-36.5 148.5q0 31 4 56l3 22q15 112 74 191.5t154 121t218 41.5q111 0 192.5 -42.5t124.5 -121.5t43 -185
q0 -47 -9 -98l-3 -17h160l-42 -249h-160l-55 -319q-24 -142 -93 -243.5t-176 -155t-245 -53.5q-116 0 -200.5 40.5t-129.5 115.5t-45 177q0 38 8 86l4 28q3 18 3 34q0 57 -32.5 88t-93.5 31zM726 1005h164l3 17q5 32 5 54q0 69 -35 107t-101 38q-60 0 -99 -28t-43 -78
l-1 -12q-1 -6 -1 -12q0 -86 108 -86z" />
    <glyph glyph-name="uni03D5" unicode="&#x3d5;" horiz-adv-x="1406" 
d="M101 522l2 11q67 368 369 489l96 -189q-94 -41 -150 -116.5t-72 -183.5l-2 -14q-6 -43 -6 -80q0 -101 46.5 -161.5t141.5 -82.5l79 466q67 399 434 399q93 0 160 -38t103 -108.5t36 -165.5q0 -46 -9 -97l-22 -130q-41 -241 -183.5 -373.5t-388.5 -157.5l-49 -291h-244
l50 293q-125 18 -215.5 74.5t-138 145.5t-47.5 203q0 54 10 107zM1064 521l27 163q4 23 4 46q0 103 -100 103q-57 0 -92.5 -34.5t-47.5 -104.5l-85 -499q248 50 294 326z" />
    <glyph glyph-name="uni03D6" unicode="&#x3d6;" horiz-adv-x="1828" 
d="M140 790l43 248h1639l-43 -248h-233q69 -72 69 -213q0 -56 -12 -122l-12 -68q-34 -192 -154.5 -297t-309.5 -105q-105 0 -175 41t-101 120q-57 -78 -141.5 -119.5t-190.5 -41.5q-104 0 -179.5 38.5t-116 109t-40.5 166.5q0 38 8 88l12 68q20 115 65 200t111 135h-239z
M484 263q35 -30 98 -30q72 0 118.5 39.5t58.5 111.5l31 181h263l-30 -181q-3 -18 -3 -35q0 -56 33.5 -86t95.5 -30q74 0 121.5 39.5t59.5 111.5l25 151q8 50 8 85q0 82 -32.5 126t-93.5 44h-555q-76 0 -129.5 -66.5t-74.5 -188.5l-26 -151q-3 -18 -3 -35q0 -56 35 -86z" />
    <glyph glyph-name="uni03F0" unicode="&#x3f0;" horiz-adv-x="1292" 
d="M111 1q82 238 134.5 432.5t52.5 263.5q0 47 -23 72.5t-67 25.5h-86l42 248h128q136 0 210 -61t74 -175q0 -71 -36.5 -195t-100.5 -271l576 697h249q-59 -127 -114 -274t-88.5 -268.5t-33.5 -174.5q0 -37 18.5 -57t52.5 -20h83l-43 -248h-110q-132 0 -203 61t-71 174
q0 74 30 175t79 185l-506 -590h-247z" />
    </font>
</defs>
</svg>
